<svg viewBox="0 0 20 23" xmlns="http://www.w3.org/2000/svg" xml:space="preserve" style="fill-rule:evenodd;clip-rule:evenodd;stroke-linejoin:round;stroke-miterlimit:2">   
    <path d="M5.226 2.673h8.059c1.019 0 1.845.826 1.845 1.845v15.743l.84.105a1.303 1.303 0 0 0 1.457-1.133l1.997-15.985a1.306 1.306 0 0 0-1.134-1.457L6.83.359a1.307 1.307 0 0 0-1.457 1.134l-.147 1.18Z" fill="#cab4a2"/>
    <path d="M14.64 4.468a1.305 1.305 0 0 0-1.306-1.305H1.786A1.305 1.305 0 0 0 .48 4.468v16.109a1.31 1.31 0 0 0 1.306 1.306h11.548a1.306 1.306 0 0 0 1.306-1.306V4.468Zm-2.15 14.535a.25.25 0 0 0-.25-.25H2.88a.25.25 0 0 0-.25.25v1.2c0 .138.112.25.25.25h9.36a.25.25 0 0 0 .25-.25v-1.2Zm-.5.25v.7H3.13v-.7h8.86Zm.5-2.41a.25.25 0 0 0-.25-.25H2.88a.25.25 0 0 0-.25.25v1.2c0 .138.112.25.25.25h9.36a.25.25 0 0 0 .25-.25v-1.2Zm-.5.25v.7H3.13v-.7h8.86ZM6.345 5.826a4.269 4.269 0 0 0-1.343.636l-1.778-.143a.25.25 0 0 0-.259.324l.538 1.712a4.265 4.265 0 0 0-.308 1.424l-1.25 1.332a.25.25 0 0 0-.061.227.25.25 0 0 0 .154.178l1.788.69c.216.351.481.668.786.943l.283 1.95a.25.25 0 0 0 .374.18l1.724-1.009.26-.026a4.375 4.375 0 0 0 .778-.03l1.82 1.065a.25.25 0 0 0 .374-.18l.304-2.096.644-.75 1.909-.737a.25.25 0 0 0 .154-.178.25.25 0 0 0-.061-.227l-1.407-1.499-.025-.108a4.326 4.326 0 0 0-.2-.914l.612-1.947a.25.25 0 0 0-.259-.324l-1.863.15-.23-.11a4.236 4.236 0 0 0-.963-.464l-.028-.014-1.045-1.55a.25.25 0 0 0-.414 0L6.345 5.826ZM5.336 14.66l.977-.571a4.289 4.289 0 0 1-1.133-.508l.156 1.079Zm4.622-1.2c-.364.258-.77.461-1.205.597l1.031.603.174-1.2Zm.56-1.238a4.04 4.04 0 0 1-5.286-5.33 3.632 3.632 0 0 1 2.328-.845c2.053 0 3.72 1.72 3.72 3.84 0 .32-.038.631-.11.929a3.769 3.769 0 0 1-.652 1.406Zm1.234-1.897a4.237 4.237 0 0 1-.316 1.29l1.12-.432-.804-.858Zm-9.188.858.928.358a4.22 4.22 0 0 1-.269-1.06l-.659.702Zm7.948-4.251c.285.285.529.609.725.964l.33-1.049-1.055.085Zm-6.685.784a4.3 4.3 0 0 1 .631-.796l-.905-.073.274.869Zm3.208-2.019a4.341 4.341 0 0 1 1.065.022l-.54-.801-.525.779Z" fill="#cab4a2"/>
</svg>
