<svg viewBox="0 0 20 23" xmlns="http://www.w3.org/2000/svg" xml:space="preserve" style="fill-rule:evenodd;clip-rule:evenodd;stroke-linejoin:round;stroke-miterlimit:2">
    <path d="M18.104 2.491A2.012 2.012 0 0 0 16.093.48H3.587a2.01 2.01 0 0 0-2.011 2.011v17.098A2.012 2.012 0 0 0 3.587 21.6h12.506a2.01 2.01 0 0 0 2.011-2.011V2.491ZM5.928 6.337a.147.147 0 0 0-.037.024 7.113 7.113 0 0 0-2.718 5.597v.022a.929.929 0 0 0 .239 1.824h.003a7.143 7.143 0 0 0 5.038 5.038v.003a.929.929 0 0 0 1.825.239h.021a7.117 7.117 0 0 0 5.627-2.754h.801a.24.24 0 0 0 .239-.24v-1.147a.24.24 0 0 0-.239-.24h-1.148a.24.24 0 0 0-.239.24v.504a6.584 6.584 0 0 1-1.852.39.93.93 0 0 0-1.745-.115 6.66 6.66 0 0 1-5.247-5.421.93.93 0 0 0-.058-1.755c.048-.484.147-.952.293-1.399h.584a.239.239 0 0 0 .239-.239V5.76a.239.239 0 0 0-.239-.239H6.167a.239.239 0 0 0-.239.239v.577ZM9.83 18.816a.45.45 0 1 0 0 .053c-.002-.011-.002-.023-.002-.036l.002-.017ZM5.931 6.948a6.636 6.636 0 0 0-2.28 5.01v.022a.928.928 0 0 1 .226 1.7 6.665 6.665 0 0 0 4.701 4.701.927.927 0 0 1 1.7.225h.021a6.636 6.636 0 0 0 5.089-2.372.24.24 0 0 1-.048-.144v-.136a7.046 7.046 0 0 1-1.845.362.929.929 0 0 1-1.822-.12 7.14 7.14 0 0 1-5.653-5.847.928.928 0 0 1-.061-1.82c.045-.476.137-.938.271-1.382h-.063a.24.24 0 0 1-.236-.199Zm6.227 9.248a.45.45 0 1 0 .043-.323.235.235 0 0 1 .041.174.236.236 0 0 1-.084.149Zm4.33-1.014v.669h-.67v-.669h.67ZM3.327 12.435a.45.45 0 1 0 .176.001.22.22 0 0 1-.077.016.252.252 0 0 1-.099-.017Zm8.914-9.43v4.592l.002.035a.804.804 0 1 0 .474 0l.002-.035V3.005h1.653c.16 0 .289.129.289.289v6.175a.2.2 0 0 1-.053.136l-1.832 1.977a.2.2 0 0 1-.283.01l-2.13-1.985a.2.2 0 0 1-.064-.146V3.294c0-.16.129-.289.289-.289h1.653ZM6.142 8.984a.45.45 0 1 0 .069.002c-.015.001-.03.002-.045.001l-.024-.003Zm.486-2.315h.448v-.67h-.67v.67h.092a.23.23 0 0 1 .13 0Z" fill="#cab4a2"/>
</svg>
