<svg viewBox="0 0 13 17" xmlns="http://www.w3.org/2000/svg" xml:space="preserve" style="fill-rule:evenodd;clip-rule:evenodd;stroke-linejoin:round;stroke-miterlimit:2">    
    <path d="M4.643 4.087H3.407A3.168 3.168 0 0 0 .24 7.254v5.665a3.17 3.17 0 0 0 3.167 3.168h5.666a3.17 3.17 0 0 0 3.167-3.168V7.254a3.168 3.168 0 0 0-3.167-3.167H7.298c.121-.059.255-.115.392-.171.468-.192.961-.394 1.228-.62.267-.225.582-.555.782-.916.165-.298.252-.619.224-.931C9.865.786 9.414.418 8.869.321 8.39.236 7.838.389 7.485.729c-.332.32-.575.735-.776 1.166-.248-.487-.635-.968-1.093-1.279C5.089.259 4.477.118 3.867.339c-.505.183-.77.465-.897.764-.132.309-.122.663.016 1.029.288.766 1.208 1.621 1.657 1.955Zm1.426.669H3.407A2.499 2.499 0 0 0 .91 7.254v5.665a2.499 2.499 0 0 0 2.497 2.498h5.666a2.499 2.499 0 0 0 2.497-2.498V7.254a2.499 2.499 0 0 0-2.497-2.498H6.764c-.187.174-.389.16-.564.08-.032-.015-.081-.037-.131-.08Zm1.29 5.191-.025-.185c-.063-.45-.149-.853-.268-1.106a.98.98 0 0 0-.35-.419.561.561 0 0 0-.762.123.682.682 0 0 0-.131.33c-.017.132.018.376-.003.498l-.196 1.136c-.202 1.143-.568 2.424-.403 3.593a.522.522 0 1 0 1.033-.146c-.113-.803.067-1.662.24-2.482.035.186.074.357.121.499.08.244.19.427.308.543.037.036.573.353.833-.138.036-.068.195-.433.206-.464.111-.336.202-.679.286-1.025.083 1.067.119 2.138.255 3.202a.522.522 0 0 0 1.035-.132c-.178-1.395-.183-2.799-.35-4.193-.017-.149-.085-1.009-.255-1.355-.146-.296-.377-.408-.58-.416a.505.505 0 0 0-.494.294c-.033.066-.129.398-.137.424-.142.466-.252.943-.363 1.419Zm-3.718-3.07a.708.708 0 0 0-.345-.034c-.304.045-.505.277-.447.517.433 1.79.161 3.621.559 5.405.053.241.345.402.65.359.305-.042.51-.271.456-.512-.36-1.614-.174-3.267-.453-4.892a.475.475 0 0 0 .059-.031c.668-.391 1.905-.543 2.727-.591.309-.018.542-.23.519-.474-.023-.243-.293-.427-.602-.409-.93.055-2.28.253-3.123.662Zm2.38-3.352c0-.234-.026-.472-.072-.697-.093-.46-.453-1.032-.919-1.348-.245-.166-.524-.262-.808-.159-.142.051-.242.1-.287.181-.04.072-.01.154.02.241.066.189.194.383.342.569.322.407.741.769.978.944.231.171.449.349.641.564l.007.008.004-.014c.024-.094.057-.192.094-.289Zm1.393-.62c.325-.127.648-.252.831-.406.155-.132.337-.311.473-.514.096-.141.18-.29.167-.444-.011-.118-.101-.175-.199-.192a.565.565 0 0 0-.477.132c-.386.373-.602.918-.795 1.424Z" fill="#5d3d35"/>
</svg>
