<svg viewBox="0 0 147 105" xmlns="http://www.w3.org/2000/svg" xml:space="preserve" style="fill-rule:evenodd;clip-rule:evenodd;stroke-linejoin:round;stroke-miterlimit:2">
    <path style="fill:none" d="M0 0h146.4v104.4H0z"/>
    <path d="M101.736 30.05c.14 14.783.202 56.917-.084 65.865a.25.25 0 0 0 .5.016c.286-8.951.224-51.099.084-65.886a.25.25 0 1 0-.5.005ZM104.355 74.098c.432 2.188.606 18.308.169 21.863a.25.25 0 1 0 .496.062c.441-3.582.261-19.818-.174-22.022a.25.25 0 0 0-.491.097Z" style="fill:#70453b"/>
    <path d="M44.935 81.96c-.942-2.445.114-5.066.927-7.394 1.89-5.411 5.536-10.546 5.866-16.397.223-3.95-1.389-7.359-3.492-10.573-2.07-3.163-4.616-6.136-6.297-9.267-2.214-4.124-2.339-8.892-1.625-13.416.214-1.35.456-3.127.991-4.696.346-1.016.813-1.945 1.485-2.599a.25.25 0 0 0 .005-.354.25.25 0 0 0-.354-.004c-.724.705-1.237 1.701-1.61 2.796-.544 1.597-.793 3.405-1.01 4.779-.732 4.631-.589 9.509 1.678 13.731 1.687 3.142 4.241 6.128 6.318 9.304 2.045 3.124 3.629 6.432 3.412 10.271-.328 5.805-3.964 10.892-5.839 16.26-.851 2.434-1.907 5.182-.922 7.739a.25.25 0 0 0 .467-.18Z" style="fill:#8c633f"/>
    <path d="M38.732 96.284c-1.786-8.209-3.742-23.813-5.545-32.016-.726-3.302-2.083-9.542-1.782-9.479.319.068.805 1.185.957 1.465.842 1.559 1.455 3.246 2.076 4.901 2.447 6.528 4.166 10.121 5.986 16.857.636 2.352 1.125 4.736 1.579 7.128.153.808.304 1.616.442 2.427.07.406.58 8.575.691 8.178.461-1.657-.343-10.783-.34-12.49.007-3.413-.151-12.319.293-13.624.041-.121.953 3.917 1.149 5.074.583 3.431.914 5.424 1.316 8.882.11.944.218 1.888.335 2.831.056.445.483 8.946.66 8.533.652-1.521.103-10.919.272-12.554.418-4.035.602-8.126 1.275-12.129.087-.512 1.139-5.305 1.476-5.471.038-.018.131.392.16 1.883.023 1.236-.018 2.469-.046 3.704-.08 3.545.212 7.165.789 10.658.195 1.184 1.68 14.123 1.686 14.099.983-3.59-.318-17.245-.108-20.994.075-1.34.161-2.68.314-4.014.046-.396.118-2.08.234-1.879.918 1.585.697 4.515.935 6.29.544 4.04 1.344 17.65 2.313 21.609l-17.117.131Z" style="fill:#bb9370"/>
    <path d="M101.221 28.156c.648-1.495 1.928-2.382 2.857-1.979.928.402 1.156 1.943.508 3.438 1.619-.186 3.027.479 3.143 1.484.116 1.006-1.105 1.973-2.724 2.16.971 1.309 1.099 2.861.286 3.464-.813.603-2.261.03-3.232-1.279-.648 1.495-1.928 2.382-2.857 1.979-.928-.402-1.156-1.943-.508-3.438-1.619.186-3.027-.479-3.143-1.484-.116-1.006 1.105-1.973 2.724-2.16-.971-1.309-1.099-2.861-.286-3.464.813-.603 2.261-.03 3.232 1.279Z" style="fill:#e9d0bc"/>
    <path d="M102.822 29.197c.216-.495.34-1.024.552-1.517a.25.25 0 0 0-.13-.329.251.251 0 0 0-.329.131c-.212.492-.336 1.02-.551 1.514a.25.25 0 1 0 .458.201ZM98.637 28.281c.299.443.622.889.953 1.309a.25.25 0 1 0 .392-.31c-.324-.41-.639-.847-.931-1.279a.25.25 0 0 0-.414.28ZM104.709 31.666a13.8 13.8 0 0 1 1.403-.196.25.25 0 0 0-.046-.498c-.498.046-.961.108-1.452.203a.25.25 0 0 0 .095.491ZM103.187 34.449c.223.393.463.81.742 1.167a.25.25 0 0 0 .395-.307c-.265-.339-.491-.734-.702-1.106a.25.25 0 0 0-.435.246ZM99.672 36.271c.19-.565.517-1.061.775-1.593a.25.25 0 1 0-.449-.219c-.268.551-.604 1.068-.8 1.653a.25.25 0 0 0 .474.159ZM96.947 32.544a4.811 4.811 0 0 1 1.527-.125.25.25 0 0 0 .043-.498 5.321 5.321 0 0 0-1.692.138.25.25 0 1 0 .122.485Z" style="fill:#b9a493"/>
    <circle cx="101.495" cy="31.996" r="2.245" style="fill:#c26a55"/>
    <circle cx="102.495" cy="31.683" r=".6" style="fill:#e9d0bc"/>
    <circle cx="102.735" cy="32.883" r=".36" style="fill:#e9d0bc"/>
    <circle cx="101.775" cy="30.723" r=".36" style="fill:#e9d0bc"/>
    <circle cx="100.095" cy="32.643" r=".36" style="fill:#e9d0bc"/>
    <circle cx="100.815" cy="31.443" r=".6" style="fill:#e9d0bc"/>
    <circle cx="101.295" cy="33.123" r=".6" style="fill:#e9d0bc"/>
    <path d="M41.401 18.522a.09.09 0 0 1-.028-.008c-.713-.296-1.474-1.467-1.429-2.218.003-.035 1.053.361 1.081.335.027-.027-.768-.816-.752-.842.11-.174.896-1.429.921-1.433.025-.005.74.468.768.453.031-.017-.249-1.082-.155-1.168.491-.449 1.859-.972 1.903-.942.038.025.562 1.725.539 1.752-.119.139-.636.729-.621.761.016.033.763-.195.96-.201a.092.092 0 0 1 .066.026c.017.016.051 1.271.056 1.523a.093.093 0 0 1-.06.087c-.18.068-1.126.455-1.123.496.003.041 1.003.273 1.142.301a.075.075 0 0 1 .041.026c.011.197-.924 1.369-1.475 1.368l-1.834-.316ZM39.494 22.935l-.01.027c-.329.698-1.535 1.402-2.283 1.321-.036-.004.41-1.034.385-1.063-.025-.029-.851.727-.876.71-.169-.118-1.385-.963-1.388-.988-.004-.025.503-.717.489-.745-.016-.032-1.093.197-1.174.099-.425-.512-.882-1.903-.85-1.946.027-.036 1.75-.479 1.776-.454.133.125.697.67.731.655.033-.014-.159-.77-.155-.967 0-.025.01-.048.028-.065.018-.017 1.273.009 1.524.017a.09.09 0 0 1 .084.063c.06.183.402 1.147.442 1.146.041-.002.321-.989.356-1.127a.064.064 0 0 1 .027-.039c.197-.002 1.324.988 1.297 1.538l-.403 1.818Z" style="fill:#8c633f"/>
    <path d="M38.863 22.553c.509.313.86.801 1.052 1.365a.25.25 0 0 0 .474-.161c-.23-.675-.655-1.256-1.264-1.63a.25.25 0 0 0-.262.426ZM40.093 28.905c.645-.954 1.879-1.928 3.008-2.274a.25.25 0 0 0-.147-.478c-1.228.376-2.573 1.434-3.275 2.472a.249.249 0 0 0 .067.347.249.249 0 0 0 .347-.067ZM37.637 31.431c.676-.094 1.36-.029 1.809.537a.25.25 0 1 0 .392-.31c-.566-.714-1.417-.84-2.27-.722a.25.25 0 0 0 .069.495ZM41.646 34.405c-.462.625-1.003 1.267-.978 2.098a.25.25 0 0 0 .5-.015c-.021-.715.483-1.248.88-1.786a.25.25 0 0 0-.402-.297ZM39.629 39.346c1.067-.266 1.819-.255 2.649.531a.25.25 0 1 0 .344-.362c-.977-.927-1.857-.968-3.114-.654a.25.25 0 0 0 .121.485ZM45.593 42.551c-.381.61-.499 1.349-.228 2.028a.25.25 0 1 0 .464-.185c-.211-.529-.109-1.103.188-1.579a.25.25 0 0 0-.424-.264ZM45.394 76.15c.525-1.337 2.157-2.536 3.575-2.73a.25.25 0 1 0-.068-.496c-1.577.216-3.388 1.556-3.972 3.044a.25.25 0 1 0 .465.182ZM46.629 66.349c1.017.774.931 2.013.614 3.11a.25.25 0 1 0 .48.139c.374-1.291.406-2.736-.791-3.646a.25.25 0 0 0-.303.397Z" style="fill:#8c633f"/>
    <path d="M38.529 32.005a.122.122 0 0 1 .001.033c-.09.862-1.091 2.064-1.9 2.262-.038.009.052-1.249.016-1.27-.037-.021-.623 1.092-.655 1.083-.219-.06-1.792-.493-1.805-.518-.013-.025.264-.948.238-.973-.027-.028-1.066.622-1.186.55-.629-.381-1.611-1.677-1.593-1.735.015-.048 1.65-1.169 1.685-1.153.184.082.97.443 1 .416.03-.028-.446-.755-.513-.964a.101.101 0 0 1 .006-.08c.012-.024 1.329-.472 1.594-.56a.101.101 0 0 1 .111.035c.128.171.834 1.06.876 1.043.042-.016-.025-1.167-.039-1.325a.087.087 0 0 1 .014-.052c.206-.076 1.739.542 1.91 1.134l.24 2.074ZM40.774 39.587a.09.09 0 0 1 .006.032c.059.865-.721 2.221-1.484 2.554-.036.016-.163-1.239-.202-1.254-.04-.015-.427 1.182-.46 1.179-.226-.022-1.85-.179-1.867-.201-.017-.023.098-.98.068-1-.032-.023-.944.796-1.075.745-.685-.268-1.874-1.377-1.866-1.437.006-.05 1.426-1.434 1.463-1.425.195.05 1.032.271 1.056.239.025-.032-.568-.667-.67-.862a.104.104 0 0 1-.008-.079c.008-.026 1.229-.693 1.475-.825a.098.098 0 0 1 .115.016c.156.146 1.004.902 1.042.878.039-.024-.224-1.146-.265-1.3a.081.081 0 0 1 .005-.053c.189-.11 1.806.237 2.076.791l.591 2.002ZM45.029 42.832c-.008-.007-.016-.014-.023-.023-.541-.677-.673-2.236-.235-2.944.02-.034.839.925.88.915.041-.011-.323-1.215-.294-1.231.198-.111 1.622-.908 1.649-.899.027.009.478.861.514.861.039 0 .322-1.192.458-1.225.715-.171 2.325.063 2.353.117.023.045-.354 1.991-.391 2.005-.188.07-1.002.365-1.004.405-.001.041.847.225 1.043.326a.106.106 0 0 1 .051.061c.009.026-.615 1.27-.741 1.518a.1.1 0 0 1-.104.053c-.212-.031-1.339-.169-1.357-.127-.018.041.838.813.959.916a.08.08 0 0 1 .026.047c-.092.198-1.618.835-2.156.533l-1.628-1.308ZM52.008 60.265a.134.134 0 0 1-.012-.03c-.231-.836.261-2.32.942-2.8.032-.022.407 1.182.449 1.188.042.007.181-1.244.214-1.247.226-.024 1.849-.196 1.87-.177.021.018.1.979.133.993.036.016.766-.969.904-.946.724.125 2.112.973 2.117 1.033.003.051-1.109 1.692-1.148 1.69-.201-.009-1.065-.059-1.083-.022-.017.036.691.539.83.71a.104.104 0 0 1 .024.076c-.003.027-1.065.925-1.28 1.103a.098.098 0 0 1-.116.008c-.182-.112-1.164-.682-1.197-.651-.033.031.45 1.077.521 1.22.008.017.01.036.006.053-.164.147-1.817.131-2.193-.358l-.981-1.843ZM47.374 66.359a.114.114 0 0 1-.007.032c-.29.817-1.544 1.752-2.377 1.754-.039 0 .344-1.201.313-1.231-.031-.029-.861.916-.89.9-.199-.11-1.627-.899-1.634-.926-.007-.028.479-.86.46-.891-.02-.033-1.183.356-1.282.257-.523-.517-1.174-2.007-1.143-2.059.026-.044 1.878-.751 1.909-.727.159.123.839.658.874.639.036-.02-.256-.838-.273-1.058a.11.11 0 0 1 .024-.076c.018-.021 1.404-.148 1.681-.171a.098.098 0 0 1 .1.06c.085.196.563 1.226.608 1.22.045-.007.248-1.141.272-1.298a.08.08 0 0 1 .026-.047c.217-.027 1.563.934 1.591 1.55l-.252 2.072ZM47.414 72.73a.116.116 0 0 1-.008-.032c-.107-.86.596-2.257 1.339-2.632.035-.018.232 1.228.272 1.24.041.012.36-1.204.393-1.203.227.009 1.858.075 1.876.097.018.021-.043.983-.013 1.002.034.021.899-.848 1.032-.804.699.228 1.948 1.27 1.944 1.33-.004.05-1.343 1.512-1.382 1.504-.197-.038-1.045-.213-1.067-.179-.023.034.604.634.718.823a.109.109 0 0 1 .012.079c-.007.026-1.189.76-1.426.905a.1.1 0 0 1-.117-.008c-.163-.138-1.052-.845-1.089-.819-.038.026.288 1.131.337 1.283a.075.075 0 0 1-.002.053c-.182.121-1.816-.135-2.117-.673l-.702-1.966ZM40.793 34.625a.127.127 0 0 1-.021-.025c-.473-.726-.455-2.29.048-2.953.024-.032.747 1.002.789.995.042-.007-.205-1.24-.175-1.253.208-.092 1.702-.748 1.728-.737.026.011.393.903.428.906.04.004.436-1.156.574-1.175.729-.102 2.308.285 2.331.341.019.047-.543 1.949-.581 1.959-.194.052-1.032.267-1.038.307-.006.04.821.305 1.006.425a.1.1 0 0 1 .045.065c.006.027-.733 1.205-.883 1.44a.101.101 0 0 1-.109.043c-.207-.052-1.316-.297-1.338-.257-.022.04.756.89.866 1.004a.079.079 0 0 1 .022.049c-.111.189-1.691.676-2.197.324l-1.495-1.458ZM41.556 26.445a.137.137 0 0 1-.019-.023c-.422-.645-.394-2.042.067-2.637.021-.028.667.89.705.884.038-.006-.176-1.106-.149-1.118.189-.083 1.545-.678 1.568-.668.024.01.348.804.381.807.035.003.402-1.035.528-1.053.659-.095 2.084.241 2.104.291.016.042-.507 1.743-.541 1.752-.176.048-.935.245-.941.281-.005.036.741.267.907.373.02.013.035.034.04.058.005.024-.673 1.08-.81 1.291a.093.093 0 0 1-.098.039c-.188-.045-1.188-.257-1.208-.222-.02.036.676.79.775.892a.068.068 0 0 1 .019.043c-.102.169-1.534.614-1.989.302l-1.339-1.292ZM89.496 33.829H61.112v34.197c0 .219.177.396.396.396H89.1a.396.396 0 0 0 .396-.396V33.829Z" style="fill:#8c633f"/>
    <clipPath id="a">
        <path d="M89.496 33.829H61.112v34.197c0 .219.177.396.396.396H89.1a.396.396 0 0 0 .396-.396V33.829Z"/>
    </clipPath>
    <g clip-path="url(#a)">
        <path style="fill:#3b2621;fill-opacity:.15" d="M59.76 34.8h30.72v2.64H59.76z"/>
    </g>
    <path style="fill:#70453b" d="M72.96 65.52h2.4V96h-2.4z"/>
    <clipPath id="b">
        <path d="M72.96 65.52h2.4V96h-2.4z"/>
    </clipPath>
    <g clip-path="url(#b)">
        <path style="fill:#3b2621;fill-opacity:.15" d="M70.8 66.48h6.24v3.36H70.8z"/>
    </g>
    <path d="M41.304 64.462c-.568 1.066-.282 2.401.646 3.157.983.8 2.605.956 3.337-.246a3.7 3.7 0 0 0 .479-1.281l-4.462-1.63Z" style="fill:#70453b"/>
    <path d="M42.118 67.298c-2.33 10.015.754 19.108.525 28.904a.25.25 0 1 0 .5.011c.228-9.761-2.86-18.822-.538-28.802a.25.25 0 1 0-.487-.113Z" style="fill:#70453b"/>
    <path d="M42.776 88.157c.566-1.964 2.489-2.415 3.569-3.978.275-.399.511-.827.674-1.284.022-.06.114-.531.159-.547.121-.044.394.811.415.892.246.954.25 2.076-.093 3.008-.536 1.46-1.778 1.968-3.092 2.534-.744.32-1.544.51-1.958 1.27l.326-1.895ZM41.635 80.922c-1.115-1.451-3.564-1.963-3.546-4.148.004-.528.153-1.045.285-1.552.237-.917.406-1.865.453-2.811.016-.32-.083-1.556-.063-1.407.247 1.806 1.662 3.203 2.139 4.944.388 1.411-.11 3.049.788 4.297l-.056.677Z" style="fill:#70453b"/>
    <path d="M47.493 51.071c-.09-1.396.014-2.834.298-4.203.337-1.623.965-3.752 2.211-4.937 1.036-.985 2.693-.671 3.382.582.494.9.488 1.988.343 2.977-.317 2.171-1.448 4.816-2.991 6.427l-3.243-.846Z" style="fill:#e9d0bc"/>
    <clipPath id="c">
        <path d="M47.493 51.071c-.09-1.396.014-2.834.298-4.203.337-1.623.965-3.752 2.211-4.937 1.036-.985 2.693-.671 3.382.582.494.9.488 1.988.343 2.977-.317 2.171-1.448 4.816-2.991 6.427l-3.243-.846Z"/>
    </clipPath>
    <g clip-path="url(#c)">
        <path d="M48.311 52.067a34.06 34.06 0 0 1-.095.149.25.25 0 0 0 .421.269l.095-.148a.25.25 0 1 0-.421-.27Zm.819-1.259-.273.418a.25.25 0 1 0 .419.273l.273-.418a.25.25 0 1 0-.419-.273Zm.806-1.259c-.087.141-.176.281-.265.421a.25.25 0 0 0 .422.268l.268-.425a.251.251 0 0 0-.081-.345.25.25 0 0 0-.344.081Zm.753-1.282c-.079.145-.16.289-.243.431a.25.25 0 0 0 .433.25c.085-.146.167-.292.248-.44a.249.249 0 0 0-.098-.339.25.25 0 0 0-.34.098Zm.661-1.323c-.067.151-.136.299-.208.447a.25.25 0 1 0 .451.217c.073-.152.144-.305.213-.46a.25.25 0 0 0-.456-.204Zm.524-1.371a9.155 9.155 0 0 1-.113.343l-.042.118a.248.248 0 0 0 .149.32.248.248 0 0 0 .32-.149l.045-.123a9.61 9.61 0 0 0 .119-.363.25.25 0 0 0-.478-.146Zm.336-1.432c-.03.161-.061.323-.096.484a.25.25 0 0 0 .49.104c.035-.166.067-.331.098-.497a.251.251 0 0 0-.2-.292.25.25 0 0 0-.292.201Zm.257-1.477c-.03.165-.058.33-.086.495a.25.25 0 0 0 .493.084c.027-.163.056-.327.085-.49a.25.25 0 1 0-.492-.089Zm.34-1.488c-.049.164-.092.329-.133.494-.032.135.05.27.184.303a.251.251 0 0 0 .302-.184c.038-.158.08-.315.126-.472a.25.25 0 0 0-.479-.141Z" style="fill:#bb9370"/>
    </g>
    <path d="M43.689 49.48c-.201-1.961 1.063-4.324 2.581-5.534.451-.359 1.898-1.319 2.357-.56.487.806.025 2.099-.196 2.924-.437 1.639-.897 3.445-.775 5.154l-3.967-1.984Z" style="fill:#e9d0bc"/>
    <clipPath id="d">
        <path d="M43.689 49.48c-.201-1.961 1.063-4.324 2.581-5.534.451-.359 1.898-1.319 2.357-.56.487.806.025 2.099-.196 2.924-.437 1.639-.897 3.445-.775 5.154l-3.967-1.984Z"/>
    </clipPath>
    <g clip-path="url(#d)">
        <path d="M45.658 49.807c-.018.17-.033.339-.045.507a.25.25 0 0 0 .499.036c.012-.163.026-.326.043-.489a.25.25 0 1 0-.497-.054Zm.244-1.506c-.036.165-.069.332-.1.499a.25.25 0 0 0 .493.089c.029-.161.061-.322.096-.481a.25.25 0 0 0-.489-.107Zm.415-1.472c-.056.16-.109.322-.158.485a.25.25 0 1 0 .478.145c.048-.157.098-.312.152-.465a.25.25 0 1 0-.472-.165Zm.581-1.408c-.07.153-.139.307-.206.461a.25.25 0 1 0 .459.199c.065-.151.133-.302.202-.452a.25.25 0 0 0-.455-.208Zm.627-1.36c-.067.151-.136.302-.206.452a.25.25 0 0 0 .454.21l.209-.458a.25.25 0 0 0-.457-.204Zm.542-1.37a10.97 10.97 0 0 1-.163.461.25.25 0 1 0 .468.177c.06-.16.117-.321.17-.483a.25.25 0 0 0-.475-.155Z" style="fill:#bb9370"/>
    </g>
    <path d="M50.084 52.124c1.296-1.525 1.676-3.35 2.482-5.125.318-.701.733-1.765 1.457-2.147 1.172-.618 1.986 1.472 2.181 2.238.654 2.573-.232 4.759-1.497 6.95l-4.623-1.916Z" style="fill:#e9d0bc"/>
    <clipPath id="e">
        <path d="M50.084 52.124c1.296-1.525 1.676-3.35 2.482-5.125.318-.701.733-1.765 1.457-2.147 1.172-.618 1.986 1.472 2.181 2.238.654 2.573-.232 4.759-1.497 6.95l-4.623-1.916Z"/>
    </clipPath>
    <g clip-path="url(#e)">
        <path d="M53.993 52.672c-.074.146-.15.291-.228.434a.25.25 0 0 0 .438.241c.082-.149.161-.3.237-.451a.25.25 0 1 0-.447-.224Zm.58-1.351c-.055.154-.114.306-.175.458a.25.25 0 1 0 .463.188c.064-.157.125-.316.183-.476a.25.25 0 0 0-.471-.17Zm.414-1.408c-.036.159-.076.317-.118.475a.248.248 0 0 0 .175.306.249.249 0 0 0 .307-.175c.045-.165.086-.33.123-.496a.25.25 0 1 0-.487-.11Zm.227-1.448c-.015.163-.032.324-.054.486a.25.25 0 1 0 .495.066c.023-.169.042-.338.057-.508a.25.25 0 0 0-.498-.044Zm.021-1.461c.009.162.015.324.017.487a.25.25 0 0 0 .5-.005 10.897 10.897 0 0 0-.018-.512.251.251 0 0 0-.265-.235.25.25 0 0 0-.234.265Zm-.202-1.445c.036.158.066.318.093.477a.25.25 0 1 0 .493-.082 9.937 9.937 0 0 0-.097-.504.25.25 0 0 0-.489.109Zm-.43-1.393c.061.152.117.304.169.456a.25.25 0 1 0 .473-.16 9.635 9.635 0 0 0-.178-.482.25.25 0 1 0-.464.186Z" style="fill:#bb9370"/>
    </g>
    <path d="M43.497 48.846c-3.842 3.419-5.461 9.01-3.824 13.521.293.809.693 1.778 1.294 2.414 3.18 3.362 8.333 1.612 10.864-1.391 1.205-1.43 4.03-8.768 4.011-11.11l-12.345-3.434Z" style="fill:#c26a55"/>
    <clipPath id="f">
        <path d="M43.497 48.846c-3.842 3.419-5.461 9.01-3.824 13.521.293.809.693 1.778 1.294 2.414 3.18 3.362 8.333 1.612 10.864-1.391 1.205-1.43 4.03-8.768 4.011-11.11l-12.345-3.434Z"/>
    </clipPath>
    <g clip-path="url(#f)">
        <path d="M51.633 64.513c-.873-.697-3.061-1.781-4.016-2.373-2.763-1.714-7.335-3.946-9.528-1.066 0 0-.24-1.44-.32-5.962 2.692-1.811 5.436-1.271 7.087-.147 6.01 4.09 9.271 4.183 10.519 2.27-.688 4.315-.944 3.775-3.742 7.278Z" style="fill:none"/>
        <clipPath id="g">
            <path d="M51.633 64.513c-.873-.697-3.061-1.781-4.016-2.373-2.763-1.714-7.335-3.946-9.528-1.066 0 0-.24-1.44-.32-5.962 2.692-1.811 5.436-1.271 7.087-.147 6.01 4.09 9.271 4.183 10.519 2.27-.688 4.315-.944 3.775-3.742 7.278Z"/>
        </clipPath>
        <g clip-path="url(#g)">
            <path d="m32.884 68.314 24.657-.361a.25.25 0 1 0-.007-.5l-24.658.361a.25.25 0 0 0 .008.5ZM32.933 66.684l24.658-.361a.25.25 0 0 0 .246-.253.251.251 0 0 0-.254-.247l-24.657.361a.25.25 0 1 0 .007.5ZM32.982 65.054l24.658-.36a.25.25 0 0 0-.007-.5l-24.658.361a.25.25 0 1 0 .007.499ZM33.032 63.425l24.657-.361a.25.25 0 1 0-.007-.5l-24.658.361a.25.25 0 0 0-.246.253.251.251 0 0 0 .254.247ZM33.081 61.795l24.658-.361a.25.25 0 0 0-.008-.5l-24.657.361a.25.25 0 1 0 .007.5ZM33.13 60.165l24.658-.361a.25.25 0 0 0-.007-.5l-24.658.361a.25.25 0 1 0 .007.5ZM33.179 58.536l24.658-.361a.25.25 0 1 0-.007-.5l-24.658.361a.25.25 0 0 0 .007.5ZM33.229 56.906l24.657-.361a.25.25 0 1 0-.007-.5l-24.658.361a.25.25 0 0 0 .008.5ZM33.278 55.276l24.658-.361a.25.25 0 0 0 .246-.253.251.251 0 0 0-.254-.247l-24.657.361a.25.25 0 1 0 .007.5ZM33.327 53.646l24.658-.361a.25.25 0 1 0-.007-.499l-24.658.36a.25.25 0 0 0 .007.5ZM33.377 52.017l24.657-.361a.25.25 0 1 0-.007-.5l-24.658.361a.25.25 0 0 0-.246.253.251.251 0 0 0 .254.247ZM33.426 50.387l24.658-.361a.25.25 0 0 0-.008-.5l-24.657.361a.25.25 0 1 0 .007.5Z" style="fill:#e9d0bc"/>
        </g>
        <path d="M45.736 66.146c.175-.027.343-.058.505-.093a.25.25 0 0 0-.104-.489 8.733 8.733 0 0 1-.479.088.25.25 0 0 0 .078.494Zm1.498-.366c.166-.057.327-.118.482-.183a.25.25 0 1 0-.193-.461c-.145.06-.296.118-.452.171a.25.25 0 1 0 .163.473Zm1.405-.638c.149-.084.295-.172.439-.263a.25.25 0 0 0 .079-.345.25.25 0 0 0-.345-.078c-.138.086-.277.17-.419.251a.25.25 0 0 0 .246.435Zm1.284-.833c.138-.102.273-.21.404-.322a.25.25 0 1 0-.324-.38 7.203 7.203 0 0 1-.378.3.25.25 0 0 0 .298.402Zm1.144-1.039c.115-.126.227-.255.336-.388a.25.25 0 0 0-.034-.352.25.25 0 0 0-.352.035c-.104.126-.21.248-.319.367a.25.25 0 1 0 .369.338Zm.947-1.208c.095-.14.188-.282.278-.428a.25.25 0 0 0-.081-.344.25.25 0 0 0-.344.081c-.086.139-.175.276-.267.411a.25.25 0 0 0 .414.28Zm.784-1.31c.079-.149.156-.299.231-.452a.25.25 0 0 0-.449-.221c-.073.148-.147.294-.224.439a.25.25 0 1 0 .442.234Zm.654-1.372c.066-.154.131-.31.194-.466a.25.25 0 0 0-.463-.188c-.062.153-.125.305-.19.457a.25.25 0 1 0 .459.197Zm.554-1.41c.057-.158.113-.317.167-.475a.25.25 0 0 0-.473-.162c-.054.156-.108.312-.164.468a.25.25 0 1 0 .47.169Zm.478-1.433.146-.482a.25.25 0 0 0-.48-.142 25.37 25.37 0 0 1-.144.476.25.25 0 1 0 .478.148Zm.422-1.448.119-.437a.25.25 0 0 0-.483-.13l-.118.434a.25.25 0 1 0 .482.133Z" style="fill:#70453b"/>
    </g>
    <path d="M101.918 72.954c.307.697.948 1.273 1.712 1.411 1.282.231 2.155-.851 1.933-2.062a3.075 3.075 0 0 0-.521-1.231l-3.124 1.882Z" style="fill:#70453b"/>
    <path d="M96.755 63.486c-.706-.959-1.438-1.916-2.041-2.943-.199-.339-.402-.679-.589-1.026-.636-1.176-2.123-5.465.823-4.471.32.108.618.272.892.47 1.845 1.338 2.557 3.66 3.759 5.502l-2.844 2.468Z" style="fill:#e9d0bc"/>
    <clipPath id="h">
        <path d="M96.755 63.486c-.706-.959-1.438-1.916-2.041-2.943-.199-.339-.402-.679-.589-1.026-.636-1.176-2.123-5.465.823-4.471.32.108.618.272.892.47 1.845 1.338 2.557 3.66 3.759 5.502l-2.844 2.468Z"/>
    </clipPath>
    <g clip-path="url(#h)">
        <path d="m97.83 61.319.192.458a.25.25 0 0 0 .462-.19 32.374 32.374 0 0 0-.195-.465.249.249 0 0 0-.328-.131.249.249 0 0 0-.131.328Zm-.618-1.353c.072.148.143.297.213.447a.25.25 0 1 0 .453-.211 26.991 26.991 0 0 0-.217-.455.25.25 0 1 0-.449.219Zm-.687-1.319c.081.145.16.29.237.436a.25.25 0 0 0 .441-.235 21.24 21.24 0 0 0-.241-.443.25.25 0 0 0-.437.242Zm-.756-1.281.217.353.043.071a.25.25 0 1 0 .428-.259l-.044-.072a34.298 34.298 0 0 0-.219-.357.25.25 0 0 0-.425.264Zm-.832-1.213c.101.127.198.257.292.39a.25.25 0 1 0 .408-.289 9.538 9.538 0 0 0-.307-.411.25.25 0 0 0-.393.31Zm-1.006-1.028c.125.1.245.205.36.314a.25.25 0 1 0 .344-.363 5.66 5.66 0 0 0-.394-.343.25.25 0 0 0-.351.041.249.249 0 0 0 .041.351Z" style="fill:#bb9370"/>
    </g>
    <path d="M99.081 60.929c-.602-.9-1.188-1.813-1.765-2.729a38.841 38.841 0 0 1-.899-1.493c-.499-.878-1.397-2.495.408-2.408.229.011.454.06.672.13.346.113.676.278.988.462 1.909 1.127 3.612 2.929 4.637 4.9l-4.041 1.138Z" style="fill:#e9d0bc"/>
    <clipPath id="i">
        <path d="M99.081 60.929c-.602-.9-1.188-1.813-1.765-2.729a38.841 38.841 0 0 1-.899-1.493c-.499-.878-1.397-2.495.408-2.408.229.011.454.06.672.13.346.113.676.278.988.462 1.909 1.127 3.612 2.929 4.637 4.9l-4.041 1.138Z"/>
    </clipPath>
    <g clip-path="url(#i)">
        <path d="M100.853 59.647c.091.139.18.278.269.418a.25.25 0 0 0 .422-.268c-.09-.141-.18-.283-.272-.423a.25.25 0 0 0-.419.273Zm-.844-1.223c.098.133.194.267.289.402a.25.25 0 0 0 .409-.287 30.506 30.506 0 0 0-.294-.411.252.252 0 0 0-.35-.054.252.252 0 0 0-.054.35Zm-.915-1.166c.106.126.211.252.314.381a.25.25 0 0 0 .39-.313 20.3 20.3 0 0 0-.323-.391.25.25 0 1 0-.381.323Zm-1.002-1.085c.116.115.231.232.344.351a.25.25 0 1 0 .363-.344 17.435 17.435 0 0 0-.356-.363.25.25 0 1 0-.351.356Zm-1.101-.977c.128.101.254.205.378.312a.25.25 0 0 0 .325-.38c-.129-.111-.26-.219-.393-.324a.25.25 0 1 0-.31.392Zm-1.205-.838c.14.084.277.172.413.262a.25.25 0 0 0 .277-.416 12.102 12.102 0 0 0-.432-.274.25.25 0 0 0-.258.428Z" style="fill:#bb9370"/>
    </g>
    <path d="M93.797 64.319a11.596 11.596 0 0 1-.808-2.248 9.88 9.88 0 0 1-.228-1.42c-.143-1.633.492-2.84 2.203-1.423 1.208 1.002 2.137 2.645 2.792 4.064l-3.959 1.027Z" style="fill:#e9d0bc"/>
    <clipPath id="j">
        <path d="M93.797 64.319a11.596 11.596 0 0 1-.808-2.248 9.88 9.88 0 0 1-.228-1.42c-.143-1.633.492-2.84 2.203-1.423 1.208 1.002 2.137 2.645 2.792 4.064l-3.959 1.027Z"/>
    </clipPath>
    <g clip-path="url(#j)">
        <path d="m95.897 63.849.208.455a.25.25 0 1 0 .455-.207l-.207-.455a.25.25 0 0 0-.456.207Zm-.626-1.358c.071.15.142.3.211.45a.25.25 0 0 0 .454-.21 37.7 37.7 0 0 0-.214-.455.25.25 0 0 0-.451.215Zm-.671-1.326c.078.145.156.29.231.437a.25.25 0 0 0 .444-.23 19.02 19.02 0 0 0-.237-.446.249.249 0 1 0-.438.239Zm-.763-1.263c.091.135.18.272.267.412a.25.25 0 0 0 .424-.265c-.09-.144-.182-.287-.277-.427a.25.25 0 1 0-.414.28Zm-.897-1.158c.108.121.214.245.316.371a.25.25 0 0 0 .389-.315 10.365 10.365 0 0 0-.333-.39.25.25 0 1 0-.372.334Z" style="fill:#bb9370"/>
    </g>
    <path d="M93.504 64.08c2.479-1.418 8.846-5.462 8.914-5.388.88.95 2.965 3.46 3.814 6.166.725 2.311 1.114 6.272-2.674 8.12-2.694 1.314-6.228-.325-7.786-3.187-1.001-1.839-2.268-5.711-2.268-5.711Z" style="fill:#c26a55"/>
    <clipPath id="k">
        <path d="M93.504 64.08c2.479-1.418 8.846-5.462 8.914-5.388.88.95 2.965 3.46 3.814 6.166.725 2.311 1.114 6.272-2.674 8.12-2.694 1.314-6.228-.325-7.786-3.187-1.001-1.839-2.268-5.711-2.268-5.711Z"/>
    </clipPath>
    <g clip-path="url(#k)">
        <path d="M94.212 70.236s3.467-1.31 4.469-2.674c.997-1.357-.114-2.995.527-4.435.316-.712 2.895-1.816 3.487-2.148.854-.48 1.008-1.667 1.016-1.669.053-.013 3.882 4.359 3.679 4.814-.202.45-2.259.414-3.438 2.336-.362.589-.441 1.108-.606 1.644-.166.535-.416 1.088-1.12 1.744-.73.681-1.439 1.297-2.265 1.826-.72.461-3.402 2.214-3.553 2.171-.371-.107-1.893-2.688-2.196-3.609Z" style="fill:none"/>
        <clipPath id="l">
            <path d="M94.212 70.236s3.467-1.31 4.469-2.674c.997-1.357-.114-2.995.527-4.435.316-.712 2.895-1.816 3.487-2.148.854-.48 1.008-1.667 1.016-1.669.053-.013 3.882 4.359 3.679 4.814-.202.45-2.259.414-3.438 2.336-.362.589-.441 1.108-.606 1.644-.166.535-.416 1.088-1.12 1.744-.73.681-1.439 1.297-2.265 1.826-.72.461-3.402 2.214-3.553 2.171-.371-.107-1.893-2.688-2.196-3.609Z"/>
        </clipPath>
        <g clip-path="url(#l)">
            <path d="m93.606 77.914 14.795-.361a.25.25 0 0 0-.012-.5l-14.795.361a.25.25 0 0 0 .012.5ZM93.636 76.284l14.794-.361a.25.25 0 1 0-.012-.5l-14.795.361a.25.25 0 0 0 .013.5ZM93.665 74.654l14.795-.361a.25.25 0 0 0-.012-.499l-14.795.361a.25.25 0 0 0 .012.499ZM93.695 73.025l14.794-.361a.25.25 0 0 0-.012-.5l-14.794.361a.25.25 0 1 0 .012.5ZM93.724 71.395l14.795-.361a.25.25 0 0 0-.012-.5l-14.795.361a.25.25 0 0 0 .012.5ZM93.754 69.765l14.795-.361a.25.25 0 0 0-.013-.5l-14.794.361a.25.25 0 1 0 .012.5ZM93.784 68.136l14.794-.361a.25.25 0 1 0-.012-.5l-14.795.361a.25.25 0 0 0 .013.5ZM93.813 66.506l14.795-.361a.25.25 0 0 0-.012-.5l-14.795.361a.25.25 0 0 0 .012.5ZM93.843 64.876l14.794-.361a.25.25 0 1 0-.012-.5l-14.794.361a.25.25 0 0 0 .012.5ZM93.872 63.246l14.795-.361a.25.25 0 0 0-.012-.499l-14.795.361a.25.25 0 0 0 .012.499ZM93.902 61.617l14.795-.361a.25.25 0 0 0-.013-.5l-14.794.361a.25.25 0 1 0 .012.5ZM93.931 59.987l14.795-.361a.25.25 0 0 0-.012-.5l-14.795.361a.25.25 0 0 0 .012.5Z" style="fill:#e9d0bc"/>
        </g>
    </g>
    <path d="M101.305 73.248c.174.018.351.027.528.024a.25.25 0 1 0-.007-.5 4.086 4.086 0 0 1-.47-.021.25.25 0 1 0-.051.497Zm-1.517-.411c.161.071.324.133.489.188a.25.25 0 0 0 .316-.159.25.25 0 0 0-.159-.316 4.91 4.91 0 0 1-.445-.171.25.25 0 0 0-.201.458Zm-1.336-.796c.138.105.279.205.423.298a.25.25 0 1 0 .273-.418 7.574 7.574 0 0 1-.394-.278.25.25 0 0 0-.302.398Zm-1.137-1.043c.116.126.235.249.358.369a.249.249 0 0 0 .353-.004.249.249 0 0 0-.004-.353 9.303 9.303 0 0 1-.338-.35.25.25 0 1 0-.369.338Zm-.944-1.213c.093.141.191.281.293.42a.25.25 0 0 0 .403-.297 8.69 8.69 0 0 1-.279-.399.25.25 0 1 0-.417.276Zm-.745-1.35.047.104c.056.12.115.241.177.361a.25.25 0 1 0 .444-.23 7.645 7.645 0 0 1-.21-.436.25.25 0 0 0-.458.201Zm-.488-1.453c.046.162.092.324.141.484a.25.25 0 1 0 .478-.144 28.415 28.415 0 0 1-.138-.476.25.25 0 0 0-.481.136Zm-.457-1.395c.063.148.119.299.171.451.045.131.187.2.318.156a.25.25 0 0 0 .155-.318 7.074 7.074 0 0 0-.184-.484.25.25 0 1 0-.46.195ZM28.867 49.131c.201 5.121 2.521 17.366 3.82 28.546.861 7.414 1.276 14.357.306 18.415a.25.25 0 1 0 .486.117c.98-4.097.573-11.106-.296-18.589-1.297-11.166-3.616-23.395-3.817-28.508a.25.25 0 1 0-.499.019Z" style="fill:#70453b"/>
    <path d="M28.31 42.987c.572-1.319 1.701-2.101 2.52-1.746s1.02 1.714.448 3.032c1.428-.164 2.67.422 2.772 1.309.102.887-.975 1.74-2.402 1.904.856 1.155.969 2.524.252 3.055-.717.532-1.994.027-2.85-1.128-.572 1.319-1.701 2.101-2.52 1.746s-1.02-1.714-.448-3.032c-1.428.164-2.67-.422-2.772-1.309-.102-.887.975-1.74 2.402-1.904-.856-1.155-.969-2.524-.252-3.055.717-.532 1.994-.027 2.85 1.128Z" style="fill:#e9d0bc"/>
    <path d="M30.073 43.573c.098-.414.346-.741.506-1.125a.25.25 0 0 0-.462-.192c-.17.409-.426.761-.53 1.202a.25.25 0 0 0 .486.115ZM31.606 46.085c.159-.087.338-.114.519-.129.221-.018.446-.017.658-.046a.25.25 0 1 0-.067-.495c-.204.027-.42.026-.632.043-.252.021-.497.067-.718.188a.25.25 0 0 0 .24.439ZM24.635 46.922c.43-.037.863-.001 1.291-.041a.25.25 0 0 0-.046-.498c-.427.04-.859.004-1.288.041a.25.25 0 0 0 .043.498ZM27.084 49.954c.088-.309.214-.589.318-.889a.25.25 0 0 0-.473-.164c-.107.309-.235.598-.326.917a.25.25 0 0 0 .481.136ZM30.066 48.657c.223.261.492.48.71.746a.25.25 0 1 0 .386-.318c-.22-.268-.491-.489-.716-.753a.25.25 0 1 0-.38.325ZM27.137 43.935c-.32-.381-.593-.709-.852-1.135a.25.25 0 0 0-.427.26c.273.449.559.796.896 1.196a.25.25 0 1 0 .383-.321Z" style="fill:#b9a493"/>
    <circle cx="28.874" cy="46.167" r="2.22" style="fill:#c26a55"/>
    <path d="M29.258 44.591a.6.6 0 1 1-1.039.601.6.6 0 0 1 1.039-.601ZM27.892 45.344a.36.36 0 0 1-.624.361.361.361 0 0 1 .624-.361ZM30.242 45.094a.36.36 0 0 1-.131.492.36.36 0 0 1-.361-.624.361.361 0 0 1 .492.132ZM29.421 47.509a.36.36 0 1 1-.622.361.36.36 0 0 1 .622-.361ZM30.307 46.165a.6.6 0 1 1-1.039.601.6.6 0 0 1 1.039-.601ZM28.373 46.591a.602.602 0 0 1-.219.82.6.6 0 1 1 .219-.82Z" style="fill:#e9d0bc"/>
    <path d="M80.254 11.318c.331 4.856 1.24 75.565 1.87 84.308a.25.25 0 0 0 .499-.036c-.63-8.743-1.539-79.45-1.87-84.306a.25.25 0 1 0-.499.034ZM40.081 96.034c-.695-2.901-1.81-8.019-3.911-11.905-1.433-2.649-3.329-4.722-5.834-5.203-1.243-.239-2.712-.071-4.297.293-2.324.534-4.903 1.487-7.382 2.129-4.001 1.038-7.745 1.29-9.601-2.618a.251.251 0 0 0-.334-.119.251.251 0 0 0-.118.333c1.588 3.343 4.449 3.895 7.723 3.405 2.852-.426 6.022-1.65 8.89-2.411 1.866-.495 3.6-.795 5.025-.521 2.368.455 4.134 2.445 5.488 4.95 2.08 3.845 3.177 8.913 3.865 11.783a.25.25 0 1 0 .486-.116Z" style="fill:#8c633f"/>
    <path d="M39.014 92.311a6.165 6.165 0 0 0-1.59-.996 3.95 3.95 0 0 0-.729-.22 2.678 2.678 0 0 0-.504-.067 4.384 4.384 0 0 0-1.253.154 6.485 6.485 0 0 0-1.704.743.485.485 0 1 0 .308.919c.36-.031.691-.004 1.051.012.273.011.528.058.799.083.259.023.511.067.769.088.193.015.384.01.578.018.2.009.392 0 .594.012.427.025.821.025 1.244.119a.485.485 0 1 0 .437-.865ZM38.046 87.48c.187-.418.419-.759.65-1.136.11-.179.229-.339.339-.514.106-.168.223-.326.323-.496.134-.226.246-.459.382-.683.142-.233.257-.467.418-.693.208-.291.394-.571.656-.837a.485.485 0 1 0-.517-.821c-.447.156-.827.35-1.214.587-.269.164-.5.353-.729.563-.245.224-.46.475-.643.752a2.858 2.858 0 0 0-.244.465 4.01 4.01 0 0 0-.246.742 7.158 7.158 0 0 0-.129 1.898.485.485 0 0 0 .954.173ZM34.903 82.603a5.58 5.58 0 0 0-2.066-.413 4.145 4.145 0 0 0-.851.087 3.027 3.027 0 0 0-.551.154 4.217 4.217 0 0 0-.944.516 4.258 4.258 0 0 0-.581.487c-.421.435-.767.885-1.008 1.426a.486.486 0 0 0 .786.569c.406-.373.899-.578 1.424-.791.228-.093.465-.149.7-.232.23-.08.461-.158.69-.239.363-.128.703-.279 1.068-.372.404-.102.766-.217 1.161-.237a.486.486 0 0 0 .172-.955ZM32.49 79.376c.043-.39.177-.743.3-1.152.055-.185.125-.356.182-.545.054-.179.12-.353.165-.536.061-.243.095-.488.15-.731.057-.257.085-.502.154-.749.093-.333.159-.636.302-.93a.485.485 0 0 0-.742-.624 5.447 5.447 0 0 0-1.408 1.598 3.735 3.735 0 0 0-.362.835 2.76 2.76 0 0 0-.092.476 3.86 3.86 0 0 0-.024.728 5.7 5.7 0 0 0 .415 1.772.485.485 0 0 0 .96-.142ZM24.521 79.524c-.53.223-.975.486-1.418.847a3.35 3.35 0 0 0-.463.482 2.135 2.135 0 0 0-.251.368 3.706 3.706 0 0 0-.361 1.049 5.723 5.723 0 0 0-.064 1.638.486.486 0 0 0 .402.556.486.486 0 0 0 .556-.402c.161-.359.37-.645.584-.972.081-.124.17-.229.251-.353.115-.175.249-.333.359-.512.09-.148.159-.305.239-.458.085-.16.146-.321.229-.482.18-.351.309-.678.539-1.001a.485.485 0 0 0-.602-.76ZM20.214 80.481c-.274-.167-.399-.412-.59-.651-.07-.086-.109-.185-.178-.274-.098-.128-.171-.273-.274-.402-.109-.137-.243-.248-.359-.383-.085-.098-.176-.177-.262-.274-.24-.274-.464-.498-.662-.783a.485.485 0 0 0-.923.297c.012.488.058.943.193 1.438.091.333.235.641.429.922.08.116.179.22.285.312.168.147.334.282.53.382.154.078.29.158.456.205.382.106.716.193 1.13.155a.485.485 0 0 0 .225-.944ZM14.62 81.986c-.49.028-.878.177-1.325.405a2.168 2.168 0 0 0-.436.319c-.088.076-.172.16-.238.256a2.74 2.74 0 0 0-.369.769 5.932 5.932 0 0 0-.218 1.228.486.486 0 0 0 .885.398c.213-.223.431-.386.676-.61.086-.078.172-.139.256-.222.113-.112.238-.206.34-.328.08-.097.138-.208.206-.311.072-.11.111-.224.18-.333.155-.246.221-.481.426-.68a.485.485 0 1 0-.383-.891ZM11.019 80.85c.12-.244.307-.383.485-.612.061-.078.133-.133.191-.214.078-.11.174-.205.242-.323.069-.119.097-.251.156-.374.065-.137.085-.271.155-.403.104-.198.146-.377.282-.544a.484.484 0 1 0-.484-.84c-.369.06-.652.204-1 .382-.142.073-.251.165-.378.265a2.108 2.108 0 0 0-.439.479c-.065.095-.114.2-.152.309-.059.168-.11.328-.129.504-.015.138-.037.255-.029.392.02.339.032.6.132.905a.486.486 0 0 0 .968.074ZM9.283 78.396c-.107-.479-.299-.871-.586-1.3a2.44 2.44 0 0 0-.387-.42 1.597 1.597 0 0 0-.305-.224 2.512 2.512 0 0 0-.662-.254c-.169-.038-.322-.073-.493-.081-.413-.018-.764-.02-1.15.071a.485.485 0 1 0-.09.965c.277.122.47.309.725.494.092.067.162.145.255.213.129.093.237.208.371.295.109.071.23.119.344.18.124.066.249.101.373.165.283.145.541.214.779.405a.485.485 0 1 0 .826-.509ZM105.914 94.533c1.384-4.161 4.956-8.804 9.076-13.432 6.229-6.996 13.711-13.952 16.913-19.145 3.26-5.288 3.064-12.025-2.994-15.23-4.571-2.418-10.798-3.594-15.96-3.409-2.734.098-5.63.565-8.326.39-2.636-.171-5.079-.961-6.971-3.365a.25.25 0 1 0-.393.309c1.992 2.531 4.557 3.375 7.331 3.555 2.713.176 5.626-.29 8.377-.389 5.08-.182 11.21.972 15.708 3.351 5.775 3.055 5.91 9.486 2.802 14.526-3.191 5.175-10.652 12.102-16.86 19.075-4.171 4.685-7.776 9.393-9.178 13.606a.252.252 0 0 0 .159.317.25.25 0 0 0 .316-.159Z" style="fill:#8c633f"/>
    <path d="M112.998 83.123c.155-.681.305-1.362.346-2.089a4.944 4.944 0 0 0-.036-.886 3.413 3.413 0 0 0-.12-.597 4.14 4.14 0 0 0-.499-1.071 3.756 3.756 0 0 0-.53-.662c-.451-.432-.951-.792-1.622-1.013a.485.485 0 0 0-.475.846c.476.4.706.886.912 1.392.095.234.139.477.209.722.071.249.134.502.202.756.109.413.237.814.333 1.235.105.466.224.894.31 1.344a.485.485 0 0 0 .97.023ZM114.692 81.701c.308.201.52.405.779.606.121.094.216.195.332.283.106.081.197.173.304.246.139.096.289.163.428.261.149.106.31.173.459.299.196.165.391.295.582.515a.486.486 0 0 0 .89-.388 4.412 4.412 0 0 0-.314-1.185c-.072-.183-.17-.33-.273-.488a2.462 2.462 0 0 0-.549-.593 1.756 1.756 0 0 0-.364-.218 2.86 2.86 0 0 0-.584-.203c-.148-.032-.284-.064-.442-.074a6.716 6.716 0 0 0-1.003.001.485.485 0 1 0-.245.938ZM117.698 77.965c.197-.589.351-1.174.41-1.816.025-.261.01-.518-.016-.776a2.674 2.674 0 0 0-.102-.52 3.5 3.5 0 0 0-.435-.925 3.33 3.33 0 0 0-.455-.574c-.402-.386-.824-.709-1.392-.91a.485.485 0 0 0-.52.819c.362.362.508.791.664 1.238.071.2.095.407.15.614.056.208.107.417.165.628.095.343.217.668.3 1.017.093.391.203.739.265 1.121a.485.485 0 0 0 .966.084ZM121.451 74.771c.381.13.686.284 1.034.428.162.067.304.145.462.208.145.059.281.131.425.182.186.066.374.104.556.176.19.074.381.111.568.212.244.133.483.236.719.438a.486.486 0 0 0 .807-.539c-.163-.492-.396-.853-.669-1.216a2.843 2.843 0 0 0-.441-.443 2.837 2.837 0 0 0-.755-.465 2.097 2.097 0 0 0-.442-.129 3.065 3.065 0 0 0-.666-.065c-.525.016-1.006.11-1.561.244a.485.485 0 0 0-.037.969ZM124.606 70.522c.137-.556.23-1.093.231-1.683a3.299 3.299 0 0 0-.089-.708 2.29 2.29 0 0 0-.15-.469 2.984 2.984 0 0 0-.525-.798 2.82 2.82 0 0 0-.509-.461c-.427-.28-.857-.507-1.423-.582a.484.484 0 0 0-.631.268.484.484 0 0 0 .268.631c.37.269.53.625.714.988.082.161.114.334.182.502.069.17.135.342.207.514.121.289.269.553.382.85.129.339.272.629.374.966a.484.484 0 1 0 .969-.018ZM127.109 68.531c.382.126.717.259 1.11.376.235.07.455.143.691.199.164.038.326.076.49.1.162.023.321.022.482.037.503.045.971.034 1.451.264a.485.485 0 0 0 .622-.744c-.415-.578-.912-.957-1.513-1.267a3.083 3.083 0 0 0-.784-.27 2.32 2.32 0 0 0-.425-.043 3.724 3.724 0 0 0-.624.032c-.521.077-.971.22-1.471.346a.485.485 0 0 0-.029.97ZM131.208 62.922c.213-.392.288-.793.343-1.251.023-.188.008-.367-.005-.559a3.19 3.19 0 0 0-.147-.723 2.205 2.205 0 0 0-.189-.448 3.187 3.187 0 0 0-.553-.716 3.327 3.327 0 0 0-.482-.408c-.434-.288-.846-.511-1.316-.625a.485.485 0 0 0-.459.854c.315.288.491.672.709 1.081.09.17.145.35.232.524.082.165.164.329.249.491.135.256.303.474.401.735.111.291.252.533.27.834a.485.485 0 0 0 .947.211ZM133.723 58.695c.478-.227.923-.355 1.383-.55.278-.117.553-.214.819-.342.193-.092.364-.218.557-.316.131-.066.247-.145.383-.21.346-.164.665-.334 1.077-.435a.485.485 0 0 0 .009-.97 5.388 5.388 0 0 0-1.201-.178 4.015 4.015 0 0 0-.831.058 3.447 3.447 0 0 0-.854.248 2.502 2.502 0 0 0-.405.231c-.189.13-.37.266-.534.431-.392.394-.695.81-1.031 1.294a.486.486 0 0 0 .628.739ZM133.076 51.194c-.451-.291-.893-.555-1.426-.77a3.768 3.768 0 0 0-.637-.181 2.382 2.382 0 0 0-.444-.053 3.196 3.196 0 0 0-.852.094c-.689.175-1.283.452-1.813.913a.486.486 0 0 0 .443.864c.366-.081.705-.035 1.08-.011.142.009.274.04.418.053.209.019.412.071.624.082.293.015.582-.005.875-.01.511-.008.962-.075 1.439-.056a.484.484 0 1 0 .293-.925ZM131.173 47.642c.077-.324.242-.543.378-.823.062-.125.145-.225.208-.349.059-.116.132-.222.184-.342.066-.15.097-.308.158-.462.045-.111.067-.221.112-.334.122-.308.206-.588.375-.884a.484.484 0 1 0-.655-.715 5.447 5.447 0 0 0-.853.494 3.268 3.268 0 0 0-.511.449c-.176.182-.32.384-.435.607-.063.12-.108.249-.14.381a2.65 2.65 0 0 0-.089.607c0 .158-.008.302.02.46.062.355.121.658.283 1.004a.485.485 0 1 0 .965-.093ZM126.826 45.961c-.44-.058-.825-.131-1.283-.133a2.615 2.615 0 0 0-.537.061 1.68 1.68 0 0 0-.356.107c-.227.1-.435.227-.62.388-.139.12-.269.227-.38.374-.252.337-.468.638-.586 1.075a.484.484 0 1 0 .809.535c.333-.274.699-.293 1.084-.402.12-.034.242-.047.361-.089.122-.044.239-.102.357-.158.18-.086.335-.188.509-.286.307-.174.542-.346.834-.522a.484.484 0 1 0-.192-.95ZM122.556 44.015c-.078-.45-.085-.831-.163-1.252-.045-.241-.072-.474-.137-.703-.045-.161-.13-.302-.182-.462-.036-.109-.091-.202-.124-.315-.087-.294-.197-.552-.212-.898a.486.486 0 0 0-.939-.247c-.245.393-.358.748-.464 1.144-.05.185-.059.358-.071.545-.016.259.008.514.068.766.03.129.078.253.136.373.084.174.171.34.291.497.282.371.584.654.938 1.002a.485.485 0 1 0 .859-.45ZM118.034 43.533c-.532.095-.985.194-1.467.373a3.513 3.513 0 0 0-.546.271 2.1 2.1 0 0 0-.334.233 3.86 3.86 0 0 0-.665.776 6.89 6.89 0 0 0-.682 1.363.485.485 0 0 0 .778.579c.314-.241.615-.403.935-.605.154-.097.304-.175.455-.274.145-.095.297-.174.431-.282.217-.175.404-.376.604-.575.326-.325.568-.662.923-.99a.485.485 0 0 0-.432-.869ZM114.616 43.17c-.102-.351-.172-.642-.289-.976-.07-.198-.126-.382-.21-.57a3.638 3.638 0 0 0-.178-.366c-.066-.114-.153-.208-.227-.317-.232-.342-.501-.611-.624-1.065a.485.485 0 1 0-.969-.028c-.152.426-.174.787-.186 1.191-.006.184.025.348.055.527.042.244.118.474.227.697.054.111.125.215.202.314.113.142.227.276.367.397.336.293.669.49 1.044.761a.486.486 0 0 0 .788-.565ZM111.305 43.441a5.016 5.016 0 0 0-1.353.259 2.541 2.541 0 0 0-.505.254c-.108.066-.21.142-.3.231a2.559 2.559 0 0 0-.435.568c-.084.151-.162.288-.219.453-.13.371-.229.699-.271 1.11a.485.485 0 1 0 .885.396c.222-.243.458-.385.706-.577.093-.072.189-.119.281-.19.129-.1.27-.174.394-.28.102-.088.185-.192.279-.29.102-.105.178-.218.278-.328.221-.245.376-.481.631-.71a.485.485 0 1 0-.371-.896ZM106.594 43.48c-.099-.285-.126-.526-.216-.824-.038-.126-.058-.244-.105-.367-.042-.109-.074-.221-.13-.323-.067-.12-.165-.213-.242-.326-.054-.081-.122-.136-.177-.216-.15-.219-.316-.367-.412-.619a.484.484 0 1 0-.97-.003c-.137.354-.155.659-.18 1.031-.011.156.012.293.032.45.027.208.086.407.174.6.044.098.105.189.172.274.103.127.201.246.329.348.333.266.63.433 1 .619a.484.484 0 1 0 .725-.644ZM102.334 43.43a3.903 3.903 0 0 0-1.051-.126 1.81 1.81 0 0 0-.398.056 1.01 1.01 0 0 0-.246.085 2.11 2.11 0 0 0-.514.397c-.261.265-.418.497-.618.779a.485.485 0 1 0 .502.83c.266-.033.476-.025.761-.058.123-.015.23-.018.354-.044.111-.022.22-.035.325-.078.101-.042.189-.107.279-.167.099-.068.169-.144.259-.22.211-.179.317-.347.526-.501a.486.486 0 1 0-.179-.953ZM99.561 41.803c.14-.227.288-.347.439-.567.063-.091.131-.158.185-.254.046-.084.101-.161.131-.251.037-.109.029-.221.05-.334.015-.085.002-.157.014-.242.034-.238.005-.421.077-.656a.486.486 0 0 0-.723-.647c-.299.13-.483.279-.738.471-.107.081-.177.168-.267.268-.12.133-.212.279-.285.443a.978.978 0 0 0-.071.266c-.019.141-.037.271-.021.412.044.377.112.643.243 1a.485.485 0 0 0 .966.091ZM97.539 40.004c-.132-.351-.233-.606-.434-.916a1.99 1.99 0 0 0-.346-.436c-.095-.083-.212-.12-.319-.184-.073-.045-.147-.057-.222-.099-.2-.112-.385-.138-.567-.303a.485.485 0 1 0-.888.389c.008.504.146.852.357 1.272.08.158.186.293.313.419.061.061.133.11.207.154.111.065.215.117.337.161.313.112.563.119.88.234a.485.485 0 0 0 .682-.691Z" style="fill:#8c633f"/>
    <path d="M96.24 96.56c3.97-5.255 8.033-12.644 10.883-18.613.93-1.948 1.635-3.958 2.226-6.032.208-.729.419-1.458.62-2.189.095-.341.192-1.37.275-1.026.331 1.372-.081 3.233-.183 4.616-.27 3.666-.619 7.318-.962 10.98a262.185 262.185 0 0 1-.51 4.923 62.09 62.09 0 0 1-.212 1.72c-.038.266-.307.988-.117.798.889-.886 2.098-5.78 2.631-7.253.054-.15.744-2.379.895-2.373.095.003-.324 2.732-.37 2.971-.6 3.147-1.231 8.214-1.951 11.34" style="fill:#bb9370"/>
    <path d="M118.79 58.8V96a.25.25 0 0 0 .5 0V58.8a.25.25 0 0 0-.5 0Z" style="fill:#70453b"/>
    <path d="M84.635 40.062a.28.28 0 0 0-.281-.281h-18.1a.28.28 0 0 0-.281.281v1.786a.28.28 0 0 0 .281.281h18.1a.282.282 0 0 0 .281-.281v-1.786Z" style="fill:#3b2621"/>
    <path d="m77.951 36.223-4.143 10.591 6.985 2.733 4.144-10.59-6.986-2.734Z" style="fill:#f2e8dc"/>
    <clipPath id="m">
        <path d="m77.951 36.223-4.143 10.591 6.985 2.733 4.144-10.59-6.986-2.734Z"/>
    </clipPath>
    <g clip-path="url(#m)">
        <path d="m73.952 47.019 11.129-7.858a.25.25 0 0 0-.288-.409L73.664 46.61a.25.25 0 0 0 .288.409Z" style="fill:#cab4a2"/>
        <path d="M77.707 36.276 80.549 49.6a.25.25 0 1 0 .489-.105l-2.842-13.324a.25.25 0 0 0-.489.105Z" style="fill:#cab4a2"/>
        <path style="fill:#3b2621;fill-opacity:.15" d="M59.76 34.32h30.72v2.64H59.76z"/>
    </g>
    <path d="M66.488 22.555a.915.915 0 0 0-.775.43L57.849 35.56a.415.415 0 0 0 .352.635h34.203a.414.414 0 0 0 .351-.636l-7.931-12.61a.912.912 0 0 0-.776-.428l-17.56.034Z" style="fill:#70453b"/>
    <clipPath id="n">
        <path d="M66.488 22.555a.915.915 0 0 0-.775.43L57.849 35.56a.415.415 0 0 0 .352.635h34.203a.414.414 0 0 0 .351-.636l-7.931-12.61a.912.912 0 0 0-.776-.428l-17.56.034Z"/>
    </clipPath>
    <g clip-path="url(#n)">
        <path d="M70.483 21.882c-1.822 5.323-2.652 11.075-3.665 16.594a.25.25 0 0 0 .2.292.25.25 0 0 0 .291-.201c1.009-5.496 1.833-11.224 3.647-16.523a.25.25 0 1 0-.473-.162ZM74.828 22.309c.161 2.626.134 5.242.16 7.872.023 2.424.401 4.885.238 7.31a.25.25 0 0 0 .499.034c.164-2.438-.214-4.912-.237-7.349-.026-2.639 0-5.263-.161-7.898a.25.25 0 0 0-.499.031ZM79.658 21.896c.291 2.678 1.201 5.208 1.754 7.834.533 2.533.705 5.146 1.323 7.663a.25.25 0 1 0 .485-.119c-.616-2.512-.787-5.119-1.319-7.647-.549-2.61-1.457-5.123-1.746-7.785a.25.25 0 0 0-.497.054ZM82.335 21.485a128.84 128.84 0 0 0 4.499 12.167c.649 1.51 1.139 3.21 1.987 4.627a.25.25 0 1 0 .429-.257c-.837-1.398-1.316-3.077-1.957-4.567a128.887 128.887 0 0 1-4.482-12.12.249.249 0 0 0-.313-.163.249.249 0 0 0-.163.313ZM62.369 37.085c1.152-2.936 2.369-5.837 3.486-8.788.907-2.394 1.712-4.818 2.819-7.133a.25.25 0 0 0-.118-.334.25.25 0 0 0-.333.118c-1.113 2.328-1.924 4.764-2.835 7.172-1.117 2.949-2.334 5.848-3.485 8.783a.25.25 0 0 0 .466.182ZM69.08 34.995c.029-.484.103-.96.163-1.44a.25.25 0 0 0-.496-.062c-.062.491-.136.977-.166 1.472a.25.25 0 0 0 .499.03ZM69.006 26.054c.051-.395.113-.787.171-1.181a.25.25 0 0 0-.211-.284.252.252 0 0 0-.284.211c-.058.397-.121.792-.172 1.19a.251.251 0 0 0 .216.28.25.25 0 0 0 .28-.216ZM75.641 24.57c.048.327.1.654.102.985a.25.25 0 0 0 .251.249.25.25 0 0 0 .249-.252c-.002-.354-.056-.705-.107-1.055a.25.25 0 0 0-.495.073ZM81.071 33.073c.076.375.124.752.175 1.131a.25.25 0 0 0 .495-.066c-.052-.39-.102-.778-.18-1.164a.25.25 0 0 0-.49.099ZM83.019 25.949c.108.267.198.54.293.812a.25.25 0 0 0 .472-.164c-.098-.28-.19-.562-.302-.836a.25.25 0 1 0-.463.188ZM87.587 33.004c.148.337.299.673.443 1.012a.25.25 0 0 0 .46-.196c-.145-.341-.297-.678-.445-1.017a.25.25 0 0 0-.458.201ZM63.826 30.476c.042-.352.104-.705.175-1.052a.25.25 0 1 0-.49-.099c-.073.36-.138.727-.182 1.092a.25.25 0 0 0 .497.059Z" style="fill:#3b2621"/>
    </g>
    <path d="m58.716 15.257 2.128 7.463 17.4-.09-19.528-7.373Z" style="fill:#eadccc"/>
    <path d="m57.773 17.001 3.071 5.719 17.162-.153-20.233-5.566Z" style="fill:#eadccc"/>
    <path d="m58.506 12.588.21 2.669 19.4 7.369-19.61-10.038ZM57.773 17.001l-5.081 1.613 25.185 3.97-20.104-5.583Z" style="fill:#f2e8dc"/>
    <path style="fill:#8c633f" d="M65.973 42.129h18.662v5.572H65.973z"/>
    <path d="M85.061 47.774a.344.344 0 0 0-.345-.344H65.891a.344.344 0 0 0-.344.344v20.648h19.514V47.774Z" style="fill:#cab4a2"/>
    <clipPath id="o">
        <path d="M85.061 47.774a.344.344 0 0 0-.345-.344H65.891a.344.344 0 0 0-.344.344v20.648h19.514V47.774Z"/>
    </clipPath>
    <g clip-path="url(#o)">
        <path d="M73.106 68.912h.5a.25.25 0 0 0 0-.5h-.5a.25.25 0 0 0 0 .5Zm-1.5 0h.5a.25.25 0 0 0 0-.5h-.5a.25.25 0 0 0 0 .5Zm-1.5 0h.5a.25.25 0 0 0 0-.5h-.5a.25.25 0 0 0 0 .5Zm-1.5 0h.5a.25.25 0 0 0 0-.5h-.5a.25.25 0 0 0 0 .5Zm6 0h.5a.25.25 0 0 0 0-.5h-.5a.25.25 0 0 0 0 .5Zm6 0h.5a.25.25 0 0 0 0-.5h-.5a.25.25 0 0 0 0 .5Zm-1.5 0h.5a.25.25 0 0 0 0-.5h-.5a.25.25 0 0 0 0 .5Zm-1.5 0h.5a.25.25 0 0 0 0-.5h-.5a.25.25 0 0 0 0 .5Zm-10.508-.001.01.001h.498a.25.25 0 0 0 0-.5h-.461l-.037-.002a.25.25 0 0 0-.25.25c0 .207.192.245.24.251Zm15.008.001h.5a.25.25 0 0 0 0-.5h-.5a.25.25 0 0 0 0 .5Zm-6 0h.5a.25.25 0 0 0 0-.5h-.5a.25.25 0 0 0 0 .5Zm7.643-.356v-.5a.25.25 0 0 0-.5 0v.5a.25.25 0 0 0 .5 0ZM66.858 67.16v.5a.25.25 0 0 0 .5 0v-.5a.25.25 0 0 0-.5 0Zm16.891-.104v-.5a.25.25 0 0 0-.5 0v.5a.25.25 0 0 0 .5 0ZM66.858 65.66v.5a.25.25 0 0 0 .5 0v-.5a.25.25 0 0 0-.5 0Zm16.891-.104v-.5a.25.25 0 0 0-.5 0v.5a.25.25 0 0 0 .5 0ZM66.858 64.16v.5a.25.25 0 0 0 .5 0v-.5a.25.25 0 0 0-.5 0Zm16.891-.104v-.5a.25.25 0 0 0-.5 0v.5a.25.25 0 0 0 .5 0ZM66.858 62.66v.5a.25.25 0 0 0 .5 0v-.5a.25.25 0 0 0-.5 0Zm16.891-.104v-.5a.25.25 0 0 0-.5 0v.5a.25.25 0 0 0 .5 0ZM66.858 61.16v.5a.25.25 0 0 0 .5 0v-.5a.25.25 0 0 0-.5 0Zm16.891-.104v-.5a.25.25 0 0 0-.5 0v.5a.25.25 0 0 0 .5 0ZM66.858 59.66v.5a.25.25 0 0 0 .5 0v-.5a.25.25 0 0 0-.5 0Zm16.891-.104v-.5a.25.25 0 0 0-.5 0v.5a.25.25 0 0 0 .5 0ZM66.858 58.16v.5a.25.25 0 0 0 .5 0v-.5a.25.25 0 0 0-.5 0Zm16.891-.104v-.5a.25.25 0 0 0-.5 0v.5a.25.25 0 0 0 .5 0ZM66.858 56.66v.5a.25.25 0 0 0 .5 0v-.5a.25.25 0 0 0-.5 0Zm16.891-.104v-.5a.25.25 0 0 0-.5 0v.5a.25.25 0 0 0 .5 0ZM66.858 55.16v.5a.25.25 0 0 0 .5 0v-.5a.25.25 0 0 0-.5 0Zm16.891-.104v-.5a.25.25 0 0 0-.5 0v.5a.25.25 0 0 0 .5 0ZM66.858 53.66v.5a.25.25 0 0 0 .5 0v-.5a.25.25 0 0 0-.5 0Zm16.891-.104v-.5a.25.25 0 0 0-.5 0v.5a.25.25 0 0 0 .5 0ZM66.858 52.16v.5a.25.25 0 0 0 .5 0v-.5a.25.25 0 0 0-.5 0Zm16.891-.104v-.5a.25.25 0 0 0-.5 0v.5a.25.25 0 0 0 .5 0ZM66.858 50.66v.5a.25.25 0 0 0 .5 0v-.5a.25.25 0 0 0-.5 0Zm16.891-.104v-.5a.25.25 0 0 0-.5 0v.5a.25.25 0 0 0 .5 0Zm-16.712-1.55a.586.586 0 0 0-.179.425v.229a.25.25 0 0 0 .5 0v-.229c0-.025.008-.048.024-.063a.25.25 0 1 0-.345-.362Zm16.712.425c0-.322-.249-.571-.539-.571h-.021a.25.25 0 0 0 0 .5h.021c.03 0 .039.038.039.071a.25.25 0 0 0 .5 0Zm-1.56-.571h-.5a.25.25 0 0 0 0 .5h.5a.25.25 0 0 0 0-.5Zm-1.5 0h-.5a.25.25 0 0 0 0 .5h.5a.25.25 0 0 0 0-.5Zm-1.5 0h-.5a.25.25 0 0 0 0 .5h.5a.25.25 0 0 0 0-.5Zm-1.5 0h-.5a.25.25 0 0 0 0 .5h.5a.25.25 0 0 0 0-.5Zm-1.5 0h-.5a.25.25 0 0 0 0 .5h.5a.25.25 0 0 0 0-.5Zm-1.5 0h-.5a.25.25 0 0 0 0 .5h.5a.25.25 0 0 0 0-.5Zm-1.5 0h-.5a.25.25 0 0 0 0 .5h.5a.25.25 0 0 0 0-.5Zm-1.5 0h-.5a.25.25 0 0 0 0 .5h.5a.25.25 0 0 0 0-.5Zm-1.5 0h-.5a.25.25 0 0 0 0 .5h.5a.25.25 0 0 0 0-.5Zm-1.5 0h-.5a.25.25 0 0 0 0 .5h.5a.25.25 0 0 0 0-.5Z" style="fill:#8c633f"/>
    </g>
    <circle cx="75.304" cy="52.122" r="2.014" style="fill:#70453b"/>
    <path d="M75.599 51.202a.262.262 0 0 0-.262-.262h-.067a.262.262 0 0 0-.262.262v1.841c0 .145.117.262.262.262h.067a.262.262 0 0 0 .262-.262v-1.841Z" style="fill:#3b2621"/>
    <path d="M76.714 96.308c-.335-3.6-.249-12.492-.195-16.102.036-2.357.065-4.714.084-7.071.011-1.369.029-2.736.109-4.103.087-1.478.164-2.959.386-4.425.019-.123.211-1.292.247-1.286.212.03.422 1.17.592 4.193.275 4.877.406 9.642 1.185 14.489.078.487 1.001 5.247 1.07 5.278.378.168.131-.818.179-1.228.075-.644.127-1.29.179-1.935.177-2.228.302-4.46.555-6.682.734-6.451 2.011-12.865 2.941-19.287.038-.26.106.513.143.772.08.555.13 1.111.157 1.672.078 1.681.025 3.392-.021 5.075-.14 5.095-.097 10.207-.349 15.3-.067 1.362-.03 2.749.031 4.11.02.441.046.881.08 1.32.018.229.025.915.063.688 1.093-6.51 1.302-13.322 2.041-19.898.174-1.549.34-3.1.515-4.649.018-.159.06-1.385.195-1.448.049-.022.513 1.274.532 1.336.499 1.589.792 3.326.942 4.985.676 7.484 1.067 21.263.998 28.773l-12.659.123Z" style="fill:#bb9370"/>
    <path d="M73.716 91.066c-.049-1.863.939-3.598 1.998-5.066 4.07-5.64 11.933-5.066 17.634-2.544 2.782 1.231 5.285 3.18 8.219 4.05 2.406.714 4.837.43 7.103-.591a.25.25 0 0 0-.205-.456c-2.155.972-4.468 1.247-6.756.568-2.914-.864-5.396-2.806-8.159-4.028-5.901-2.611-14.028-3.129-18.241 2.709-1.121 1.554-2.145 3.399-2.093 5.372a.25.25 0 0 0 .5-.014Z" style="fill:#70453b"/>
    <path d="M79.285 83.847a.143.143 0 0 1 .023-.02c.848-.57 2.719-.502 3.529.144.038.03-1.17.9-1.161.952.01.052 1.473-.219 1.49-.181.116.261.95 2.139.937 2.171-.013.031-1.064.462-1.067.506-.003.049 1.394.575 1.422.749.145.908-.263 2.862-.329 2.888-.056.022-2.343-.733-2.356-.78-.069-.243-.354-1.292-.402-1.3-.048-.009-.336 1.012-.473 1.239a.114.114 0 0 1-.076.054c-.032.007-1.463-.948-1.748-1.141a.133.133 0 0 1-.055-.136c.055-.257.31-1.629.262-1.657-.048-.029-1.036.913-1.169 1.047a.086.086 0 0 1-.058.026c-.229-.143-.863-2.123-.461-2.742l1.692-1.819ZM88.385 83.733a.124.124 0 0 1 .022-.018c.782-.518 2.484-.489 3.211.069.034.027-1.081.815-1.073.861.008.046 1.344-.218 1.359-.184.101.229.83 1.875.818 1.904-.013.028-.976.426-.98.465-.004.043 1.26.486 1.282.639.118.8-.286 2.535-.347 2.559-.05.02-2.12-.61-2.132-.651-.058-.214-.301-1.137-.344-1.144-.044-.006-.322.902-.451 1.104a.11.11 0 0 1-.07.049c-.029.007-1.316-.814-1.573-.98a.115.115 0 0 1-.048-.12c.054-.228.309-1.445.266-1.469-.044-.025-.958.825-1.082.945a.081.081 0 0 1-.053.024c-.206-.123-.751-1.863-.374-2.418l1.569-1.635ZM88.834 79.958a.195.195 0 0 1-.023-.017c-.669-.657-.995-2.328-.6-3.155.018-.039 1.021.887 1.065.87.043-.017-.493-1.27-.464-1.291.204-.147 1.662-1.202 1.692-1.196.031.006.62.866.659.861.043-.005.213-1.333.358-1.387.759-.282 2.539-.248 2.575-.194.031.045-.154 2.201-.192 2.221-.197.102-1.049.531-1.047.575.003.044.949.127 1.173.211a.11.11 0 0 1 .063.058c.013.028-.522 1.457-.631 1.743a.112.112 0 0 1-.107.071c-.234-.005-1.478 0-1.492.047-.015.048 1.006.765 1.15.861a.086.086 0 0 1 .034.047c-.078.227-1.666 1.122-2.287.87l-1.926-1.195ZM97.408 84.097a.092.092 0 0 1-.022-.017c-.67-.657-.996-2.327-.601-3.154.019-.039 1.022.886 1.065.869.043-.017-.493-1.269-.463-1.291.203-.146 1.661-1.202 1.692-1.196.03.006.62.866.659.861.043-.005.213-1.333.357-1.387.759-.282 2.539-.248 2.576-.194.03.046-.155 2.202-.193 2.221-.197.102-1.049.531-1.046.575.002.045.948.128 1.173.211.028.011.05.032.063.059.012.027-.523 1.457-.632 1.742a.113.113 0 0 1-.107.072c-.234-.006-1.477-.001-1.492.047-.015.047 1.006.765 1.15.86a.08.08 0 0 1 .034.047c-.077.227-1.666 1.123-2.286.87l-1.927-1.195ZM99.637 88.406a.117.117 0 0 1 .024-.009c.889-.231 2.455.246 2.95.911.023.031-1.259.401-1.267.442-.007.041 1.314.173 1.317.205.02.221.17 1.804.15 1.825-.02.021-1.039.101-1.054.133-.018.035 1.01.745.983.88-.147.707-1.072 2.065-1.136 2.069-.053.004-1.768-1.078-1.766-1.116.014-.196.084-1.04.045-1.057-.038-.017-.584.675-.768.812a.12.12 0 0 1-.081.023c-.028-.002-.958-1.037-1.142-1.246a.09.09 0 0 1-.007-.113c.123-.178.746-1.139.713-1.171-.032-.032-1.149.442-1.301.512a.093.093 0 0 1-.057.006c-.151-.159-.102-1.773.423-2.141l1.974-.965ZM104.15 87.283a.102.102 0 0 1-.006-.025c-.118-.91.552-2.404 1.274-2.811.034-.02.24 1.299.279 1.311.04.013.337-1.281.369-1.279.222.007 1.812.057 1.83.08.018.022-.031 1.043-.001 1.062.033.022.866-.909.996-.864.684.233 1.914 1.322 1.911 1.386-.004.054-1.292 1.619-1.33 1.612-.192-.039-1.021-.214-1.042-.178-.022.036.596.665.709.864a.12.12 0 0 1 .012.083c-.006.029-1.149.821-1.379.978a.09.09 0 0 1-.113-.008c-.162-.144-1.036-.883-1.072-.855-.036.028.294 1.196.344 1.356a.097.097 0 0 1-.001.056c-.177.131-1.772-.121-2.071-.688l-.709-2.08Z" style="fill:#70453b"/>
    <path d="M87.699 81.801c1.316-.276 2.453-1.472 3.006-2.645a.25.25 0 0 0-.452-.214c-.492 1.043-1.486 2.125-2.656 2.37a.25.25 0 1 0 .102.489ZM77.388 84.061a10.214 10.214 0 0 1 2.47 2.636.25.25 0 1 0 .422-.268 10.724 10.724 0 0 0-2.597-2.771.25.25 0 0 0-.349.054.249.249 0 0 0 .054.349ZM85.179 81.743c1.433 1.014 2.487 2.508 3.263 4.064a.25.25 0 0 0 .448-.223c-.813-1.628-1.922-3.188-3.422-4.249a.25.25 0 0 0-.289.408ZM97.399 85.553c1.033-.467 2.118-1.326 2.696-2.32a.25.25 0 1 0-.432-.252c-.528.91-1.526 1.689-2.47 2.117a.25.25 0 1 0 .206.455ZM98.541 86.005c.201.819.233 1.669.321 2.504.093.88.249 1.743.696 2.546a.25.25 0 1 0 .437-.243c-.413-.742-.55-1.543-.636-2.356-.091-.857-.126-1.729-.332-2.57a.25.25 0 1 0-.486.119Z" style="fill:#70453b"/>
    <path d="M58.045 96.44c1.171-1.866 2.237-3.474 1.84-5.792a.25.25 0 1 0-.493.084c.374 2.183-.668 3.685-1.771 5.442a.25.25 0 0 0 .424.266Z" style="fill:#8d633f"/>
    <path d="M56.471 96.386c.21-.966.811-1.728 1.59-2.33 1.211-.936 2.851-1.491 4.208-1.807a.25.25 0 1 0-.113-.487c-1.42.331-3.133.918-4.401 1.898-.874.676-1.537 1.536-1.772 2.619a.25.25 0 0 0 .488.107Z" style="fill:#8d633f"/>
    <path d="M29.04 96.375s12.445.146 28.296.276a2784.21 2784.21 0 0 0 18.864.088c2.525.002 5.05-.004 7.546-.014a5269.87 5269.87 0 0 0 22.636-.168c10.074-.097 16.978-.182 16.978-.182.075 0 .135-.06.135-.135a.134.134 0 0 0-.135-.135s-6.904-.085-16.978-.182a5269.87 5269.87 0 0 0-22.636-.168c-2.496-.01-5.021-.016-7.546-.014a2784.21 2784.21 0 0 0-18.864.088c-15.851.13-28.296.276-28.296.276a.134.134 0 0 0-.135.135c0 .075.06.135.135.135Z" style="fill:#70453b"/>
    <path d="M67 80.635c-.167 4.137.07 8.247.012 12.384-.015 1.122-.164 2.237-.212 3.358a.25.25 0 0 0 .499.021c.049-1.125.197-2.245.213-3.372.058-4.132-.179-8.238-.012-12.371a.25.25 0 0 0-.24-.26.25.25 0 0 0-.26.24Z" style="fill:#70453b"/>
    <path d="M59.337 92.313c-4.64-1.155-8.304-5.899-6.767-10.835.716-2.298 2.818-3.956 3.61-6.306.495-1.471.498-2.993.502-4.529 0-.198-.17-1.632-.053-1.741.03-.028 1.542 1.03 2.042 1.398 1.89 1.394 4.202 2.938 4.475 5.481.229 2.135-.408 4.274.318 6.372.683 1.97 3.37 3.918 2.368 6.23-.916 2.113-3.639 2.699-5.434 3.763l-1.061.167Z" style="fill:#8c633f"/>
    <clipPath id="p">
        <path d="M59.337 92.313c-4.64-1.155-8.304-5.899-6.767-10.835.716-2.298 2.818-3.956 3.61-6.306.495-1.471.498-2.993.502-4.529 0-.198-.17-1.632-.053-1.741.03-.028 1.542 1.03 2.042 1.398 1.89 1.394 4.202 2.938 4.475 5.481.229 2.135-.408 4.274.318 6.372.683 1.97 3.37 3.918 2.368 6.23-.916 2.113-3.639 2.699-5.434 3.763l-1.061.167Z"/>
    </clipPath>
    <g clip-path="url(#p)">
        <path d="M56.26 68.82c.995 1.753 1.888 3.411 2.228 5.426.398 2.36.262 4.754.133 7.146-.131 2.43-.255 4.858.17 7.247.217 1.217.68 2.265 1.17 3.377a.25.25 0 0 0 .458-.202c-.474-1.075-.926-2.086-1.135-3.263-.419-2.351-.293-4.74-.164-7.132.131-2.429.266-4.86-.139-7.256-.35-2.075-1.262-3.785-2.286-5.59a.25.25 0 0 0-.341-.093.25.25 0 0 0-.094.34Z" style="fill:#bb9370"/>
        <path d="M59.017 74.097c.81-1.37 1.347-2.718 1.516-4.304a.25.25 0 1 0-.497-.052c-.161 1.511-.677 2.795-1.45 4.102a.25.25 0 0 0 .431.254ZM59.262 77.147c1.41-1.693 3.037-3.086 3.697-5.266a.25.25 0 0 0-.479-.145c-.64 2.113-2.236 3.45-3.602 5.091a.25.25 0 0 0 .384.32ZM59.216 80.09c1.744-1.393 3.855-2.461 5.012-4.468a.25.25 0 0 0-.433-.25c-1.126 1.952-3.195 2.972-4.891 4.327a.25.25 0 1 0 .312.391ZM58.934 83.9c.931-.459 1.906-.834 2.775-1.413 1.084-.721 1.974-1.674 2.739-2.719a.249.249 0 0 0-.054-.349.249.249 0 0 0-.349.054c-.731.997-1.578 1.909-2.613 2.598-.851.567-1.807.931-2.72 1.381a.25.25 0 1 0 .222.448ZM59.155 87.466c.915-.85 1.991-1.474 3.007-2.168 1.055-.72 2.045-1.515 2.746-2.681a.25.25 0 0 0-.429-.258c-.662 1.102-1.603 1.846-2.599 2.526-1.036.708-2.132 1.347-3.065 2.214a.25.25 0 0 0 .34.367ZM59.767 89.975c2.276-1.522 4.889-2.716 6.456-5.053a.25.25 0 0 0-.069-.347.25.25 0 0 0-.347.069c-1.53 2.281-4.096 3.429-6.318 4.915a.25.25 0 1 0 .278.416Z" style="fill:#bb9370"/>
    </g>
    <path d="M66.677 75.82c.623-1.437 1.853-2.289 2.745-1.902.892.387 1.111 1.867.488 3.303 1.555-.179 2.908.46 3.019 1.426.111.966-1.061 1.895-2.616 2.074.932 1.258 1.055 2.749.274 3.328-.781.579-2.172.029-3.104-1.229-.623 1.437-1.853 2.289-2.745 1.902-.892-.387-1.111-1.867-.488-3.303-1.555.179-2.908-.46-3.019-1.426-.111-.966 1.061-1.895 2.616-2.074-.932-1.258-1.055-2.749-.274-3.328.781-.579 2.172-.029 3.104 1.229Z" style="fill:#e9d0bc"/>
    <path d="M64.159 76.039c.299.381.613.748.911 1.128a.25.25 0 0 0 .394-.308c-.299-.381-.613-.748-.912-1.129a.25.25 0 0 0-.351-.042.25.25 0 0 0-.042.351ZM68.425 76.578c.157-.436.421-.824.589-1.256a.25.25 0 0 0-.143-.323.25.25 0 0 0-.324.142c-.169.436-.434.828-.593 1.268a.25.25 0 1 0 .471.169ZM70.102 79.244c.463-.183.941-.167 1.415-.297a.25.25 0 1 0-.131-.482c-.492.134-.988.125-1.467.314a.25.25 0 1 0 .183.465ZM62.783 80.058c.478-.039.96-.054 1.437-.104a.25.25 0 0 0-.052-.498c-.473.05-.952.065-1.426.103a.25.25 0 0 0 .041.499ZM65.356 83.421c.165-.364.322-.734.497-1.093a.25.25 0 1 0-.449-.219c-.177.363-.336.737-.503 1.105a.25.25 0 1 0 .455.207ZM68.483 82.013c.243.298.496.617.777.881a.25.25 0 0 0 .354-.01.25.25 0 0 0-.011-.354c-.265-.25-.503-.551-.732-.833a.25.25 0 0 0-.388.316Z" style="fill:#b9a493"/>
    <circle cx="67.291" cy="79.284" r="2.156" style="fill:#c26a55"/>
    <path d="M67.745 80.863a.6.6 0 1 0-1.04-.602.6.6 0 0 0 1.04.602ZM66.379 80.11a.36.36 0 0 0-.623-.361.36.36 0 1 0 .623.361ZM68.729 80.36a.36.36 0 1 0-.623-.36.36.36 0 0 0 .623.36ZM67.909 77.945a.36.36 0 0 0-.624-.361.36.36 0 0 0 .624.361ZM68.794 79.289a.6.6 0 1 0-1.04-.602.6.6 0 0 0 1.04.602ZM66.86 78.863a.6.6 0 1 0-1.04-.6.6.6 0 0 0 1.04.6Z" style="fill:#e9d0bc"/>
    <path d="M60.953 90.271c.157-1.184 1.531-2.023 2.509-2.517 2.183-1.102 5.026-.953 7.125.314 1.662 1.003 2.954 2.486 4.891 3.028 1.617.452 2.804.406 4.385.126.165-.03-.268.202-.397.309a6.4 6.4 0 0 0-.637.617 15.135 15.135 0 0 0-1.624 2.133c-1.379 2.174-2.761 5.339-5.529 6.013-2.922.711-5.99.021-8.477-1.573-1.176-.754-2.207-1.595-2.76-2.913-.637-1.516-.357-3.324-.087-4.896l.601-.641Z" style="fill:#8c633f"/>
    <clipPath id="q">
        <path d="M60.953 90.271c.157-1.184 1.531-2.023 2.509-2.517 2.183-1.102 5.026-.953 7.125.314 1.662 1.003 2.954 2.486 4.891 3.028 1.617.452 2.804.406 4.385.126.165-.03-.268.202-.397.309a6.4 6.4 0 0 0-.637.617 15.135 15.135 0 0 0-1.624 2.133c-1.379 2.174-2.761 5.339-5.529 6.013-2.922.711-5.99.021-8.477-1.573-1.176-.754-2.207-1.595-2.76-2.913-.637-1.516-.357-3.324-.087-4.896l.601-.641Z"/>
    </clipPath>
    <g clip-path="url(#q)">
        <path d="M60.322 93.122c1.198-.619 2.484-.635 3.764-.419 1.324.223 2.64.695 3.853 1.042 1.123.322 2.346.486 3.507.57 1.687.121 3.236-.317 4.739-.931 1.464-.599 2.884-1.366 4.348-1.918a.25.25 0 0 0-.177-.468c-1.468.554-2.892 1.323-4.361 1.923-1.431.585-2.906 1.01-4.513.895-1.128-.081-2.315-.24-3.405-.552-1.23-.352-2.566-.828-3.908-1.054-1.386-.234-2.779-.203-4.076.468a.25.25 0 1 0 .229.444Z" style="fill:#bb9370"/>
        <path d="M62.314 92.48c.364 2.439.686 4.988.477 7.458a.25.25 0 1 0 .498.043c.213-2.509-.111-5.098-.481-7.574a.25.25 0 1 0-.494.073ZM65.035 92.827c.412 3.029.877 6.126.91 9.185a.251.251 0 0 0 .253.248.25.25 0 0 0 .247-.253c-.033-3.08-.5-6.198-.915-9.248a.25.25 0 1 0-.495.068ZM68.083 93.633c.323 1.567.811 3.104 1.041 4.69.235 1.621.205 3.276.342 4.907a.25.25 0 0 0 .498-.042c-.138-1.641-.109-3.306-.345-4.937-.232-1.596-.722-3.142-1.046-4.719a.25.25 0 1 0-.49.101ZM71.322 94.226c.277.846.679 1.845.85 2.761.29 1.552.402 3.1.58 4.664.016.137.14.236.277.221a.251.251 0 0 0 .22-.277c-.18-1.576-.293-3.136-.585-4.7-.175-.936-.584-1.959-.866-2.824a.25.25 0 1 0-.476.155ZM74.695 93.796c.624 1.584 1.132 3.196 1.303 4.893a.25.25 0 1 0 .497-.049c-.175-1.744-.693-3.401-1.335-5.027a.25.25 0 1 0-.465.183ZM77.102 92.755a51.293 51.293 0 0 1 1.023 3.562.25.25 0 0 0 .486-.117 52.297 52.297 0 0 0-1.032-3.597.25.25 0 0 0-.477.152Z" style="fill:#bb9370"/>
    </g>
    <path d="M118.816 54.485c.786-1.453 2.156-2.236 3.058-1.748.902.488.997 2.063.212 3.516 1.65-.046 3.014.749 3.042 1.774.029 1.025-1.288 1.895-2.939 1.941.866 1.406.859 2.985-.015 3.522-.873.537-2.285-.168-3.15-1.575-.786 1.453-2.156 2.236-3.058 1.748-.902-.488-.997-2.063-.212-3.516-1.65.046-3.014-.749-3.042-1.774-.029-1.025 1.288-1.895 2.939-1.941-.866-1.406-.859-2.985.015-3.522.873-.537 2.285.168 3.15 1.575Z" style="fill:#e9d0bc"/>
    <path d="M120.484 55.556c.207-.426.49-.851.739-1.256a.25.25 0 0 0-.082-.344.25.25 0 0 0-.344.082c-.257.419-.548.858-.763 1.299a.25.25 0 0 0 .45.219ZM116.122 54.274c.206.567.482 1.075.781 1.595.069.12.222.161.342.093a.251.251 0 0 0 .092-.342c-.285-.495-.549-.978-.745-1.517a.25.25 0 1 0-.47.171ZM114.428 58.67c.582-.005 1.164.104 1.744.072a.25.25 0 0 0-.028-.499c-.572.031-1.147-.078-1.721-.073a.25.25 0 0 0-.247.253.249.249 0 0 0 .252.247ZM116.758 62.519c.199-.486.476-.932.75-1.379a.25.25 0 1 0-.426-.262c-.288.47-.577.94-.787 1.452a.25.25 0 1 0 .463.189ZM120.223 61.193c.35.365.602.798.922 1.187a.25.25 0 0 0 .386-.318c-.329-.399-.588-.841-.948-1.215a.25.25 0 1 0-.36.346ZM122.256 58.173c.478-.02.947-.081 1.421-.116a.25.25 0 1 0-.037-.499c-.468.035-.932.095-1.405.115a.25.25 0 0 0 .021.5Z" style="fill:#b9a493"/>
    <path d="M119.308 56.035a2.292 2.292 0 0 1-.397 4.565 2.291 2.291 0 0 1 .397-4.565Z" style="fill:#c26a55"/>
    <circle cx="120.056" cy="58.65" r=".6" style="fill:#e9d0bc"/>
    <circle cx="120.296" cy="57.45" r=".36" style="fill:#e9d0bc"/>
    <circle cx="119.336" cy="59.61" r=".36" style="fill:#e9d0bc"/>
    <circle cx="117.656" cy="57.69" r=".36" style="fill:#e9d0bc"/>
    <circle cx="118.376" cy="58.89" r=".6" style="fill:#e9d0bc"/>
    <circle cx="118.856" cy="57.21" r=".6" style="fill:#e9d0bc"/>
    <path d="M80.134 7.323c.597-1.377 1.776-2.194 2.632-1.824.855.371 1.065 1.791.468 3.168 1.491-.172 2.789.441 2.895 1.368.107.926-1.017 1.817-2.509 1.989.895 1.206 1.013 2.636.264 3.191-.749.556-2.083.028-2.978-1.178-.597 1.377-1.776 2.194-2.632 1.824-.855-.371-1.065-1.791-.468-3.168-1.491.172-2.789-.441-2.895-1.368-.107-.926 1.017-1.817 2.509-1.989-.895-1.206-1.013-2.636-.264-3.191.749-.556 2.083-.028 2.978 1.178Z" style="fill:#e9d0bc"/>
    <path d="M81.705 8.393c.24-.483.584-.949.897-1.39a.25.25 0 0 0-.408-.289c-.328.462-.685.95-.937 1.456a.25.25 0 0 0 .448.223ZM77.782 7.495c.289.328.486.726.712 1.097a.25.25 0 0 0 .343.084.25.25 0 0 0 .084-.343c-.241-.397-.455-.818-.764-1.169a.25.25 0 0 0-.353-.022.251.251 0 0 0-.022.353ZM76.523 11.62c.379-.194.828-.277 1.249-.312a.251.251 0 0 0 .229-.27.251.251 0 0 0-.27-.229c-.486.041-1 .143-1.436.366a.249.249 0 0 0-.108.336.25.25 0 0 0 .336.109ZM78.824 14.778c.178-.442.257-.919.451-1.356a.25.25 0 0 0-.458-.202c-.195.442-.277.924-.457 1.372a.25.25 0 0 0 .464.186ZM81.621 12.888c.326.335.682.643 1.024.961a.25.25 0 0 0 .354-.012.251.251 0 0 0-.013-.354c-.336-.313-.687-.615-1.007-.944a.25.25 0 1 0-.358.349ZM82.812 10.409c.475-.107.963-.262 1.453-.285a.251.251 0 0 0 .238-.262.252.252 0 0 0-.262-.238c-.519.025-1.036.184-1.538.297a.25.25 0 1 0 .109.488Z" style="fill:#b9a493"/>
    <circle cx="80.234" cy="10.603" r="2.068" style="fill:#c26a55"/>
    <circle cx="79.32" cy="10.2" r=".6" style="fill:#e9d0bc"/>
    <circle cx="79.08" cy="11.4" r=".36" style="fill:#e9d0bc"/>
    <circle cx="80.04" cy="9.24" r=".36" style="fill:#e9d0bc"/>
    <circle cx="81.72" cy="11.16" r=".36" style="fill:#e9d0bc"/>
    <circle cx="81" cy="9.96" r=".6" style="fill:#e9d0bc"/>
    <circle cx="80.52" cy="11.64" r=".6" style="fill:#e9d0bc"/>
</svg>
