<svg viewBox="0 0 288 168" xmlns="http://www.w3.org/2000/svg" xml:space="preserve" style="fill-rule:evenodd;clip-rule:evenodd;stroke-linecap:round;stroke-linejoin:round;stroke-miterlimit:1.5">
    <path style="fill:none" d="M0 0h288v168H0z"/>
    <path d="M105.169 92.691h11.865V70.108h4.418l2.046-11.292h-6.464V35.414h-11.865v23.402H93.796l7.2-23.402H88.968l-11.21 34.694h27.411v22.583Z" style="fill:#70453b;fill-rule:nonzero"/>
    <clipPath id="a">
        <path d="M105.169 92.691h11.865V70.108h4.418l2.046-11.292h-6.464V35.414h-11.865v23.402H93.796l7.2-23.402H88.968l-11.21 34.694h27.411v22.583Z" clip-rule="nonzero"/>
    </clipPath>
    <g clip-path="url(#a)">
        <path d="M113.98 95.64V96a.5.5 0 0 0 1 0v-.36a.5.5 0 0 0-1 0Zm0-3v1a.5.5 0 0 0 1 0v-1a.5.5 0 0 0-1 0Zm0-3v1a.5.5 0 0 0 1 0v-1a.5.5 0 0 0-1 0Zm0-3v1a.5.5 0 0 0 1 0v-1a.5.5 0 0 0-1 0Zm0-3v1a.5.5 0 0 0 1 0v-1a.5.5 0 0 0-1 0Zm0-3v1a.5.5 0 0 0 1 0v-1a.5.5 0 0 0-1 0Zm0-3v1a.5.5 0 0 0 1 0v-1a.5.5 0 0 0-1 0Zm0-3v1a.5.5 0 0 0 1 0v-1a.5.5 0 0 0-1 0Zm0-3v1a.5.5 0 0 0 1 0v-1a.5.5 0 0 0-1 0Zm0-3v1a.5.5 0 0 0 1 0v-1a.5.5 0 0 0-1 0Zm0-3v1a.5.5 0 0 0 1 0v-1a.5.5 0 0 0-1 0Zm0-3v1a.5.5 0 0 0 1 0v-1a.5.5 0 0 0-1 0Zm0-3v1a.5.5 0 0 0 1 0v-1a.5.5 0 0 0-1 0Zm0-3v1a.5.5 0 0 0 1 0v-1a.5.5 0 0 0-1 0Zm0-3v1a.5.5 0 0 0 1 0v-1a.5.5 0 0 0-1 0Zm0-3v1a.5.5 0 0 0 1 0v-1a.5.5 0 0 0-1 0Zm0-3v1a.5.5 0 0 0 1 0v-1a.5.5 0 0 0-1 0Zm0-3v1a.5.5 0 0 0 1 0v-1a.5.5 0 0 0-1 0Zm0-3v1a.5.5 0 0 0 1 0v-1a.5.5 0 0 0-1 0Zm0-3v1a.5.5 0 0 0 1 0v-1a.5.5 0 0 0-1 0Zm0-3v1a.5.5 0 0 0 1 0v-1a.5.5 0 0 0-1 0Zm0-3v1a.5.5 0 0 0 1 0v-1a.5.5 0 0 0-1 0ZM111.34 33.36v63.36a.5.5 0 0 0 1 0V33.36a.5.5 0 0 0-1 0Z" style="fill:#b9a493"/>
    </g>
    <path d="M128.653 51.37v25.856c0 3.601.859 6.615 2.577 9.042 1.718 2.427 4.05 4.255 6.996 5.482 2.946 1.228 6.273 1.841 9.983 1.841 3.927 0 7.336-.654 10.228-1.964 2.891-1.309 5.127-3.191 6.709-5.645 1.582-2.455 2.373-5.374 2.373-8.756V51.452c0-5.401-1.677-9.655-5.032-12.765-3.355-3.109-8.087-4.664-14.197-4.664-6.109 0-10.909 1.487-14.401 4.46-3.491 2.973-5.236 7.268-5.236 12.887Zm11.946 24.302V53.17c0-1.909.273-3.436.818-4.582.546-1.146 1.378-1.977 2.496-2.496 1.118-.518 2.523-.777 4.214-.777 1.745 0 3.177.259 4.296.777 1.118.519 1.95 1.35 2.495 2.496.546 1.146.818 2.646.818 4.5V75.59c0 1.527-.3 2.809-.9 3.846-.6 1.036-1.459 1.827-2.577 2.373-1.118.545-2.496.818-4.132.818-1.582 0-2.946-.259-4.091-.778-1.146-.518-2.005-1.295-2.578-2.331-.573-1.037-.859-2.319-.859-3.846Z" style="fill:#70453b;fill-rule:nonzero"/>
    <path d="M130.62 51.37v25.856c0 3.144.715 5.786 2.216 7.906 1.508 2.13 3.561 3.725 6.147 4.803 2.721 1.134 5.798 1.689 9.226 1.689 3.614 0 6.755-.583 9.416-1.788 2.525-1.144 4.486-2.776 5.868-4.92 1.388-2.154 2.059-4.722 2.059-7.69V51.452c0-4.781-1.432-8.569-4.402-11.322-3.033-2.811-7.336-4.14-12.86-4.14-5.559 0-9.948 1.285-13.125 3.99-3.078 2.621-4.545 6.437-4.545 11.39Zm1 0c0-4.615 1.325-8.186 4.193-10.628 3.017-2.57 7.197-3.752 12.477-3.752 5.226 0 9.311 1.214 12.18 3.873 2.775 2.572 4.082 6.122 4.082 10.589v25.774c0 2.758-.61 5.147-1.9 7.148-1.279 1.986-3.101 3.492-5.439 4.551-2.544 1.152-5.549 1.699-9.004 1.699-3.285 0-6.234-.526-8.842-1.613-2.402-1-4.314-2.478-5.715-4.457-1.39-1.963-2.032-4.416-2.032-7.328V51.37Zm6.012 24.302c0 2.101.441 3.854 1.229 5.281.881 1.594 2.19 2.803 3.952 3.6 1.489.674 3.257 1.041 5.314 1.041 2.155 0 3.96-.4 5.433-1.119 1.671-.815 2.947-2.004 3.844-3.553.834-1.44 1.299-3.21 1.299-5.332V53.088c0-2.384-.405-4.303-1.106-5.776-.857-1.799-2.171-3.098-3.927-3.912-1.445-.669-3.287-1.052-5.543-1.052-2.195 0-4.01.38-5.462 1.052-1.756.814-3.07 2.113-3.927 3.912-.698 1.468-1.106 3.413-1.106 5.858v22.502Zm1 0V53.17c0-2.264.362-4.069 1.009-5.428.752-1.578 1.904-2.72 3.445-3.434 1.339-.621 3.016-.96 5.041-.96 2.084 0 3.787.341 5.123.96 1.541.714 2.692 1.856 3.444 3.434.649 1.363 1.009 3.14 1.009 5.346V75.59c0 1.922-.409 3.527-1.164 4.831-.797 1.376-1.933 2.431-3.418 3.155-1.353.66-3.014 1.018-4.994 1.018-1.897 0-3.529-.331-4.902-.952-1.554-.703-2.711-1.767-3.488-3.173-.716-1.295-1.105-2.889-1.105-4.797Z" style="fill:#b9a493"/>
    <path d="M199.267 92.691h11.864V70.108h4.419l2.045-11.292h-6.464V35.414h-11.864v23.402h-11.374l7.201-23.402h-12.028l-11.21 34.694h27.411v22.583Z" style="fill:#70453b;fill-rule:nonzero"/>
    <clipPath id="b">
        <path d="M199.267 92.691h11.864V70.108h4.419l2.045-11.292h-6.464V35.414h-11.864v23.402h-11.374l7.201-23.402h-12.028l-11.21 34.694h27.411v22.583Z" clip-rule="nonzero"/>
    </clipPath>
    <g clip-path="url(#b)">
        <path d="m171.433 68.794 2.954-2.308c.44-.343 1.039-.53 1.661-.53.621 0 1.22.187 1.66.53l.913.714c.604.472 1.421.743 2.276.743.854 0 1.671-.271 2.275-.743l.911-.712c.44-.343 1.038-.53 1.66-.53.622 0 1.22.187 1.66.53l.796.622c1.256.981 3.294.981 4.551 0l.708-.554c.917-.716 2.404-.716 3.321 0l.901.705c1.257.981 3.295.981 4.552 0l1.206-.943c.917-.716 2.403-.716 3.32 0l1.201.939c1.257.981 3.295.981 4.552 0l.742-.58c.917-.716 2.403-.716 3.32 0l2.663 2.08a.5.5 0 0 0 .616-.788l-2.663-2.08c-1.257-.982-3.295-.982-4.552 0l-.742.579c-.917.717-2.403.717-3.32 0l-1.201-.938c-1.257-.982-3.295-.982-4.552 0l-1.206.943c-.917.716-2.403.716-3.32 0l-.902-.705c-1.257-.982-3.294-.982-4.551 0l-.709.554c-.917.716-2.403.716-3.32 0l-.795-.622c-.604-.472-1.422-.742-2.276-.742-.854 0-1.672.27-2.276.742l-.91.712c-.44.343-1.039.531-1.66.531-.622 0-1.221-.188-1.661-.531l-.913-.714c-.604-.472-1.421-.742-2.275-.742-.855 0-1.672.27-2.276.742l-2.954 2.308a.5.5 0 0 0 .615.788Z" style="fill:#b9a493"/>
    </g>
    <path d="M209.115 71.418a1.2 1.2 0 1 1-1.675 1.72 1.2 1.2 0 0 1 1.675-1.72ZM209.115 45.258a1.2 1.2 0 1 1-1.675 1.72 1.2 1.2 0 0 1 1.675-1.72ZM209.115 75.978a1.2 1.2 0 1 1-1.675 1.72 1.2 1.2 0 0 1 1.675-1.72ZM209.115 49.818a1.2 1.2 0 1 1-1.675 1.72 1.2 1.2 0 0 1 1.675-1.72ZM209.115 80.538a1.2 1.2 0 1 1-1.675 1.72 1.2 1.2 0 0 1 1.675-1.72ZM209.115 54.378a1.2 1.2 0 1 1-1.675 1.72 1.2 1.2 0 0 1 1.675-1.72Z" style="fill:#b9a493"/>
    <path d="M217.776 18.04c3.04.078 6.041.335 8.951 1.263a18.936 18.936 0 0 1 5.91 3.118c1.447 1.134 2.629 2.541 3.396 4.215 2.516 5.487.716 11.271-1.623 16.432-.788 1.737-1.811 3.685-2.425 5.679-.644 2.092-.838 4.234.064 6.256 2.215 4.967 7.536 7.554 11.986 10.097 6.115 3.493 12.956 7.583 17.377 13.208 3.254 4.141 4.088 9.656 4.351 14.773.656 12.771-5.24 27.748-16.841 34.291-4.455 2.512-9.311 4.148-13.881 6.23-4.657 2.121-9.017 4.703-12.396 9.074a.5.5 0 0 0 .791.611c3.273-4.234 7.509-6.72 12.019-8.775 4.597-2.094 9.478-3.742 13.959-6.269 11.919-6.723 18.022-22.091 17.348-35.214-.274-5.317-1.182-11.036-4.564-15.339-4.498-5.723-11.445-9.904-17.667-13.459-4.275-2.442-9.441-4.864-11.569-9.635-.8-1.796-.593-3.697-.022-5.554.602-1.954 1.609-3.86 2.38-5.561 2.456-5.42 4.264-11.5 1.622-17.262-.834-1.82-2.115-3.353-3.689-4.585a19.918 19.918 0 0 0-6.223-3.284c-3-.956-6.093-1.229-9.228-1.31a.5.5 0 0 0-.026 1Z" style="fill:#70453b"/>
    <ellipse cx="217.92" cy="17.52" rx="1.68" ry="2.16" style="fill:#70453b"/>
    <path d="M225.115 15.893c.904.204 1.426 1.313 1.164 2.476s-1.209 1.942-2.114 1.738c-.904-.204-1.426-1.313-1.164-2.476s1.209-1.942 2.114-1.738ZM233.446 20.167c.718.586.689 1.812-.065 2.735-.753.924-1.949 1.198-2.667.611-.718-.586-.689-1.812.065-2.735.753-.924 1.949-1.198 2.667-.611ZM238.614 25.832c.553.744.225 1.925-.732 2.636-.957.711-2.183.685-2.736-.06-.553-.744-.225-1.925.732-2.636.957-.711 2.183-.685 2.736.06ZM239.999 35.11c-.03.926-1.022 1.648-2.213 1.609-1.192-.038-2.135-.822-2.105-1.749.03-.926 1.022-1.648 2.213-1.609 1.192.038 2.135.822 2.105 1.749ZM237.119 43.03c-.03.926-1.022 1.648-2.213 1.609-1.192-.038-2.135-.822-2.105-1.749.03-.926 1.022-1.648 2.213-1.609 1.192.038 2.135.822 2.105 1.749ZM234.239 51.19c-.03.926-1.022 1.648-2.213 1.609-1.192-.038-2.135-.822-2.105-1.749.03-.926 1.022-1.648 2.213-1.609 1.192.038 2.135.822 2.105 1.749ZM237.7 58.296c.525.764.154 1.933-.828 2.608-.983.676-2.207.604-2.732-.16-.525-.764-.154-1.933.828-2.608.983-.676 2.207-.604 2.732.16ZM245.617 63.072c.741.557.762 1.783.047 2.736-.716.954-1.899 1.276-2.641.72-.741-.557-.762-1.783-.047-2.736.716-.954 1.899-1.276 2.641-.72ZM253.297 67.872c.741.557.762 1.783.047 2.736-.716.954-1.899 1.276-2.641.72-.741-.557-.762-1.783-.047-2.736.716-.954 1.899-1.276 2.641-.72ZM260.737 73.872c.741.557.762 1.783.047 2.736-.716.954-1.899 1.276-2.641.72-.741-.557-.762-1.783-.047-2.736.716-.954 1.899-1.276 2.641-.72ZM266.007 81.521c.343.861-.278 1.919-1.386 2.36-1.107.441-2.285.099-2.628-.762-.343-.861.278-1.919 1.386-2.36 1.107-.441 2.285-.099 2.628.762ZM268.32 90.71c.004.927-.96 1.685-2.152 1.69-1.192.005-2.164-.743-2.168-1.67-.004-.927.96-1.685 2.152-1.69 1.192-.005 2.164.743 2.168 1.67ZM268.32 98.63c.004.927-.96 1.685-2.152 1.69-1.192.005-2.164-.743-2.168-1.67-.004-.927.96-1.685 2.152-1.69 1.192-.005 2.164.743 2.168 1.67ZM266.177 107.756c-.41.831-1.611 1.078-2.68.551-1.07-.528-1.604-1.631-1.194-2.463.41-.831 1.611-1.078 2.68-.551 1.07.528 1.604 1.631 1.194 2.463ZM263.057 115.676c-.41.831-1.611 1.078-2.68.551-1.07-.528-1.604-1.631-1.194-2.463.41-.831 1.611-1.078 2.68-.551 1.07.528 1.604 1.631 1.194 2.463ZM257.825 123.229c-.665.646-1.879.477-2.71-.378-.831-.856-.965-2.074-.3-2.72.665-.646 1.879-.477 2.71.378.831.856.965 2.074.3 2.72ZM251.105 128.509c-.665.646-1.879.477-2.71-.378-.831-.856-.965-2.074-.3-2.72.665-.646 1.879-.477 2.71.378.831.856.965 2.074.3 2.72ZM242.225 133.549c-.665.646-1.879.477-2.71-.378-.831-.856-.965-2.074-.3-2.72.665-.646 1.879-.477 2.71.378.831.856.965 2.074.3 2.72Z" style="fill:#70453b"/>
    <path d="M162.363 79.228a3.894 3.894 0 0 1 3.892-3.892 3.894 3.894 0 0 1 3.893 3.892 3.895 3.895 0 0 1 5.47.616 3.896 3.896 0 0 1-.616 5.471 3.894 3.894 0 0 1 2.928 4.661 3.894 3.894 0 0 1-4.661 2.928 3.894 3.894 0 0 1-1.818 5.196 3.895 3.895 0 0 1-5.196-1.818 3.894 3.894 0 0 1-5.195 1.818 3.894 3.894 0 0 1-1.819-5.196 3.894 3.894 0 0 1-4.661-2.928 3.895 3.895 0 0 1 2.929-4.661 3.895 3.895 0 0 1-.616-5.471 3.895 3.895 0 0 1 5.47-.616Z" style="fill:#eadccc"/>
    <path d="M166.255 78.968c-4.604 0-8.343 3.738-8.343 8.343s3.739 8.343 8.343 8.343c4.605 0 8.344-3.738 8.344-8.343s-3.739-8.343-8.344-8.343Zm0 1a7.347 7.347 0 0 1 7.344 7.343 7.347 7.347 0 0 1-7.344 7.343 7.346 7.346 0 0 1-7.343-7.343 7.346 7.346 0 0 1 7.343-7.343Z" style="fill:#b9a493"/>
    <path d="M166.624 82.116c-.026-.857.014-1.733.048-2.59a.501.501 0 0 0-.999-.039c-.035.88-.075 1.779-.049 2.659a.501.501 0 0 0 1-.03ZM170.416 84.257c.574-.65.969-.916 1.715-1.401a.5.5 0 1 0-.544-.839c-.837.544-1.276.848-1.921 1.578a.5.5 0 0 0 .75.662ZM171.291 88.94c.858.088 1.669.299 2.495.544a.501.501 0 0 0 .284-.959c-.886-.262-1.756-.485-2.676-.58a.5.5 0 0 0-.103.995ZM168.229 91.986c.365.779.732 1.556 1.132 2.318a.5.5 0 0 0 .885-.465 54.385 54.385 0 0 1-1.111-2.277.5.5 0 1 0-.906.424ZM163.336 94.33c.274-.72.574-1.426.82-2.157a.5.5 0 1 0-.947-.319c-.242.718-.538 1.412-.808 2.12a.5.5 0 0 0 .935.356ZM159.032 89.362c.759-.378 1.558-.517 2.386-.637a.5.5 0 0 0-.144-.99c-.934.136-1.831.306-2.687.731a.501.501 0 0 0 .445.896ZM160.043 83.2c.757.397 1.405.97 2.131 1.419a.5.5 0 0 0 .526-.85c-.747-.462-1.415-1.047-2.193-1.455a.5.5 0 0 0-.464.886Z" style="fill:#b9a493"/>
    <circle cx="166.255" cy="87.311" r="5.443" style="fill:#c26a55;stroke:#c26a55;stroke-width:.24px"/>
    <path d="M167.494 83.932c.121.208.184.444.184.684 0 .749-.616 1.365-1.366 1.365a1.366 1.366 0 0 1-1.365-1.365 1.365 1.365 0 0 1 2.547-.684Zm-3.108 1.713a.824.824 0 0 1-.71 1.231.822.822 0 0 1-.71-.409.826.826 0 0 1 .733-1.193c.277 0 .536.14.687.371Zm5.348-.569a.82.82 0 1 1-1.419.822.82.82 0 0 1 1.419-.822Zm-1.869 5.496a.815.815 0 0 1 .132.444c0 .45-.37.82-.82.82a.822.822 0 0 1-.819-.82.817.817 0 0 1 1.507-.444Zm2.016-3.059c.121.208.184.444.184.684 0 .749-.617 1.366-1.366 1.366a1.368 1.368 0 0 1-1.365-1.366c0-.749.616-1.365 1.365-1.365.487 0 .939.26 1.182.681Zm-4.4.97a1.377 1.377 0 0 1-.499 1.866c-.207.12-.443.183-.683.183a1.371 1.371 0 0 1-1.365-1.365c0-.749.616-1.366 1.365-1.366.487 0 .938.261 1.182.682Z" style="fill:#e9d0bc"/>
    <path d="M83.175 103.104c1.858 4.122 2.317 9.092 2.063 14.25-.389 7.926-2.471 16.292-3.989 22.838a1 1 0 0 0 1.948.452c1.541-6.647 3.643-15.143 4.039-23.192.27-5.493-.258-10.78-2.238-15.17a.999.999 0 1 0-1.823.822Z" style="fill:#70453b"/>
    <path d="M73.754 86.045c-2.081-1.961-3.176-4.804-3.854-7.525-.484-1.944-.683-3.966-.715-5.968-.015-.973.013-1.962.216-2.917.682-3.203 3.264-3.972 5.78-2.101 2.383 1.771 3.583 4.351 4.056 7.215.514 3.121.065 6.266.302 9.395l-5.785 1.901Z" style="fill:#eadccc"/>
    <clipPath id="c">
        <path d="M73.754 86.045c-2.081-1.961-3.176-4.804-3.854-7.525-.484-1.944-.683-3.966-.715-5.968-.015-.973.013-1.962.216-2.917.682-3.203 3.264-3.972 5.78-2.101 2.383 1.771 3.583 4.351 4.056 7.215.514 3.121.065 6.266.302 9.395l-5.785 1.901Z"/>
    </clipPath>
    <g clip-path="url(#c)">
        <path d="M77.519 82.117c.038.332.076.664.116.996a.5.5 0 0 0 .993-.12c-.04-.33-.078-.66-.116-.991a.499.499 0 1 0-.993.115Zm-.415-2.936.057.315c.039.218.074.436.107.654a.5.5 0 0 0 .989-.149 26.016 26.016 0 0 0-.111-.68l-.059-.323a.501.501 0 0 0-.983.183Zm-.651-2.888c.085.32.166.639.241.956a.5.5 0 1 0 .973-.232 41.518 41.518 0 0 0-.248-.982.5.5 0 1 0-.966.258Zm-.892-2.814c.114.308.223.617.327.927a.5.5 0 1 0 .948-.316 30.287 30.287 0 0 0-.337-.959.5.5 0 0 0-.938.348Zm-1.177-2.692c.148.289.291.583.427.879a.502.502 0 0 0 .664.246.502.502 0 0 0 .245-.664c-.143-.31-.292-.616-.447-.918a.5.5 0 1 0-.889.457Zm-1.523-2.491c.191.26.374.528.55.801a.5.5 0 0 0 .84-.543c-.187-.289-.38-.571-.581-.847a.5.5 0 0 0-.809.589Zm-1.922-2.164c.237.216.466.441.688.675a.5.5 0 0 0 .725-.688 14.051 14.051 0 0 0-.739-.726.5.5 0 0 0-.674.739Z" style="fill:#b9a493"/>
    </g>
    <path d="M64.011 86.46c-1.554-2.424-2.538-5.254-3.279-8.023-.376-1.408-.826-3.007-.599-4.484.478-3.1 3.475-4.917 6.204-2.728 2.512 2.013 6.662 13.514 6.662 13.514-2.869.954-5.265 3.331-8.988 1.721Z" style="fill:#eadccc"/>
    <clipPath id="d">
        <path d="M64.011 86.46c-1.554-2.424-2.538-5.254-3.279-8.023-.376-1.408-.826-3.007-.599-4.484.478-3.1 3.475-4.917 6.204-2.728 2.512 2.013 6.662 13.514 6.662 13.514-2.869.954-5.265 3.331-8.988 1.721Z"/>
    </clipPath>
    <g clip-path="url(#d)">
        <path d="M69.937 86.658c.084.319.165.639.243.96a.5.5 0 1 0 .971-.236 56.055 56.055 0 0 0-.247-.979.5.5 0 1 0-.967.255Zm-.836-2.853c.101.315.2.63.296.946a.5.5 0 1 0 .957-.29 66.796 66.796 0 0 0-.301-.962.5.5 0 0 0-.952.306Zm-.985-2.806c.117.309.232.619.344.93a.5.5 0 0 0 .941-.339 67.34 67.34 0 0 0-.35-.946.5.5 0 0 0-.935.355Zm-1.121-2.758c.132.304.261.609.388.914a.5.5 0 0 0 .923-.384c-.128-.31-.26-.619-.393-.927a.5.5 0 0 0-.918.397Zm-1.238-2.706c.144.295.285.593.425.893a.5.5 0 1 0 .907-.42 51.13 51.13 0 0 0-.434-.913.5.5 0 1 0-.898.44Zm-1.425-2.573c.176.274.344.553.507.835a.5.5 0 1 0 .866-.5c-.17-.296-.347-.587-.531-.875a.5.5 0 0 0-.842.54Zm-1.775-2.299c.223.237.435.48.638.727a.5.5 0 0 0 .773-.634 15.446 15.446 0 0 0-.681-.777.5.5 0 0 0-.73.684Z" style="fill:#b9a493"/>
    </g>
    <path d="M80.35 84.981c-1.068-2.184-3.109-13.327-1.787-16.621 1.59-3.96 5.21-3.621 6.691-1.095 3.354 5.719 4.057 9.86 3.669 16.196l-8.573 1.52Z" style="fill:#eadccc"/>
    <clipPath id="e">
        <path d="M80.35 84.981c-1.068-2.184-3.109-13.327-1.787-16.621 1.59-3.96 5.21-3.621 6.691-1.095 3.354 5.719 4.057 9.86 3.669 16.196l-8.573 1.52Z"/>
    </clipPath>
    <g clip-path="url(#e)">
        <path d="M85.901 81.689c.026.341.059.682.103 1.021a.5.5 0 0 0 .992-.128 18.587 18.587 0 0 1-.098-.969.5.5 0 0 0-.997.076Zm-.162-3c.022.329.039.658.054.988a.5.5 0 0 0 .999-.046 42.322 42.322 0 0 0-.055-1.009.501.501 0 0 0-.998.067Zm-.386-2.916c.06.325.115.649.166.973a.5.5 0 1 0 .988-.154 38.582 38.582 0 0 0-.17-.999.501.501 0 0 0-.984.18Zm-.645-2.889c.084.318.164.638.24.957a.5.5 0 0 0 .973-.23c-.078-.328-.16-.656-.246-.983a.5.5 0 0 0-.967.256Zm-.872-2.827c.11.31.215.621.316.934a.5.5 0 1 0 .952-.308 37.385 37.385 0 0 0-.326-.96.5.5 0 0 0-.942.334Zm-1.108-2.739c.136.298.269.599.396.902a.5.5 0 0 0 .922-.389 33.503 33.503 0 0 0-.409-.929.5.5 0 1 0-.909.416Zm-1.361-2.615c.166.282.327.567.483.856a.5.5 0 0 0 .88-.477 28.424 28.424 0 0 0-.501-.886.5.5 0 1 0-.862.507Z" style="fill:#b9a493"/>
    </g>
    <path d="M79.898 103.097c.215.856 1.469 5.086 5.778 3.97 3.725-.964 2.68-5.123 1.987-6.322l-7.765 2.352Z" style="fill:#70453b"/>
    <path d="m63.382 85.609 25.744-5.997s3.492 6.489 2.711 14.653c-.389 4.077-4.577 9.175-8.499 10.027-1.314.286-10.63 1.693-16.327-8.383-1.782-3.15-3.179-6.699-3.629-10.3Z" style="fill:#c26a55"/>
    <clipPath id="f">
        <path d="m63.382 85.609 25.744-5.997s3.492 6.489 2.711 14.653c-.389 4.077-4.577 9.175-8.499 10.027-1.314.286-10.63 1.693-16.327-8.383-1.782-3.15-3.179-6.699-3.629-10.3Z"/>
    </clipPath>
    <g clip-path="url(#f)">
        <path d="m94.101 85.346-31.518 7.435 2.436 8.833 29.118-8.875-.036-7.393Z" style="fill:#b25a45"/>
        <clipPath id="g">
            <path d="m94.101 85.346-31.518 7.435 2.436 8.833 29.118-8.875-.036-7.393Z"/>
        </clipPath>
        <g clip-path="url(#g)">
            <path d="M61.707 92.252a1.2 1.2 0 1 1 .602 2.325 1.2 1.2 0 0 1-.602-2.325ZM62.973 97.131a1.2 1.2 0 1 1 .603 2.323 1.2 1.2 0 0 1-.603-2.323ZM64.926 94.145a1.2 1.2 0 1 1 .602 2.324 1.2 1.2 0 0 1-.602-2.324ZM66.192 99.023a1.201 1.201 0 0 1 1.463.86 1.201 1.201 0 0 1-2.324.603 1.201 1.201 0 0 1 .861-1.463ZM67.05 90.866a1.2 1.2 0 1 1 .602 2.325 1.2 1.2 0 0 1-.602-2.325ZM68.316 95.744a1.2 1.2 0 1 1 .602 2.325 1.2 1.2 0 0 1-.602-2.325ZM70.269 92.758a1.201 1.201 0 0 1 .603 2.323 1.2 1.2 0 1 1-.603-2.323ZM71.535 97.637a1.2 1.2 0 1 1 .602 2.324 1.2 1.2 0 0 1-.602-2.324ZM72.393 89.48a1.2 1.2 0 1 1 .603 2.323 1.2 1.2 0 0 1-.603-2.323ZM73.659 94.358a1.2 1.2 0 1 1 .602 2.325 1.2 1.2 0 0 1-.602-2.325ZM75.612 91.372a1.2 1.2 0 1 1 .602 2.324 1.2 1.2 0 0 1-.602-2.324ZM76.878 96.25a1.2 1.2 0 1 1 .601 2.322 1.2 1.2 0 0 1-.601-2.322ZM77.736 88.093a1.2 1.2 0 1 1 .603 2.324 1.2 1.2 0 0 1-.603-2.324ZM79.002 92.972a1.2 1.2 0 1 1 .603 2.323 1.2 1.2 0 0 1-.603-2.323ZM80.955 89.985a1.201 1.201 0 0 1 .603 2.323 1.2 1.2 0 1 1-.603-2.323ZM82.221 94.864a1.2 1.2 0 1 1 .602 2.324 1.2 1.2 0 0 1-.602-2.324ZM83.08 86.707a1.199 1.199 0 1 1 .603 2.32 1.199 1.199 0 0 1-.603-2.32ZM84.345 91.585a1.2 1.2 0 1 1 .602 2.325 1.2 1.2 0 0 1-.602-2.325ZM86.298 88.599a1.2 1.2 0 1 1 .602 2.325 1.2 1.2 0 0 1-.602-2.325ZM87.564 93.477a1.201 1.201 0 0 1 .603 2.323 1.2 1.2 0 1 1-.603-2.323ZM88.423 85.32a1.2 1.2 0 1 1 .602 2.323 1.2 1.2 0 0 1-.602-2.323ZM89.688 90.199a1.2 1.2 0 1 1 .603 2.323 1.2 1.2 0 0 1-.603-2.323ZM91.641 87.213a1.2 1.2 0 1 1 .603 2.323 1.2 1.2 0 0 1-.603-2.323ZM92.907 92.091a1.201 1.201 0 0 1 .603 2.323 1.2 1.2 0 0 1-.603-2.323ZM93.766 83.934a1.2 1.2 0 1 1 .602 2.324 1.2 1.2 0 0 1-.602-2.324ZM95.031 88.812a1.2 1.2 0 1 1 .603 2.324 1.2 1.2 0 0 1-.603-2.324ZM96.984 85.826a1.2 1.2 0 1 1 .602 2.325 1.2 1.2 0 0 1-.602-2.325ZM98.25 90.705a1.2 1.2 0 1 1 .603 2.323 1.2 1.2 0 0 1-.603-2.323Z" style="fill:#eadccc"/>
        </g>
        <path d="m63.45 107.622 1.771-3.036a1.838 1.838 0 0 1 2.518-.663l.939.547a2.84 2.84 0 0 0 3.886-1.023l.546-.936a1.84 1.84 0 0 1 2.519-.663l.817.477a2.841 2.841 0 0 0 3.886-1.023l.425-.728a1.842 1.842 0 0 1 2.519-.664l.927.541a2.84 2.84 0 0 0 3.886-1.023l.723-1.24a1.84 1.84 0 0 1 2.518-.663l1.235.72a2.84 2.84 0 0 0 3.886-1.023l.445-.763a1.842 1.842 0 0 1 2.519-.663l2.737 1.596a.5.5 0 0 0 .504-.863l-2.737-1.597a2.844 2.844 0 0 0-3.887 1.023l-.445.763a1.84 1.84 0 0 1-2.518.663l-1.235-.72a2.84 2.84 0 0 0-3.886 1.023l-.723 1.24a1.841 1.841 0 0 1-2.519.663l-.927-.54a2.84 2.84 0 0 0-3.886 1.023l-.424.728a1.842 1.842 0 0 1-2.519.663l-.818-.477a2.844 2.844 0 0 0-3.886 1.023l-.546.937a1.845 1.845 0 0 1-2.518.663l-.939-.548a2.84 2.84 0 0 0-3.886 1.023l-1.771 3.037a.5.5 0 0 0 .864.503Z" style="fill:#eadccc"/>
        <path d="m62.755 88.087 28.56-6.72a.501.501 0 0 0-.23-.974l-28.56 6.72a.501.501 0 0 0 .23.974Z" style="fill:#b25a45"/>
    </g>
    <path d="M71.251 145.24c1.999-14.927-.867-28.684-6.65-36.512-4.208-5.696-8.23-7.391-12.766-12.808-5.526-6.601-8.257-16.817-7.838-25.376.537-10.944 7.04-20.431 15.505-27.078 2.579-2.026 6.133-3.793 9.157-5.976 3.146-2.269 5.715-4.988 6.196-8.815a.5.5 0 0 0-.992-.124c-.446 3.544-2.875 6.026-5.789 8.129-3.035 2.19-6.601 3.966-9.19 5.999-8.689 6.824-15.334 16.581-15.885 27.816-.432 8.794 2.392 19.285 8.07 26.067 4.52 5.399 8.534 7.083 12.727 12.76 5.667 7.67 8.423 21.159 6.464 35.785a.499.499 0 1 0 .991.133Z" style="fill:#70453b"/>
    <path d="M46.831 86.237c.201-3.791 1.764-7.619 3.896-10.73a.501.501 0 0 0-.825-.566c-2.233 3.259-3.859 7.272-4.07 11.243a.5.5 0 1 0 .999.053ZM43.919 69.713c-1.509-2.514-3.552-5.001-5.842-6.86a.5.5 0 1 0-.63.776c2.202 1.788 4.163 4.182 5.615 6.599a.5.5 0 1 0 .857-.515ZM48.927 55.354c3.867-1.899 6.806-2.924 9.47-2.163a.5.5 0 0 0 .275-.962c-2.86-.817-6.035.189-10.186 2.227a.5.5 0 0 0 .441.898ZM59.552 43.071c.82-2.934 1.371-6.623.695-9.65a.5.5 0 0 0-.976.218c.642 2.875.097 6.376-.682 9.163a.5.5 0 1 0 .963.269ZM69.65 36.806c2.012-.118 4.088.017 5.891.997a.5.5 0 0 0 .478-.878c-1.969-1.071-4.23-1.246-6.427-1.118a.5.5 0 0 0 .058.999ZM51.953 95.999c-2.466-1.238-6.07-.553-8.643.054a.5.5 0 1 0 .229.973c2.372-.559 5.692-1.274 7.965-.133a.5.5 0 0 0 .449-.894ZM62.534 104.316c-.884-3.073-1.415-6.355-.649-9.514a.5.5 0 0 0-.972-.236c-.806 3.329-.271 6.789.66 10.027a.5.5 0 1 0 .961-.277ZM71.709 127.572c.475-3.404 3.076-7.549 6.051-9.45a.5.5 0 1 0-.538-.842c-3.197 2.042-5.994 6.496-6.503 10.154a.5.5 0 0 0 .99.138ZM71.213 137.364c-4.14-3.009-5.485-4.441-9.997-4.849a.5.5 0 0 0-.09.996c4.297.388 5.556 1.796 9.499 4.662a.5.5 0 0 0 .588-.809Z" style="fill:#70453b"/>
    <circle cx="59.52" cy="32.88" r="1.44" style="fill:#70453b"/>
    <circle cx="76.8" cy="37.68" r="1.44" style="fill:#70453b"/>
    <circle cx="59.28" cy="52.56" r="1.44" style="fill:#70453b"/>
    <circle cx="37.2" cy="62.64" r="1.44" style="fill:#70453b"/>
    <circle cx="51.12" cy="74.64" r="1.44" style="fill:#70453b"/>
    <circle cx="42.96" cy="96.72" r="1.44" style="fill:#70453b"/>
    <circle cx="61.68" cy="94.32" r="1.44" style="fill:#70453b"/>
    <circle cx="78.24" cy="117.36" r="1.44" style="fill:#70453b"/>
    <circle cx="60.48" cy="132.96" r="1.44" style="fill:#70453b"/>
    <path d="M52.141 92.396c.378-.786.911-1.39 1.346-2.239.367-.718.78-1.426 1.068-2.224.419-1.163.588-2.396.983-3.597.414-1.255.737-2.447 1.286-3.612.862-1.831 1.767-3.411 3.1-4.702a.41.41 0 0 0-.419-.704c-2.77.882-5.158 2.671-7.415 4.988-.929.954-1.707 1.966-2.449 3.076-.411.613-.783 1.236-1.062 1.907a9.518 9.518 0 0 0-.589 2.098c-.1.604-.165 1.172-.149 1.763.025.989.118 1.797.288 2.694a2.026 2.026 0 0 0 4.012.552Z" style="fill:#8c633f"/>
    <clipPath id="h">
        <path d="M52.141 92.396c.378-.786.911-1.39 1.346-2.239.367-.718.78-1.426 1.068-2.224.419-1.163.588-2.396.983-3.597.414-1.255.737-2.447 1.286-3.612.862-1.831 1.767-3.411 3.1-4.702a.41.41 0 0 0-.419-.704c-2.77.882-5.158 2.671-7.415 4.988-.929.954-1.707 1.966-2.449 3.076-.411.613-.783 1.236-1.062 1.907a9.518 9.518 0 0 0-.589 2.098c-.1.604-.165 1.172-.149 1.763.025.989.118 1.797.288 2.694a2.026 2.026 0 0 0 4.012.552Z"/>
    </clipPath>
    <g clip-path="url(#h)">
        <path d="M50.151 95.068c.469-3.411 2.082-8.483 4.416-12.661 1.53-2.738 3.363-5.096 5.403-6.307a.5.5 0 0 0-.511-.86c-2.167 1.287-4.14 3.77-5.765 6.679-2.399 4.294-4.052 9.508-4.534 13.013a.5.5 0 1 0 .991.136Z" style="fill:#bb9370"/>
    </g>
    <path d="M44.853 79.841a12.353 12.353 0 0 0-1.094-1.951c-.295-.438-.638-.767-1.01-1.109a6.2 6.2 0 0 0-1.579-1.059 6.868 6.868 0 0 0-1.867-.556c-1.194-.186-2.288-.299-3.479-.131-2.345.33-4.454 1.03-6.871 2.559a.41.41 0 1 0 .227.787c1.733.017 3.089.285 4.525.664.972.257 1.71.731 2.576 1.157.768.378 1.338 1.006 2.128 1.438.513.28 1.082.419 1.668.64.681.258 1.296.264 2.034.542a2.026 2.026 0 0 0 2.742-2.981Z" style="fill:#8c633f"/>
    <clipPath id="i">
        <path d="M44.853 79.841a12.353 12.353 0 0 0-1.094-1.951c-.295-.438-.638-.767-1.01-1.109a6.2 6.2 0 0 0-1.579-1.059 6.868 6.868 0 0 0-1.867-.556c-1.194-.186-2.288-.299-3.479-.131-2.345.33-4.454 1.03-6.871 2.559a.41.41 0 1 0 .227.787c1.733.017 3.089.285 4.525.664.972.257 1.71.731 2.576 1.157.768.378 1.338 1.006 2.128 1.438.513.28 1.082.419 1.668.64.681.258 1.296.264 2.034.542a2.026 2.026 0 0 0 2.742-2.981Z"/>
    </clipPath>
    <g clip-path="url(#i)">
        <path d="M46.221 82.884c-.284-.261-2.982-2.442-3.266-2.677-4.226-3.496-8.571-4.274-14.027-2.7a.5.5 0 0 0 .277.961c5.1-1.471 9.163-.758 13.112 2.51.281.232 2.947 2.384 3.227 2.642a.5.5 0 0 0 .677-.736Z" style="fill:#bb9370"/>
    </g>
    <path d="M48.031 62.046c.78.021 1.436.25 2.29.275.699.021 1.402.086 2.126-.01 1.052-.139 2.031-.549 3.088-.732 1.117-.194 2.116-.466 3.207-.488 1.73-.036 3.246.057 4.71.764a.41.41 0 0 0 .538-.618c-1.725-2.539-4.487-3.929-7.731-4.895-.768-.228-1.513-.348-2.311-.456-.651-.089-1.293-.142-1.942-.091a7.583 7.583 0 0 0-1.884.401c-.514.177-.978.361-1.429.629-.766.454-1.329.859-1.96 1.384a2.026 2.026 0 0 0 1.298 3.837Z" style="fill:#8c633f"/>
    <clipPath id="j">
        <path d="M48.031 62.046c.78.021 1.436.25 2.29.275.699.021 1.402.086 2.126-.01 1.052-.139 2.031-.549 3.088-.732 1.117-.194 2.116-.466 3.207-.488 1.73-.036 3.246.057 4.71.764a.41.41 0 0 0 .538-.618c-1.725-2.539-4.487-3.929-7.731-4.895-.768-.228-1.513-.348-2.311-.456-.651-.089-1.293-.142-1.942-.091a7.583 7.583 0 0 0-1.884.401c-.514.177-.978.361-1.429.629-.766.454-1.329.859-1.96 1.384a2.026 2.026 0 0 0 1.298 3.837Z"/>
    </clipPath>
    <g clip-path="url(#j)">
        <path d="M44.662 61.321c2.875-.972 7.672-1.781 11.912-1.522 2.749.167 5.265.772 6.819 2.124a.5.5 0 1 0 .657-.754c-1.694-1.474-4.419-2.186-7.415-2.368-4.376-.267-9.326.57-12.293 1.573a.5.5 0 1 0 .32.947Z" style="fill:#bb9370"/>
    </g>
    <path d="M55.014 46.278c.242-.7.445-1.216.611-1.932.104-.447.144-.86.159-1.314a6.39 6.39 0 0 0-.15-1.653c-.133-.569-.355-1.089-.609-1.606-.324-.659-.623-1.258-1.046-1.847-1.642-2.277-3.393-4.062-6.348-5.136a.41.41 0 0 0-.49.657c1.767 2.354 1.909 4.674 2.052 7.321.034.634-.041 1.25.05 1.891.06.424.197.833.331 1.246.122.377.282.699.455 1.059.298.62.619 1.033.948 1.642a2.026 2.026 0 0 0 4.037-.328Z" style="fill:#8c633f"/>
    <clipPath id="k">
        <path d="M55.014 46.278c.242-.7.445-1.216.611-1.932.104-.447.144-.86.159-1.314a6.39 6.39 0 0 0-.15-1.653c-.133-.569-.355-1.089-.609-1.606-.324-.659-.623-1.258-1.046-1.847-1.642-2.277-3.393-4.062-6.348-5.136a.41.41 0 0 0-.49.657c1.767 2.354 1.909 4.674 2.052 7.321.034.634-.041 1.25.05 1.891.06.424.197.833.331 1.246.122.377.282.699.455 1.059.298.62.619 1.033.948 1.642a2.026 2.026 0 0 0 4.037-.328Z"/>
    </clipPath>
    <g clip-path="url(#k)">
        <path d="M54.214 49.041c-.253-3.107-.929-7.132-2.381-10.567-.989-2.342-2.342-4.41-4.148-5.757a.5.5 0 0 0-.598.802c1.673 1.248 2.908 3.175 3.825 5.344 1.409 3.334 2.06 7.243 2.305 10.259a.5.5 0 0 0 .997-.081Z" style="fill:#bb9370"/>
    </g>
    <path d="M64.805 42.625c.471.602.718 1.06 1.219 1.61.172.189.329.351.53.504.276.209.555.414.869.55.767.331 1.536.389 2.327.615 1.98.565 3.64.883 5.556 2.045a.409.409 0 1 0 .64-.511c-.686-2.08-1.55-3.5-2.727-5.133-.518-.718-1.042-1.275-1.677-1.9-.327-.322-.651-.623-1.049-.861a4.704 4.704 0 0 0-1.217-.493 4.818 4.818 0 0 0-1.058-.163c-.633-.029-1.044.036-1.691.071a2.027 2.027 0 0 0-2.694.971 2.027 2.027 0 0 0 .972 2.695Z" style="fill:#8c633f"/>
    <clipPath id="l">
        <path d="M64.805 42.625c.471.602.718 1.06 1.219 1.61.172.189.329.351.53.504.276.209.555.414.869.55.767.331 1.536.389 2.327.615 1.98.565 3.64.883 5.556 2.045a.409.409 0 1 0 .64-.511c-.686-2.08-1.55-3.5-2.727-5.133-.518-.718-1.042-1.275-1.677-1.9-.327-.322-.651-.623-1.049-.861a4.704 4.704 0 0 0-1.217-.493 4.818 4.818 0 0 0-1.058-.163c-.633-.029-1.044.036-1.691.071a2.027 2.027 0 0 0-2.694.971 2.027 2.027 0 0 0 .972 2.695Z"/>
    </clipPath>
    <g clip-path="url(#l)">
        <path d="M63.053 39.804c3.786 1.78 9.524 4.871 12.182 8.201a.5.5 0 0 0 .782-.623c-2.74-3.433-8.636-6.649-12.538-8.483a.5.5 0 0 0-.426.905Z" style="fill:#bb9370"/>
    </g>
    <path d="M74.57 32.239a9.286 9.286 0 0 0 1.083-1.424c.221-.345.332-.678.456-1.065a4.21 4.21 0 0 0 .203-1.419 5.027 5.027 0 0 0-.277-1.439c-.198-.594-.348-1.118-.655-1.659-1.161-2.054-2.343-3.629-4.558-4.882a.41.41 0 0 0-.631.523c.373 1.154.381 2.077.411 3.21.021.78-.201 1.398-.301 2.166-.09.69-.429 1.264-.502 1.966-.029.278.015.557.044.838.021.212.096.386.151.593.169.643.466 1.008.634 1.662a2.026 2.026 0 0 0 3.942.93Z" style="fill:#8c633f"/>
    <clipPath id="m">
        <path d="M74.57 32.239a9.286 9.286 0 0 0 1.083-1.424c.221-.345.332-.678.456-1.065a4.21 4.21 0 0 0 .203-1.419 5.027 5.027 0 0 0-.277-1.439c-.198-.594-.348-1.118-.655-1.659-1.161-2.054-2.343-3.629-4.558-4.882a.41.41 0 0 0-.631.523c.373 1.154.381 2.077.411 3.21.021.78-.201 1.398-.301 2.166-.09.69-.429 1.264-.502 1.966-.029.278.015.557.044.838.021.212.096.386.151.593.169.643.466 1.008.634 1.662a2.026 2.026 0 0 0 3.942.93Z"/>
    </clipPath>
    <g clip-path="url(#m)">
        <path d="M72.846 34.289c.569-2.41.748-5.748.215-8.74-.364-2.039-1.061-3.917-2.17-5.255a.5.5 0 1 0-.77.638c1.009 1.218 1.625 2.936 1.955 4.793.509 2.853.339 6.036-.203 8.334a.5.5 0 1 0 .973.23Z" style="fill:#bb9370"/>
    </g>
    <path d="M59.424 101.897a16.89 16.89 0 0 0-2.892-1.865c-.68-.352-1.388-.597-2.133-.815a12.344 12.344 0 0 0-2.785-.482c-.934-.05-1.867.024-2.802.16-1.657.239-3.252.612-4.833 1.189-3.627 1.323-6.852 3.234-9.464 5.841a.41.41 0 1 0 .466.674c2.896-1.309 6.051-1.863 9.374-1.957.935-.026 1.833.049 2.768.095 1.355.066 2.656.337 3.985.492.651.077 1.302.101 1.948.152.443.035.874.031 1.314.05 1.189.05 2.27-.032 3.414.169a2.027 2.027 0 0 0 2.672-1.031 2.027 2.027 0 0 0-1.032-2.672Z" style="fill:#8c633f"/>
    <clipPath id="n">
        <path d="M59.424 101.897a16.89 16.89 0 0 0-2.892-1.865c-.68-.352-1.388-.597-2.133-.815a12.344 12.344 0 0 0-2.785-.482c-.934-.05-1.867.024-2.802.16-1.657.239-3.252.612-4.833 1.189-3.627 1.323-6.852 3.234-9.464 5.841a.41.41 0 1 0 .466.674c2.896-1.309 6.051-1.863 9.374-1.957.935-.026 1.833.049 2.768.095 1.355.066 2.656.337 3.985.492.651.077 1.302.101 1.948.152.443.035.874.031 1.314.05 1.189.05 2.27-.032 3.414.169a2.027 2.027 0 0 0 2.672-1.031 2.027 2.027 0 0 0-1.032-2.672Z"/>
    </clipPath>
    <g clip-path="url(#n)">
        <path d="M58.807 103.291c-7.453-3.301-17.535-2.146-24.343 2.56a.5.5 0 1 0 .568.822c6.537-4.518 16.215-5.637 23.37-2.467a.5.5 0 0 0 .405-.915Z" style="fill:#bb9370"/>
    </g>
    <path d="M70.012 115.321c.32-.867.641-1.57.904-2.495.092-.325.163-.636.209-.974.063-.473.118-.953.094-1.434-.056-1.121-.344-2.168-.5-3.282-.383-2.736-.789-5.177-.188-7.802a.408.408 0 1 0-.722-.386c-2.521 2.718-3.901 5.952-4.816 9.653-.143.576-.259 1.144-.288 1.734a8.254 8.254 0 0 0 .116 1.708c.076.47.185.892.332 1.337.243.734.528 1.268.809 1.962a2.026 2.026 0 0 0 4.05-.021Z" style="fill:#8c633f"/>
    <clipPath id="o">
        <path d="M70.012 115.321c.32-.867.641-1.57.904-2.495.092-.325.163-.636.209-.974.063-.473.118-.953.094-1.434-.056-1.121-.344-2.168-.5-3.282-.383-2.736-.789-5.177-.188-7.802a.408.408 0 1 0-.722-.386c-2.521 2.718-3.901 5.952-4.816 9.653-.143.576-.259 1.144-.288 1.734a8.254 8.254 0 0 0 .116 1.708c.076.47.185.892.332 1.337.243.734.528 1.268.809 1.962a2.026 2.026 0 0 0 4.05-.021Z"/>
    </clipPath>
    <g clip-path="url(#o)">
        <path d="M68.487 118.689c-.026-5.207-.412-14.565 2.124-19.312a.5.5 0 0 0-.882-.471c-2.6 4.866-2.269 14.45-2.242 19.788a.5.5 0 0 0 1-.005Z" style="fill:#bb9370"/>
    </g>
    <path d="M68.521 121.817c-.724-.522-1.378-.788-2.229-1.137-.328-.135-.648-.192-1.002-.257-.709-.132-1.45-.183-2.186-.074-1.197.177-2.295.661-3.424 1.194-2.582 1.219-4.7 2.713-6.971 3.834a.41.41 0 1 0 .144.806c2.499.263 5.047.373 7.877.475 1.04.037 2.01.206 3.018.173.395-.013.779-.098 1.159-.165.266-.046.496-.143.751-.214.728-.203 1.223-.582 1.943-.69a2.025 2.025 0 0 0 .92-3.945Z" style="fill:#8c633f"/>
    <clipPath id="p">
        <path d="M68.521 121.817c-.724-.522-1.378-.788-2.229-1.137-.328-.135-.648-.192-1.002-.257-.709-.132-1.45-.183-2.186-.074-1.197.177-2.295.661-3.424 1.194-2.582 1.219-4.7 2.713-6.971 3.834a.41.41 0 1 0 .144.806c2.499.263 5.047.373 7.877.475 1.04.037 2.01.206 3.018.173.395-.013.779-.098 1.159-.165.266-.046.496-.143.751-.214.728-.203 1.223-.582 1.943-.69a2.025 2.025 0 0 0 .92-3.945Z"/>
    </clipPath>
    <g clip-path="url(#p)">
        <path d="M70.575 123.783c-4.768-1.112-13.117.654-17.882 1.505a.5.5 0 1 0 .176.984c4.658-.832 12.817-2.603 17.479-1.515a.5.5 0 0 0 .227-.974Z" style="fill:#bb9370"/>
    </g>
    <path d="M27.49 84.087c1.906 2.419 2.746 4.568 2.842 6.557.146 2.994-1.383 5.602-3.346 8.174-1.703 2.232-3.74 4.431-5.396 6.797-1.705 2.435-3.008 5.047-3.193 8.03-.235 3.795 1.69 6.119 4.256 8.011 2.415 1.781 5.415 3.163 7.52 5.158 1.616 1.532 2.066 3.577 2.515 5.652.488 2.257.969 4.549 2.619 6.391 2.199 2.456 5.333 3.654 8.659 4.53 3.205.844 6.585 1.392 9.404 2.586a.5.5 0 0 0 .391-.92c-2.861-1.212-6.289-1.776-9.54-2.633-3.131-.825-6.099-1.918-8.17-4.23-1.527-1.706-1.934-3.845-2.386-5.936-.491-2.272-1.034-4.489-2.804-6.166-2.133-2.021-5.167-3.432-7.614-5.237-2.296-1.693-4.062-3.749-3.852-7.144.174-2.796 1.416-5.236 3.014-7.519 1.649-2.354 3.677-4.542 5.372-6.763 2.115-2.772 3.707-5.603 3.55-8.829-.105-2.158-.987-4.503-3.055-7.128a.5.5 0 0 0-.786.619Z" style="fill:#70453b"/>
    <path d="M30.051 83.042c.411.831-.122 1.935-1.191 2.464-1.068.528-2.27.283-2.681-.548-.411-.831.123-1.935 1.191-2.464 1.069-.528 2.27-.283 2.681.548ZM32.914 91.366c.032.927-.91 1.712-2.101 1.753-1.192.041-2.185-.678-2.217-1.605-.031-.927.91-1.712 2.101-1.753 1.192-.041 2.185.678 2.217 1.605ZM29.704 99.79c-.494.785-1.714.907-2.723.272-1.009-.634-1.428-1.787-.935-2.572.494-.785 1.714-.907 2.723-.272 1.009.634 1.428 1.787.935 2.572ZM24.904 105.79c-.494.785-1.714.907-2.723.272-1.009-.634-1.428-1.787-.935-2.572.494-.785 1.714-.907 2.723-.272 1.009.634 1.428 1.787.935 2.572ZM21.317 112.414c-.246.894-1.379 1.362-2.529 1.046-1.149-.317-1.882-1.3-1.635-2.194.246-.894 1.379-1.362 2.529-1.046 1.149.317 1.882 1.3 1.635 2.194ZM22.306 117.72c.463.803.001 1.939-1.031 2.535-1.033.596-2.247.428-2.711-.375-.463-.803-.001-1.939 1.031-2.535 1.033-.596 2.247-.428 2.711.375ZM26.93 121.574c.767.522.845 1.745.174 2.731-.67.986-1.837 1.362-2.604.841-.766-.522-.845-1.745-.174-2.731.67-.986 1.837-1.362 2.604-.841ZM34.094 128.091c.442.816-.051 1.939-1.099 2.506-1.048.568-2.258.367-2.699-.448-.442-.816.051-1.939 1.099-2.506 1.048-.568 2.258-.367 2.699.448ZM36.014 135.051c.442.816-.051 1.939-1.099 2.506-1.048.568-2.258.367-2.699-.448-.442-.816.051-1.939 1.099-2.506 1.048-.568 2.258-.367 2.699.448ZM40.284 139.392c.845.381 1.133 1.573.642 2.66-.491 1.086-1.575 1.658-2.42 1.276-.845-.381-1.133-1.573-.642-2.66.491-1.086 1.575-1.658 2.42-1.276ZM47.004 141.552c.845.381 1.133 1.573.642 2.66-.491 1.086-1.575 1.658-2.42 1.276-.845-.381-1.133-1.573-.642-2.66.491-1.086 1.575-1.658 2.42-1.276Z" style="fill:#70453b"/>
    <path d="M52.541 145.774c.132-2.907-.46-5.999-2.298-8.332-3.481-4.419-10.591-4.683-14.834-1.223-2.835 2.311-4.143 6.287-4.284 9.846l21.416-.291Z" style="fill:#70453b"/>
    <path d="M39.024 138.426c-1.215.569-1.974 2.006-.312 2.445 1.653.436 5.066-1.149 3.621-3.247-1.367-1.985-5.083-.611-6.181.918-.496.692-.951 1.835-.459 2.659" style="fill:#70453b"/>
    <path d="M38.812 137.973c-.525.246-.975.63-1.248 1.041-.216.325-.323.671-.309.992.023.545.365 1.093 1.329 1.348.94.248 2.384-.058 3.383-.744.654-.449 1.112-1.056 1.199-1.737.06-.473-.048-.991-.421-1.532-.65-.944-1.734-1.28-2.9-1.19-1.62.125-3.374 1.09-4.099 2.099-.341.476-.66 1.139-.743 1.796-.062.494.006.985.261 1.411a.5.5 0 1 0 .858-.513c-.179-.3-.167-.659-.084-1.005.099-.411.306-.806.521-1.105.592-.825 2.04-1.584 3.363-1.686.795-.062 1.556.116 2 .76.205.298.285.578.252.838-.053.418-.372.764-.773 1.04-.759.521-1.848.79-2.561.601-.302-.079-.496-.175-.566-.333-.07-.159.018-.335.138-.508.183-.266.483-.508.824-.667a.5.5 0 0 0-.424-.906ZM48.802 145.897c-1.548-3.578-3.316-6.24-4.81-9.838-.14-.336 4.664 5.253 5.878 6.947.466.65 1.765 2.726 1.876 2.508 2.013-3.944-2.675-18.32-3.689-23.396-.124-.624 2.075 3.634 2.569 4.659 1.773 3.674 7.72 17.233 7.959 16.592 1.357-3.641-4.544-16.178-4.187-21.293.044-.642 8.822 18.495 11.14 21.346a2080.6 2080.6 0 0 0-2.156-9.135c-.777-3.241-3.984-17.02-3.389-19.967.063-.314 4.466 7.504 5.403 9.837 1.729 4.312 3.369 8.69 4.608 13.17.714 2.585.982 5.59 2.018 8.063.094.227-.476-7.928-.489-10.176-.034-5.755-.467-11.652.439-17.36.159-1.001.316-4.773 1.126-5.539.018-.017.85 6.38 1.043 8.222.596 5.689 1.119 11.334 2.184 16.967.302 1.596 1.653 7.399 1.712 7.166 1.523-5.96 1.86-12.233 3.318-18.245.328-1.352.92-5.265 1.281-5.15.449.143-1.496 18.313-.168 24.81l-33.666-.188Z" style="fill:#bb9370"/>
    <path d="M52.287 118.437c2.314 8.973 3.348 17.785 3.269 27.059a.5.5 0 0 0 1 .009c.08-9.363-.964-18.259-3.301-27.318a.5.5 0 0 0-.968.25Z" style="fill:#70453b"/>
    <path d="M47.179 103.446a5.31 5.31 0 0 1 5.307-5.308 5.31 5.31 0 0 1 5.308 5.308 5.311 5.311 0 0 1 7.46.84 5.31 5.31 0 0 1-.841 7.459 5.31 5.31 0 0 1 3.994 6.356 5.31 5.31 0 0 1-6.356 3.994 5.31 5.31 0 0 1-2.479 7.085 5.311 5.311 0 0 1-7.086-2.479 5.31 5.31 0 0 1-7.085 2.479 5.31 5.31 0 0 1-2.479-7.085 5.31 5.31 0 0 1-6.356-3.994 5.31 5.31 0 0 1 3.994-6.356 5.31 5.31 0 0 1-.841-7.459 5.311 5.311 0 0 1 7.46-.84Z" style="fill:#eadccc"/>
    <circle cx="52.486" cy="114.468" r="5.443" style="fill:#c26a55"/>
    <path d="M53.861 124.841c-.313.041-.63.069-.951.081a.5.5 0 0 0 .04 1c.351-.014.698-.044 1.041-.089a.5.5 0 0 0-.13-.992Zm-2.856-.014c-.317-.045-.63-.105-.937-.177a.5.5 0 1 0-.231.973c.337.079.68.144 1.028.194a.5.5 0 0 0 .14-.99Zm5.607-.742a10.5 10.5 0 0 1-.893.336.5.5 0 0 0 .309.951c.333-.108.66-.231.979-.368a.501.501 0 0 0-.395-.919Zm-8.35-.043a10.138 10.138 0 0 1-.854-.426.5.5 0 0 0-.486.874c.304.169.616.325.935.466a.5.5 0 1 0 .405-.914Zm10.793-1.432c-.247.2-.503.388-.768.565a.5.5 0 0 0 .555.832c.29-.194.571-.401.842-.619a.501.501 0 0 0-.629-.778Zm-13.221-.069a10.218 10.218 0 0 1-.708-.64.5.5 0 0 0-.704.711c.248.245.506.479.775.701a.5.5 0 0 0 .637-.772Zm15.178-2.01c-.184.259-.381.51-.588.751a.5.5 0 0 0 .758.652c.227-.264.442-.539.645-.823a.5.5 0 1 0-.815-.58Zm-17.114-.088a10.54 10.54 0 0 1-.51-.807.5.5 0 1 0-.868.495c.172.303.359.598.558.884a.5.5 0 0 0 .82-.572Zm18.439-2.44c-.108.3-.23.594-.364.882a.5.5 0 0 0 .906.423c.147-.315.28-.638.399-.967a.501.501 0 0 0-.941-.338Zm-19.737-.102a10.447 10.447 0 0 1-.271-.914.501.501 0 0 0-.971.24c.084.34.184.675.298 1.002a.5.5 0 1 0 .944-.328Zm20.324-2.691c-.023.32-.06.636-.11.948a.5.5 0 1 0 .987.161c.055-.342.096-.688.12-1.039a.499.499 0 1 0-.997-.07Zm-20.882-.108a11.1 11.1 0 0 1-.014-.954.5.5 0 0 0-1-.03 11.412 11.412 0 0 0 .016 1.044.499.499 0 1 0 .998-.06Zm20.695-2.741c.064.31.113.624.149.942a.499.499 0 1 0 .993-.11 11.311 11.311 0 0 0-.162-1.032.5.5 0 0 0-.98.2Zm-20.479-.106c.067-.312.149-.62.243-.922a.499.499 0 1 0-.954-.299 11.37 11.37 0 0 0-.267 1.011.5.5 0 0 0 .978.21Zm19.528-2.584c.146.282.279.571.399.866a.501.501 0 0 0 .927-.376 11.662 11.662 0 0 0-.437-.949.5.5 0 0 0-.889.459Zm-18.549-.096c.149-.281.311-.555.485-.821a.5.5 0 0 0-.837-.547 11.25 11.25 0 0 0-.532.9.5.5 0 0 0 .884.468Zm16.905-2.237c.216.232.423.475.618.727a.499.499 0 1 0 .79-.613 11.154 11.154 0 0 0-.677-.796.5.5 0 0 0-.731.682Zm-15.237-.079c.22-.23.449-.451.689-.661a.501.501 0 0 0-.66-.752c-.262.23-.513.471-.753.724a.5.5 0 0 0 .724.689Zm13.025-1.727c.272.166.536.345.791.534a.499.499 0 1 0 .596-.802 11.32 11.32 0 0 0-.866-.585.5.5 0 1 0-.521.853Zm-10.795-.056c.273-.162.553-.313.841-.451a.5.5 0 0 0-.432-.902c-.315.151-.623.316-.921.495a.499.499 0 1 0 .512.858Zm8.179-1.084c.308.086.61.186.906.299a.5.5 0 1 0 .357-.934 11.094 11.094 0 0 0-.993-.328.499.499 0 1 0-.27.963Zm-5.551-.029c.305-.082.615-.151.931-.205a.5.5 0 0 0-.17-.986c-.346.06-.687.135-1.021.225a.5.5 0 0 0 .26.966Zm2.723-.359c.322 0 .64.015.954.043a.5.5 0 0 0 .09-.996 11.626 11.626 0 0 0-1.044-.047.5.5 0 0 0 0 1Z" style="fill:#b9a493"/>
    <path d="M52.486 105.155c-5.139 0-9.312 4.173-9.312 9.313 0 5.139 4.173 9.312 9.312 9.312 5.14 0 9.313-4.173 9.313-9.312 0-5.14-4.173-9.313-9.313-9.313Zm0 1a8.317 8.317 0 0 1 8.313 8.313c0 4.587-3.725 8.312-8.313 8.312-4.587 0-8.312-3.725-8.312-8.312 0-4.588 3.725-8.313 8.312-8.313Z" style="fill:#fff"/>
    <path d="M48.979 112.853c.073.228.206.433.384.594a1.372 1.372 0 0 0 1.929-.097 1.368 1.368 0 0 0-.098-1.929 1.372 1.372 0 0 0-1.929.098c-.326.361-.436.87-.286 1.334Zm3.355-1.158a.823.823 0 0 0 1.389.299.821.821 0 0 0 .172-.802.825.825 0 0 0-1.376-.256.822.822 0 0 0-.185.759Zm-4.007 3.586a.817.817 0 0 0 1.387.299.822.822 0 0 0-.86-1.331.825.825 0 0 0-.527 1.032Zm5.329 2.299a.822.822 0 0 0 .242.395.824.824 0 0 0 1.157-.058.822.822 0 0 0-.058-1.157.823.823 0 0 0-1.157.058.821.821 0 0 0-.184.762Zm-3.62-.555c.073.229.206.434.384.595a1.373 1.373 0 0 0 1.929-.098 1.366 1.366 0 1 0-2.313-.497Zm3.669-2.615a1.377 1.377 0 0 0 1.719.881c.228-.074.433-.206.594-.384a1.371 1.371 0 0 0-.098-1.928 1.37 1.37 0 0 0-1.928.097c-.326.361-.436.87-.287 1.334Z" style="fill:#e9d0bc"/>
    <path d="M199.916 145.98c1.719-9.117 5.162-17.897 7.031-27.018.615-3.003 2.436-13.969 2.436-13.864.029 6.506-1.722 29.264-1.435 29.104.202-.112 1.006-6.243 1.478-8.274 1.767-7.601 4.297-14.997 6.287-22.538.601-2.278 2.369-8.808 2.576-8.858.021-.005-.393 7.906-.662 10.677-.69 7.101-1.642 14.172-1.911 21.317-.073 1.93-.263 8.847.038 8.717.23-.1 1.483-5.913 1.941-7.964 1.803-8.082 3.27-16.379 4.183-24.615.268-2.423 1.075-9.481 1.196-9.488.276-.016 1.533 5.811 1.68 7.792.611 8.241.586 36.36.607 36.762.002.037.005.145.006.109.136-6.212 4.001-27.714 4.133-27.63.578.366 1.764 22.503 1.905 22.277 1.009-1.622 3.85-16.936 4.534-22.37.416-3.293 1.175-9.835 1.379-9.56 1.651 2.213 1.858 20.48 1.606 23.897-.544 7.37-1.945 14.204-1.891 21.579M115.856 146.012c.54-13.317.338-26.135.577-39.459.06-3.306-.34-6.77-.061-10.058.007-.082 3.251 7.842 3.85 10.15 1.809 6.975 3.204 25.534 3.316 27.551.043.764.168 3.363.233 3.099 1.798-7.337 1.179-15.365 2.414-22.839.085-.516 3.17 20.932 3.248 20.776 3.111-6.235 3.452-23.314 3.395-30.855-.02-2.625-1.046-9.557-.114-11.855.163-.402 3.547 9.189 4.207 11.949 2.05 8.567 3.272 16.741 3.243 25.557-.007 2.365.109 11.173.178 10.885 2.916-12.198 6.371-24.638 11.518-36.142.014-.031-.698 5.255-.96 6.739-.92 5.214-.849 23.956-.68 23.819.467-.38 1.605-7.735 1.885-8.82 1.083-4.209 6.12-20.403 9.39-23.068.386-.315-2.341 11.017-2.691 14.202-1.009 9.192-1.959 19.427.318 28.441l-43.266-.072Z" style="fill:#bb9370"/>
    <path d="M158.073 145.939c.11-4.995 1.18-9.617 2.29-14.464.37-1.612 1.709-7.482 1.943-7.321.473.328 2.015 15.48 2.029 15.297.416-5.399 1.032-20.397 1.826-21.548.066-.097 1.118 10.909 1.376 14.332.085 1.13.404 5.311.515 5.222.165-.133.534-4.528.746-6.08.819-5.981 1.803-11.864 2.23-17.895.131-1.844.627-6.998.673-6.998.331-.006 3.324 14.409 4.446 19.31.326 1.424 1.354 6.749 1.497 6.519 1.033-1.658 2.711-12.669 3.622-15.87.305-1.073 1.164-5.009 1.34-4.96.314.087 2.001 10.829 2.155 10.542 1.057-1.965 2.516-8.417 2.568-8.397.581.218 3.76 30.27 4.175 32.493l-33.431-.182Z" style="fill:#bb9370"/>
    <path d="M84.383 133.862c3.944-4.185 13.439-14.673 13.701-20.745.238-5.5-2.221-10.383-1.882-16.056.452-7.578 7.107-15.615 7.109-15.413.046 3.697-2.559 10.109-.209 14.859 6.058 12.245 5.742 15.366 5.334 17.985-1.364 8.761-7.451 13.507-13.347 24.719l-10.706-5.349Z" style="fill:#70453b"/>
    <clipPath id="q">
        <path d="M84.383 133.862c3.944-4.185 13.439-14.673 13.701-20.745.238-5.5-2.221-10.383-1.882-16.056.452-7.578 7.107-15.615 7.109-15.413.046 3.697-2.559 10.109-.209 14.859 6.058 12.245 5.742 15.366 5.334 17.985-1.364 8.761-7.451 13.507-13.347 24.719l-10.706-5.349Z"/>
    </clipPath>
    <g clip-path="url(#q)">
        <path d="M102.916 81.554c-2.763 6.475-4.855 11.067-4.481 18.075.085 1.593.842 3.097 1.701 4.611.797 1.406 1.681 2.822 2.082 4.357 1.846 7.079-.994 15.042-8.431 20.473a.5.5 0 0 0 .59.808c7.814-5.707 10.748-14.095 8.808-21.534-.421-1.617-1.339-3.116-2.18-4.597-.779-1.373-1.494-2.727-1.571-4.171-.365-6.839 1.706-11.311 4.402-17.63a.5.5 0 0 0-.92-.392Z" style="fill:#bb9370"/>
        <path d="M100.118 120.429c.953.172 1.842.384 2.776.578a.499.499 0 1 0 .204-.979c-.943-.196-1.841-.41-2.803-.583a.5.5 0 1 0-.177.984ZM98.299 94.517c.618.322 1.234.651 1.895.876a.501.501 0 0 0 .323-.947c-.614-.209-1.182-.517-1.755-.816a.5.5 0 1 0-.463.887ZM97.876 100.457c1.059.019 2.046.008 3.078.135a.5.5 0 0 0 .123-.992c-1.067-.132-2.088-.123-3.183-.143a.5.5 0 0 0-.018 1ZM100.776 106.989c.781-.189 1.594-.282 2.393-.349a.5.5 0 0 0-.083-.996c-.85.07-1.715.172-2.545.373a.5.5 0 0 0 .235.972ZM101.887 113.642c.812-.149 1.638-.316 2.462-.374a.5.5 0 0 0-.07-.997c-.86.061-1.724.232-2.571.387a.5.5 0 1 0 .179.984Z" style="fill:#bb9370"/>
    </g>
    <path d="M105.423 139.063c4.855-2.065 10.193-.143 15.237-.231 3.305-.058 6.212-1.361 8.846-3.287 3.06-2.238 5.626-5.348 7.804-8.42.7-.987 2.634-5.061 2.665-4.853.241 1.608-.863 12.6-2.77 15.596-1.773 2.786-4.825 4.816-7.685 6.379-8.546 4.67-20.571 5.093-29.139.205l5.042-5.389Z" style="fill:#70453b"/>
    <clipPath id="r">
        <path d="M105.423 139.063c4.855-2.065 10.193-.143 15.237-.231 3.305-.058 6.212-1.361 8.846-3.287 3.06-2.238 5.626-5.348 7.804-8.42.7-.987 2.634-5.061 2.665-4.853.241 1.608-.863 12.6-2.77 15.596-1.773 2.786-4.825 4.816-7.685 6.379-8.546 4.67-20.571 5.093-29.139.205l5.042-5.389Z"/>
    </clipPath>
    <g clip-path="url(#r)">
        <path d="M140.03 121.4c-.522 7.738-7.51 15.959-9.881 17.673-2.294 1.658-5.058 2.671-7.76 3.439-2.428.69-13.82 1.012-16.979.709a.5.5 0 1 0-.096.995c3.228.31 14.868-.037 17.348-.742 2.812-.799 5.685-1.865 8.073-3.591 2.471-1.786 9.748-10.353 10.292-18.416a.5.5 0 1 0-.997-.067Z" style="fill:#bb9370"/>
        <path d="M116.995 142.012c.094.969.172 1.939.311 2.902a.5.5 0 1 0 .99-.143c-.137-.948-.214-1.902-.306-2.855a.5.5 0 1 0-.995.096ZM120.453 142.363c.201.857.392 1.673.67 2.498a.5.5 0 0 0 .948-.32c-.269-.795-.451-1.58-.644-2.405a.5.5 0 0 0-.974.227ZM124.357 141.349c.313.796.615 1.542.985 2.311a.5.5 0 1 0 .901-.433 32.836 32.836 0 0 1-.955-2.244.501.501 0 0 0-.931.366ZM128.926 139.067c.344.588.812 1.072 1.215 1.616a.5.5 0 0 0 .804-.596c-.382-.515-.83-.969-1.156-1.525a.5.5 0 1 0-.863.505ZM131.947 136.575c.599.529 1.194 1.072 1.799 1.597a.501.501 0 0 0 .656-.756c-.603-.522-1.196-1.063-1.793-1.59a.5.5 0 1 0-.662.749ZM135.537 132.58c.553.375 1.105.751 1.663 1.121a.5.5 0 0 0 .552-.834c-.554-.367-1.103-.741-1.654-1.115a.5.5 0 0 0-.561.828Z" style="fill:#bb9370"/>
    </g>
    <path d="M195.793 125.102c-.273-3.295-.721-6.605-1.953-9.696-2.639-6.625-5.729-9.78-9.082-10.882-3.364-1.105-7.036-.152-10.9 1.573-3.737 1.668-7.665 4.05-11.679 5.834-3.919 1.742-7.92 2.918-11.906 2.214-7.94-1.404-11.406-5.923-15.329-9.253-4.086-3.468-8.63-5.754-18.744-2.355a.5.5 0 1 0 .319.948c5.765-1.937 9.625-1.966 12.631-.947 3.013 1.02 5.159 3.079 7.506 5.237 3.259 2.998 6.879 6.194 13.443 7.354 4.178.739 8.378-.458 12.486-2.284 4.015-1.785 7.943-4.167 11.681-5.835 3.612-1.612 7.035-2.569 10.179-1.536 3.155 1.037 5.983 4.07 8.466 10.302 1.195 2.999 1.621 6.212 1.885 9.409a.501.501 0 0 0 .997-.083Z" style="fill:#70453b"/>
    <path d="M115.917 101.335c.903-.208 1.854.567 2.12 1.729.267 1.162-.25 2.274-1.154 2.481-.903.208-1.854-.567-2.12-1.729-.267-1.162.25-2.274 1.154-2.481ZM123.597 99.415c.903-.208 1.854.567 2.12 1.729.267 1.162-.25 2.274-1.154 2.481-.903.208-1.854-.567-2.12-1.729-.267-1.162.25-2.274 1.154-2.481ZM132.843 101.571c.803.465.968 1.68.37 2.712-.598 1.031-1.734 1.491-2.536 1.026-.803-.465-.968-1.68-.37-2.712.598-1.031 1.734-1.491 2.536-1.026ZM139.563 107.091c.803.465.968 1.68.37 2.712-.598 1.031-1.734 1.491-2.536 1.026-.803-.465-.968-1.68-.37-2.712.598-1.031 1.734-1.491 2.536-1.026ZM146.84 111.47c.88.292 1.29 1.447.915 2.579-.376 1.131-1.395 1.813-2.275 1.521-.88-.292-1.29-1.447-.915-2.579.376-1.131 1.395-1.813 2.275-1.521ZM153.855 112.572c.922-.097 1.772.787 1.896 1.973.124 1.185-.524 2.227-1.446 2.323-.922.097-1.772-.787-1.896-1.973-.124-1.185.524-2.227 1.446-2.323ZM161.667 110.194c.809-.452 1.939.026 2.52 1.067s.396 2.253-.414 2.705c-.809.452-1.939-.026-2.52-1.067s-.396-2.253.414-2.705ZM169.107 106.594c.809-.452 1.939.026 2.52 1.067s.396 2.253-.414 2.705c-.809.452-1.939-.026-2.52-1.067s-.396-2.253.414-2.705ZM177.226 103.049c.889-.263 1.886.451 2.225 1.594.339 1.143-.108 2.284-.997 2.548-.889.263-1.886-.451-2.225-1.594-.339-1.143.108-2.284.997-2.548ZM186.794 104.184c.814.444 1.012 1.654.441 2.7-.571 1.047-1.695 1.536-2.509 1.092-.814-.444-1.012-1.654-.441-2.7.571-1.047 1.695-1.536 2.509-1.092ZM195.633 116.045c.565.735.256 1.922-.69 2.648-.946.726-2.172.718-2.736-.018-.565-.735-.256-1.922.69-2.648.946-.726 2.172-.718 2.736.018ZM192.753 110.285c.565.735.256 1.922-.69 2.648-.946.726-2.172.718-2.736-.018-.565-.735-.256-1.922.69-2.648.946-.726 2.172-.718 2.736.018ZM198.899 133.732c-.298-3.254-.85-6.119-2.747-8.871-1.373-1.992-8.381-7.014-10.213-7.574-12.554-3.835-17.321 13.083-27.942 15.922-3.987 1.066-7.727-.459-10.532-3.327-.947-.968-3.489-5.309-3.837-4.725-.538.904.553 3.808.859 4.748 1.791 5.494 5.833 9.351 11.599 10.394 2.816.509 6.249.741 9.039-.057 6.373-1.823 10.664-7.043 16.861-9.082 5.55-1.826 16.913 2.572 16.913 2.572Z" style="fill:#70453b"/>
    <clipPath id="s">
        <path d="M198.899 133.732c-.298-3.254-.85-6.119-2.747-8.871-1.373-1.992-8.381-7.014-10.213-7.574-12.554-3.835-17.321 13.083-27.942 15.922-3.987 1.066-7.727-.459-10.532-3.327-.947-.968-3.489-5.309-3.837-4.725-.538.904.553 3.808.859 4.748 1.791 5.494 5.833 9.351 11.599 10.394 2.816.509 6.249.741 9.039-.057 6.373-1.823 10.664-7.043 16.861-9.082 5.55-1.826 16.913 2.572 16.913 2.572Z"/>
    </clipPath>
    <g clip-path="url(#s)">
        <path d="M143.12 124.716c.843 2.816 1.886 5.633 3.862 7.874 1.404 1.593 3.056 2.679 4.943 3.629a19.146 19.146 0 0 0 4.804 1.689c4.667.943 10.265-1.495 13.624-4.687 2.025-1.925 3.649-4.274 5.775-6.088 4.056-3.459 10.783-2.837 13.897 1.614a.5.5 0 1 0 .819-.574c-3.443-4.921-10.88-5.626-15.365-1.801-2.14 1.826-3.777 4.187-5.815 6.124-3.144 2.988-8.369 5.315-12.737 4.431a18.114 18.114 0 0 1-4.552-1.601c-1.771-.892-3.325-1.903-4.643-3.398-1.879-2.131-2.852-4.821-3.654-7.499a.5.5 0 0 0-.958.287Z" style="fill:#bb9370"/>
        <path d="M179.826 123.65c.16.869.312 1.744.394 2.624a.5.5 0 1 0 .996-.092c-.085-.91-.241-1.815-.406-2.713a.5.5 0 0 0-.984.181ZM172.032 128.805c.49.593 1.05 1.237 1.543 1.872a.5.5 0 0 0 .79-.613c-.499-.643-1.066-1.295-1.562-1.896a.5.5 0 0 0-.771.637ZM165.907 134.288c.314.567.636 1.135.941 1.71a.5.5 0 0 0 .883-.47c-.308-.579-.632-1.151-.948-1.724a.502.502 0 0 0-.68-.196.502.502 0 0 0-.196.68ZM159.177 138.788c-.086-.92-.179-1.872-.184-2.795a.501.501 0 0 0-1 .006c.005.952.099 1.933.188 2.882a.5.5 0 0 0 .996-.093ZM150.831 137.093c.386-.796.774-1.58 1.11-2.399a.501.501 0 0 0-.926-.379c-.327.799-.707 1.564-1.084 2.341a.5.5 0 0 0 .9.437Z" style="fill:#bb9370"/>
    </g>
    <path d="M193.504 136.882c1.733-5.682 5.181-22.849 2.436-28.361-2.024-4.063-5.443-6.975-8.003-10.535-3.512-4.885-1.185-11.819.979-16.734.63-1.43 1.4-3.679 2.494-4.801.395-.405-2.877 11.221 2.321 16.302 4.883 4.774 8.448 10.903 9.587 14.077 3.561 9.922-1.945 27.55-6.502 36.164l-3.312-6.112Z" style="fill:#70453b"/>
    <clipPath id="t">
        <path d="M193.504 136.882c1.733-5.682 5.181-22.849 2.436-28.361-2.024-4.063-5.443-6.975-8.003-10.535-3.512-4.885-1.185-11.819.979-16.734.63-1.43 1.4-3.679 2.494-4.801.395-.405-2.877 11.221 2.321 16.302 4.883 4.774 8.448 10.903 9.587 14.077 3.561 9.922-1.945 27.55-6.502 36.164l-3.312-6.112Z"/>
    </clipPath>
    <g clip-path="url(#t)">
        <path d="M198.541 128.02c.834-7.567 2.812-14.762.319-22.339-.774-2.354-2.185-4.228-3.726-6.021-1.481-1.724-3.083-3.372-4.301-5.339-1.299-2.1-1.718-4.966-1.518-7.945.303-4.529 2.041-9.328 4.443-12.181a.5.5 0 1 0-.765-.644c-2.517 2.99-4.359 8.012-4.676 12.758-.215 3.204.268 6.28 1.666 8.538 1.245 2.012 2.878 3.701 4.393 5.465 1.456 1.694 2.802 3.457 3.534 5.682 2.446 7.434.455 14.492-.363 21.916a.5.5 0 0 0 .994.11Z" style="fill:#bb9370"/>
        <path d="M187.67 92.507c.992-.364 1.974-.727 2.941-1.15a.5.5 0 0 0-.401-.916c-.949.415-1.912.771-2.884 1.128a.5.5 0 0 0 .344.938ZM191.583 98.392c.817-.474 1.62-.889 2.454-1.313a.5.5 0 0 0-.453-.892c-.851.433-1.67.857-2.503 1.34a.5.5 0 0 0 .502.865ZM196.399 105.86c.955-.135 1.974-.328 2.958-.358a.5.5 0 1 0-.031-1c-1.02.032-2.077.228-3.067.368a.5.5 0 0 0 .14.99ZM198.375 114.454c.86.071 1.272.052 1.93.179a.501.501 0 0 0 .19-.982c-.696-.134-1.13-.119-2.038-.193a.5.5 0 1 0-.082.996ZM197.517 122.771c.96.105 2.06.127 3.045.378a.5.5 0 1 0 .248-.968c-1.031-.264-2.18-.294-3.184-.404a.5.5 0 0 0-.109.994Z" style="fill:#bb9370"/>
    </g>
    <path d="M210.618 99.594c-.532.735-5.888 6.267-1.538 10.579 3.76 3.728 9.944-1.042 10.377-2.522l-8.839-8.057Z" style="fill:#70453b"/>
    <path d="M208.294 109.133c-1.968 5.001-1.671 10.673-1.739 15.94-.087 6.744.816 13.471 1.474 20.157a1.001 1.001 0 0 0 1.991-.196c-.652-6.612-1.551-13.265-1.465-19.936.064-5.031-.28-10.455 1.6-15.232a1 1 0 0 0-1.861-.733Z" style="fill:#70453b"/>
    <path d="M223.549 75.749c1.482-3.457 5.035-6.05 8.752-7.407 1.457-.532 3.69-1.247 4.949.054 4.04 4.17-3.655 11.475-6.781 13.753-1.039.757-2.131 1.494-3.271 2.121l-3.649-8.521Z" style="fill:#eadccc"/>
    <clipPath id="u">
        <path d="M223.549 75.749c1.482-3.457 5.035-6.05 8.752-7.407 1.457-.532 3.69-1.247 4.949.054 4.04 4.17-3.655 11.475-6.781 13.753-1.039.757-2.131 1.494-3.271 2.121l-3.649-8.521Z"/>
    </clipPath>
    <g clip-path="url(#u)">
        <path d="M230.148 79.767c.172-.269.358-.527.553-.778a.501.501 0 0 0-.79-.613 11.31 11.31 0 0 0-.605.852.5.5 0 0 0 .842.539Zm1.831-2.267c.225-.25.45-.499.671-.752a.499.499 0 1 0-.752-.658c-.218.249-.44.494-.662.74a.5.5 0 0 0 .743.67Zm1.946-2.348c.201-.274.397-.553.586-.834a.5.5 0 0 0-.83-.558c-.182.27-.369.538-.563.802a.5.5 0 0 0 .807.59Zm1.656-2.569c.167-.296.328-.595.484-.897a.5.5 0 1 0-.889-.458c-.15.291-.305.579-.465.863a.5.5 0 1 0 .87.492Zm1.348-2.734c.134-.305.273-.615.402-.93a.5.5 0 0 0-.925-.38c-.126.307-.261.609-.392.906a.5.5 0 1 0 .915.404Z" style="fill:#b9a493"/>
    </g>
    <path d="M225.715 84.905c3.281-4.131 7.327-7.862 11.76-10.707 1.37-.879 3.61-2.422 5.286-1.512 2.087 1.131 1.307 4.409.412 6.03-2.461 4.456-7.347 7.816-11.345 10.798l-6.113-4.609Z" style="fill:#eadccc"/>
    <clipPath id="v">
        <path d="M225.715 84.905c3.281-4.131 7.327-7.862 11.76-10.707 1.37-.879 3.61-2.422 5.286-1.512 2.087 1.131 1.307 4.409.412 6.03-2.461 4.456-7.347 7.816-11.345 10.798l-6.113-4.609Z"/>
    </clipPath>
    <g clip-path="url(#v)">
        <path d="M233.932 85.478c.262-.216.52-.434.774-.656a.5.5 0 1 0-.657-.753c-.247.215-.498.427-.753.637a.5.5 0 0 0 .636.772Zm2.264-2.032c.242-.238.48-.478.714-.722a.5.5 0 0 0-.721-.692c-.227.236-.458.469-.693.699a.5.5 0 0 0 .7.715Zm2.074-2.231c.219-.259.433-.521.643-.787a.5.5 0 0 0-.785-.62c-.203.257-.41.511-.622.761a.501.501 0 0 0 .764.646Zm1.85-2.423c.191-.279.379-.562.561-.848a.5.5 0 1 0-.843-.538c-.176.277-.357.55-.542.819a.5.5 0 1 0 .824.567Zm1.596-2.599.149-.275c.106-.2.216-.402.327-.606a.5.5 0 1 0-.879-.477c-.112.206-.223.41-.331.613l-.143.266a.5.5 0 1 0 .877.479Zm1.394-2.709c.139-.326.263-.657.363-.993a.5.5 0 0 0-.958-.285c-.089.3-.2.594-.324.884a.5.5 0 0 0 .919.394Z" style="fill:#b9a493"/>
    </g>
    <path d="M230.484 88.498c3.211-3.469 7.33-6.457 11.746-8.182 1.99-.777 6.969-1.922 6.081 2.061-.423 1.896-2.575 3.901-3.937 5.202-3.786 3.618-8.318 6.57-12.512 9.698l-1.378-8.779Z" style="fill:#eadccc"/>
    <clipPath id="w">
        <path d="M230.484 88.498c3.211-3.469 7.33-6.457 11.746-8.182 1.99-.777 6.969-1.922 6.081 2.061-.423 1.896-2.575 3.901-3.937 5.202-3.786 3.618-8.318 6.57-12.512 9.698l-1.378-8.779Z"/>
    </clipPath>
    <g clip-path="url(#w)">
        <path d="M238.82 89.531c.267-.21.529-.415.786-.619a.5.5 0 1 0-.619-.785l-.785.618a.5.5 0 1 0 .618.786Zm2.355-1.875c.262-.215.52-.429.775-.645a.501.501 0 0 0-.647-.763c-.25.212-.504.423-.762.635a.5.5 0 1 0 .634.773Zm2.288-1.992c.246-.231.488-.467.729-.708a.5.5 0 0 0-.709-.706c-.233.234-.468.462-.706.686a.5.5 0 0 0 .686.728Zm2.112-2.202c.218-.253.434-.514.65-.784a.5.5 0 0 0-.782-.624c-.208.261-.416.512-.626.756a.5.5 0 0 0 .758.652Zm1.873-2.405c.198-.283.389-.571.566-.866a.5.5 0 1 0-.857-.515c-.165.275-.343.543-.528.807a.5.5 0 0 0 .819.574Z" style="fill:#b9a493"/>
    </g>
    <path d="M225.38 73.08c-4.213 2.083-13.091 9.722-16.451 18.207-2.974 7.512.288 19.885 10.543 18.057 6.209-1.107 11.056-6.163 15.409-10.336 2.041-1.957 6.915-9.373 6.915-9.373L225.38 73.08Z" style="fill:#c26a55"/>
    <clipPath id="x">
        <path d="M225.38 73.08c-4.213 2.083-13.091 9.722-16.451 18.207-2.974 7.512.288 19.885 10.543 18.057 6.209-1.107 11.056-6.163 15.409-10.336 2.041-1.957 6.915-9.373 6.915-9.373L225.38 73.08Z"/>
    </clipPath>
    <g clip-path="url(#x)">
        <path d="m245.897 92.389-22.693-23.1-8.692 8.821 22.921 22.222 8.464-7.943Z" style="fill:#b25a45"/>
        <clipPath id="y">
            <path d="m245.897 92.389-22.693-23.1-8.692 8.821 22.921 22.222 8.464-7.943Z"/>
        </clipPath>
        <g clip-path="url(#y)">
            <path d="M222.242 70.426a1.201 1.201 0 0 1-1.675 1.719 1.201 1.201 0 0 1 1.675-1.719ZM218.726 74.037a1.201 1.201 0 0 1-1.675 1.719 1.201 1.201 0 0 1 1.675-1.719ZM222.291 74.159a1.2 1.2 0 1 1-1.675 1.72 1.2 1.2 0 0 1 1.675-1.72ZM218.775 77.77a1.2 1.2 0 1 1-1.675 1.72 1.2 1.2 0 0 1 1.675-1.72ZM226.196 74.277a1.2 1.2 0 1 1-1.672 1.719 1.2 1.2 0 0 1 1.672-1.719ZM222.68 77.888a1.2 1.2 0 1 1-1.672 1.719 1.2 1.2 0 0 1 1.672-1.719ZM226.246 78.01a1.2 1.2 0 1 1-1.675 1.72 1.2 1.2 0 0 1 1.675-1.72ZM222.73 81.621a1.2 1.2 0 1 1-1.675 1.72 1.2 1.2 0 0 1 1.675-1.72ZM230.151 78.127a1.2 1.2 0 1 1-1.675 1.72 1.2 1.2 0 0 1 1.675-1.72ZM226.635 81.738a1.2 1.2 0 1 1-1.675 1.72 1.2 1.2 0 0 1 1.675-1.72ZM230.201 81.861a1.2 1.2 0 1 1-1.675 1.72 1.2 1.2 0 0 1 1.675-1.72ZM226.685 85.472a1.2 1.2 0 1 1-1.675 1.72 1.2 1.2 0 0 1 1.675-1.72ZM234.106 81.978a1.2 1.2 0 1 1-1.675 1.72 1.2 1.2 0 0 1 1.675-1.72ZM230.59 85.589a1.2 1.2 0 1 1-1.675 1.72 1.2 1.2 0 0 1 1.675-1.72ZM234.156 85.712a1.2 1.2 0 1 1-1.675 1.719 1.2 1.2 0 0 1 1.675-1.719ZM230.64 89.323a1.2 1.2 0 1 1-1.673 1.718 1.2 1.2 0 0 1 1.673-1.718ZM238.061 85.829a1.2 1.2 0 1 1-1.675 1.72 1.2 1.2 0 0 1 1.675-1.72ZM234.545 89.44a1.2 1.2 0 1 1-1.675 1.72 1.2 1.2 0 0 1 1.675-1.72ZM238.111 89.562a1.201 1.201 0 0 1-1.675 1.72 1.201 1.201 0 0 1 1.675-1.72ZM234.595 93.173a1.201 1.201 0 0 1-1.675 1.72 1.201 1.201 0 0 1 1.675-1.72ZM242.016 89.68a1.201 1.201 0 0 1-1.674 1.72 1.2 1.2 0 0 1 1.674-1.72ZM238.5 93.291a1.201 1.201 0 0 1-1.674 1.72 1.2 1.2 0 0 1 1.674-1.72ZM242.066 93.413a1.201 1.201 0 0 1-1.675 1.72 1.201 1.201 0 0 1 1.675-1.72ZM238.55 97.024a1.201 1.201 0 0 1-1.675 1.72 1.201 1.201 0 0 1 1.675-1.72ZM245.971 93.531a1.201 1.201 0 0 1-1.674 1.72 1.2 1.2 0 0 1 1.674-1.72ZM242.455 97.142a1.201 1.201 0 0 1-1.675 1.72 1.201 1.201 0 0 1 1.675-1.72ZM246.021 97.264a1.201 1.201 0 0 1-1.675 1.72 1.201 1.201 0 0 1 1.675-1.72ZM242.504 100.875a1.2 1.2 0 1 1-1.675 1.72 1.2 1.2 0 0 1 1.675-1.72Z" style="fill:#eadccc"/>
        </g>
        <path d="m203.851 84.412 3.507-.247a1.845 1.845 0 0 1 1.966 1.708l.076 1.084a2.842 2.842 0 0 0 3.035 2.635l1.081-.076a1.84 1.84 0 0 1 1.966 1.707l.067.945a2.84 2.84 0 0 0 3.034 2.634l.841-.059a1.842 1.842 0 0 1 1.966 1.708l.075 1.07a2.842 2.842 0 0 0 3.035 2.635l1.432-.101a1.842 1.842 0 0 1 1.966 1.708l.1 1.426a2.843 2.843 0 0 0 3.035 2.635l.881-.062a1.84 1.84 0 0 1 1.966 1.707l.223 3.161a.5.5 0 1 0 .997-.07l-.222-3.161a2.842 2.842 0 0 0-3.035-2.635l-.881.062a1.842 1.842 0 0 1-1.966-1.708l-.1-1.425a2.842 2.842 0 0 0-3.035-2.635l-1.432.101a1.842 1.842 0 0 1-1.966-1.708l-.075-1.07a2.842 2.842 0 0 0-3.035-2.635l-.841.059a1.842 1.842 0 0 1-1.966-1.708l-.066-.944a2.842 2.842 0 0 0-3.035-2.635l-1.081.076a1.84 1.84 0 0 1-1.966-1.707l-.076-1.084a2.842 2.842 0 0 0-3.035-2.635l-3.506.247a.5.5 0 0 0 .07.997Z" style="fill:#eadccc"/>
        <path d="m201.451 86.572 3.507-.247a1.845 1.845 0 0 1 1.966 1.708l.076 1.084a2.842 2.842 0 0 0 3.035 2.635l1.081-.076a1.84 1.84 0 0 1 1.966 1.707l.067.945a2.84 2.84 0 0 0 3.034 2.634l.841-.059a1.842 1.842 0 0 1 1.966 1.708l.075 1.07a2.842 2.842 0 0 0 3.035 2.635l1.432-.101a1.842 1.842 0 0 1 1.966 1.708l.1 1.426a2.843 2.843 0 0 0 3.035 2.635l.881-.062a1.84 1.84 0 0 1 1.966 1.707l.223 3.161a.5.5 0 1 0 .997-.07l-.222-3.161a2.842 2.842 0 0 0-3.035-2.635l-.881.062a1.842 1.842 0 0 1-1.966-1.708l-.1-1.425a2.842 2.842 0 0 0-3.035-2.635l-1.432.101a1.842 1.842 0 0 1-1.966-1.708l-.075-1.07a2.842 2.842 0 0 0-3.035-2.635l-.841.059a1.842 1.842 0 0 1-1.966-1.708l-.066-.944a2.842 2.842 0 0 0-3.035-2.635l-1.081.076a1.84 1.84 0 0 1-1.966-1.707l-.076-1.084a2.842 2.842 0 0 0-3.035-2.635l-3.506.247a.5.5 0 0 0 .07.997ZM206.251 81.772l3.507-.247a1.845 1.845 0 0 1 1.966 1.708l.076 1.084a2.842 2.842 0 0 0 3.035 2.635l1.081-.076a1.84 1.84 0 0 1 1.966 1.707l.067.945a2.84 2.84 0 0 0 3.034 2.634l.841-.059a1.842 1.842 0 0 1 1.966 1.708l.075 1.07a2.842 2.842 0 0 0 3.035 2.635l1.432-.101a1.842 1.842 0 0 1 1.966 1.708l.1 1.426a2.843 2.843 0 0 0 3.035 2.635l.881-.062a1.84 1.84 0 0 1 1.966 1.707l.223 3.161a.5.5 0 1 0 .997-.07l-.222-3.161a2.842 2.842 0 0 0-3.035-2.635l-.881.062a1.842 1.842 0 0 1-1.966-1.708l-.1-1.425a2.842 2.842 0 0 0-3.035-2.635l-1.432.101a1.842 1.842 0 0 1-1.966-1.708l-.075-1.07a2.842 2.842 0 0 0-3.035-2.635l-.841.059a1.842 1.842 0 0 1-1.966-1.708l-.066-.944a2.842 2.842 0 0 0-3.035-2.635l-1.081.076a1.84 1.84 0 0 1-1.966-1.707l-.076-1.084a2.842 2.842 0 0 0-3.035-2.635l-3.506.247a.5.5 0 0 0 .07.997ZM225.076 111.608l-20.071-17.526-6 6.872 20.071 17.526 6-6.872Z" style="fill:#b25a45"/>
    </g>
    <path d="M224.672 146.124c13.978-2.626 21.326-18.266 21.145-31.197-.063-4.51-.81-8.811-.26-13.341.184-1.514.454-3.019.923-4.473.147-.456.313-.906.504-1.346.101-.234.202-.917.323-.693.422.779-.083 3.032-.06 3.941a41.477 41.477 0 0 0 1.199 8.777c1.997 8.145 6.59 15.121 5.832 23.854-.451 5.2-3.64 9.876-5.998 14.389l-23.608.089Z" style="fill:#70453b"/>
    <clipPath id="z">
        <path d="M224.672 146.124c13.978-2.626 21.326-18.266 21.145-31.197-.063-4.51-.81-8.811-.26-13.341.184-1.514.454-3.019.923-4.473.147-.456.313-.906.504-1.346.101-.234.202-.917.323-.693.422.779-.083 3.032-.06 3.941a41.477 41.477 0 0 0 1.199 8.777c1.997 8.145 6.59 15.121 5.832 23.854-.451 5.2-3.64 9.876-5.998 14.389l-23.608.089Z"/>
    </clipPath>
    <g clip-path="url(#z)">
        <path d="M237.953 146.928c1.986-3.115 4.667-5.413 6.964-7.966 2.382-2.646 4.361-5.555 4.85-9.82.733-6.394-.937-12.705-2.086-19.003-1.122-6.151-1.743-12.291 1.054-18.488a.5.5 0 0 0-.912-.411c-2.886 6.395-2.284 12.73-1.126 19.079 1.131 6.201 2.798 12.413 2.076 18.709-.461 4.028-2.349 6.766-4.599 9.265-2.333 2.592-5.047 4.934-7.064 8.098a.5.5 0 1 0 .843.537Z" style="fill:#bb9370"/>
        <path d="M247.289 118.288c.895.043 1.776.172 2.661.308a.501.501 0 0 0 .151-.989c-.919-.141-1.834-.273-2.763-.318a.5.5 0 1 0-.049.999ZM247.978 125.144c.856.121 1.712.242 2.57.342a.499.499 0 1 0 .117-.993c-.851-.099-1.699-.219-2.548-.339a.5.5 0 0 0-.139.99ZM245.956 134.123c1.112.152 2.238.319 3.342.525a.5.5 0 1 0 .184-.983 70.683 70.683 0 0 0-3.391-.533.5.5 0 0 0-.135.991ZM240.586 140.97c.799.412 1.595.824 2.387 1.246a.5.5 0 0 0 .471-.882c-.797-.425-1.597-.838-2.399-1.252a.5.5 0 1 0-.459.888Z" style="fill:#bb9370"/>
    </g>
    <path d="M244.363 146.047c3.181-6.037 7.351-8.847 10.621-15.106 1.609-3.079 2.45-12.454 2.694-12.088 1.107 1.657 1.229 21.626-1.257 27.346l-12.058-.152Z" style="fill:#bb9370"/>
    <path d="M67.198 141.491a8.329 8.329 0 0 1 1.97-.692c.476-.096.983-.17 1.468-.129 1.285.109 2.092.817 2.645 1.752.607 1.029.921 2.32 1.191 3.478a.5.5 0 0 0 .974-.228c-.292-1.253-.647-2.644-1.304-3.758-.712-1.206-1.764-2.1-3.421-2.241-.579-.049-1.184.031-1.751.146a9.275 9.275 0 0 0-2.209.773.5.5 0 0 0 .437.899ZM79.433 139.949c-.988 1.791-1.658 3.808-2.26 5.767a.5.5 0 0 0 .956.294c.582-1.895 1.225-3.847 2.179-5.578a.5.5 0 1 0-.875-.483Z" style="fill:#8c633f"/>
    <path d="M78.27 145.814c.294-.566.886-1.138 1.557-1.448.409-.189.851-.281 1.269-.179.398.096.674.419.98.67a.5.5 0 1 0 .636-.772c-.42-.345-.833-.737-1.38-.87-.632-.154-1.304-.043-1.924.243-.875.404-1.641 1.156-2.025 1.894a.501.501 0 0 0 .887.462ZM213.976 137.182c-.885.68-1.496 1.754-1.887 2.969-.556 1.729-.673 3.744-.601 5.188a.5.5 0 1 0 .998-.05c-.066-1.345.037-3.221.555-4.832.325-1.01.809-1.917 1.544-2.482a.5.5 0 0 0-.609-.793Z" style="fill:#8c633f"/>
    <path d="M208.008 133.2c1.897.428 3.035 1.894 3.788 3.692 1.213 2.898 1.432 6.655 1.863 8.874a.5.5 0 1 0 .982-.19c-.441-2.27-.682-6.107-1.922-9.07-.883-2.109-2.266-3.779-4.49-4.282a.5.5 0 0 0-.221.976Z" style="fill:#8c633f"/>
    <path d="M15.071 146.577s33.756.216 76.744.36c16.182.054 33.673.104 51.163.101 17.49-.003 34.98-.065 51.163-.12 42.988-.146 76.744-.341 76.744-.341a.538.538 0 0 0 0-1.077s-33.756-.195-76.744-.341c-16.183-.055-33.673-.117-51.163-.12-17.49-.003-34.981.047-51.163.101-42.988.144-76.744.36-76.744.36a.538.538 0 0 0 0 1.077Z" style="fill:#70453b"/>
    <path d="m109.981 21.68.194-.672a4.81 4.81 0 0 0-.668-.212 2.944 2.944 0 0 0-.686-.083c-.43-.012-.791.055-1.083.203a1.51 1.51 0 0 0-.658.617 1.87 1.87 0 0 0-.221.93v1.372c0 .4.081.722.244.968.163.245.394.425.695.538.301.114.648.177 1.041.189.233.006.465-.006.695-.037.231-.03.453-.07.668-.119l-.156-.71a.478.478 0 0 1-.083.019 5.41 5.41 0 0 1-.986.092c-.202 0-.382-.018-.539-.055a1.108 1.108 0 0 1-.4-.175.737.737 0 0 1-.249-.313 1.172 1.172 0 0 1-.083-.461v-1.345c0-.221.051-.404.152-.548a.93.93 0 0 1 .433-.327 1.58 1.58 0 0 1 .659-.092c.178.006.356.029.534.069.178.04.344.091.497.152ZM112.671 24.103v-2.497h1.179v-.801h-3.15v.801h1.114v2.561c0 .184.023.352.069.502.046.15.117.286.212.405.095.12.22.223.373.309.154.086.335.153.544.203l.34-.599a1.25 1.25 0 0 1-.391-.189.67.67 0 0 1-.221-.286 1.087 1.087 0 0 1-.069-.409ZM118.271 23.872v-1.344c0-.572-.161-1.012-.484-1.322-.322-.31-.787-.465-1.395-.465-.633 0-1.116.15-1.451.451-.334.301-.502.746-.502 1.336v4.651l.857.221v-2.192a1.8 1.8 0 0 0 .525.262 2.224 2.224 0 0 0 .682.106c.386 0 .71-.063.971-.189.261-.125.459-.314.594-.566.135-.252.203-.568.203-.949Zm-.847-1.372v1.474a.758.758 0 0 1-.438.736 1.149 1.149 0 0 1-.511.102c-.129 0-.263-.016-.401-.046a1.643 1.643 0 0 1-.382-.134.837.837 0 0 1-.286-.225.507.507 0 0 1-.11-.323V22.5c0-.209.041-.381.124-.516a.761.761 0 0 1 .369-.304c.162-.067.357-.101.585-.101.221 0 .409.035.566.106.157.07.276.173.359.308a.953.953 0 0 1 .125.507ZM122.757 20.934l-.728-.221a1.296 1.296 0 0 0-.078.189l-.032.096a4.052 4.052 0 0 0-.387-.115 5.288 5.288 0 0 0-.535-.101 4.23 4.23 0 0 0-.598-.041 2.37 2.37 0 0 0-.585.069 1.277 1.277 0 0 0-.479.23 1.06 1.06 0 0 0-.323.433 1.755 1.755 0 0 0-.115.677v1.713c0 .264.039.496.115.696.077.199.189.365.337.497.147.132.334.232.562.299.227.068.491.102.792.102.135 0 .29-.004.465-.01l.534-.018c.181-.006.345-.014.493-.023l.364-.023.133-.009V21.8a6.396 6.396 0 0 1 .065-.866Zm-3.012 2.948v-1.686c0-.166.029-.293.087-.382a.57.57 0 0 1 .212-.198.735.735 0 0 1 .263-.079 2.565 2.565 0 0 1 .511 0c.107.01.221.026.341.051.119.025.238.051.354.078.117.028.224.06.323.097v2.929a4.641 4.641 0 0 1-.452.032l-.308.01c-.108.003-.211.004-.309.004-.221 0-.408-.026-.562-.078a.623.623 0 0 1-.345-.267c-.077-.126-.115-.297-.115-.511ZM126.459 22.5h-2.109v-1.686h-.856v4.606h.856v-2.11h2.109v2.11h.857v-4.606h-.857V22.5ZM128.854 20.814h-.847v4.615h.884l2.073-3.196v3.196h.865v-4.615h-.893l-2.082 3.206v-3.206ZM136.343 20.814h-.857v3.758h-2.118v-3.758h-.857v4.606h3.823l.147 1.087h.718v-1.935h-.856v-3.758ZM141.51 20.934l-.728-.221c-.03.061-.056.124-.078.189l-.032.096a3.882 3.882 0 0 0-.387-.115 5.32 5.32 0 0 0-.534-.101 4.245 4.245 0 0 0-.599-.041 2.37 2.37 0 0 0-.585.069 1.277 1.277 0 0 0-.479.23 1.059 1.059 0 0 0-.322.433 1.736 1.736 0 0 0-.115.677v1.713c0 .264.038.496.115.696.077.199.189.365.336.497.147.132.335.232.562.299.227.068.491.102.792.102.135 0 .29-.004.465-.01l.534-.018c.182-.006.346-.014.493-.023l.364-.023.134-.009V21.8c0-.148.006-.296.018-.447.012-.15.028-.29.046-.419Zm-3.012 2.948v-1.686c0-.166.029-.293.088-.382a.567.567 0 0 1 .211-.198.742.742 0 0 1 .263-.079 2.568 2.568 0 0 1 .511 0c.108.01.221.026.341.051.12.025.238.051.355.078.116.028.224.06.322.097v2.929a4.472 4.472 0 0 1-.451.032l-.309.01c-.107.003-.21.004-.309.004-.221 0-.408-.026-.561-.078a.622.622 0 0 1-.346-.267c-.077-.126-.115-.297-.115-.511ZM148.114 22.5h-2.109v-1.686h-.857v4.606h.857v-2.11h2.109v2.11h.857v-4.606h-.857V22.5ZM150.454 24.103v-.35l2.883-.129v-1.382c0-.344-.075-.629-.226-.857a1.338 1.338 0 0 0-.635-.506 2.555 2.555 0 0 0-.963-.166c-.362 0-.688.057-.976.17a1.523 1.523 0 0 0-.687.516c-.168.23-.253.521-.253.871v1.934c0 .239.043.444.129.612.086.169.206.307.359.415.154.107.338.186.553.235.215.049.448.073.7.073.307 0 .613-.039.917-.119.303-.08.578-.188.824-.323l-.295-.718c-.252.11-.503.199-.755.267a2.754 2.754 0 0 1-.719.101c-.129 0-.247-.012-.354-.037a.705.705 0 0 1-.272-.119.571.571 0 0 1-.23-.488Zm2.026-1.695v.46l-2.026.092v-.525c0-.202.035-.371.106-.506a.687.687 0 0 1 .336-.309c.153-.07.356-.109.608-.115.233-.006.42.032.562.115a.786.786 0 0 1 .313.327c.067.135.101.289.101.461ZM159.83 22.5h-2.109v-1.686h-.856v4.606h.856v-2.11h2.109v2.11h.857v-4.606h-.857V22.5ZM165.173 20.934l-.728-.221a1.296 1.296 0 0 0-.078.189l-.032.096a4.052 4.052 0 0 0-.387-.115 5.32 5.32 0 0 0-.534-.101 4.255 4.255 0 0 0-.599-.041 2.37 2.37 0 0 0-.585.069 1.277 1.277 0 0 0-.479.23 1.05 1.05 0 0 0-.322.433 1.735 1.735 0 0 0-.116.677v1.713c0 .264.039.496.116.696.076.199.188.365.336.497.147.132.334.232.562.299.227.068.491.102.792.102.135 0 .29-.004.465-.01l.534-.018c.181-.006.346-.014.493-.023l.364-.023.133-.009V21.8a6.396 6.396 0 0 1 .065-.866Zm-3.012 2.948v-1.686c0-.166.029-.293.087-.382a.57.57 0 0 1 .212-.198.742.742 0 0 1 .263-.079 2.565 2.565 0 0 1 .511 0c.107.01.221.026.341.051.119.025.238.051.354.078.117.028.224.06.323.097v2.929a4.472 4.472 0 0 1-.452.032l-.308.01c-.108.003-.211.004-.309.004-.221 0-.408-.026-.562-.078a.623.623 0 0 1-.345-.267c-.077-.126-.115-.297-.115-.511ZM168.885 19.267h-.627v.064a.401.401 0 0 1-.119.29.394.394 0 0 1-.295.125.406.406 0 0 1-.299-.125.395.395 0 0 1-.125-.29v-.064h-.635v.064a.99.99 0 0 0 .142.516 1.081 1.081 0 0 0 .917.525c.19 0 .364-.047.52-.143.157-.095.283-.222.378-.382a.991.991 0 0 0 .143-.516v-.064Zm-2.11 1.547h-.847v4.615h.884l2.073-3.196v3.196h.866v-4.615h-.894l-2.082 3.206v-3.206ZM174.863 24.572v-3.767h-1.612c-.307 0-.558.045-.751.134a1.257 1.257 0 0 0-.461.345 1.823 1.823 0 0 0-.267.451c-.064.16-.118.307-.161.442l-.801 2.395h-.627v1.944h.71l.156-1.087h3.5l.157 1.087h.718v-1.944h-.561Zm-3.15 0 .782-2.422c.037-.111.082-.204.134-.281a.657.657 0 0 1 .438-.286 1.63 1.63 0 0 1 .34-.032h.599v3.021h-2.293ZM176.677 24.103v-.35l2.883-.129v-1.382c0-.344-.075-.629-.225-.857a1.345 1.345 0 0 0-.636-.506 2.548 2.548 0 0 0-.963-.166 2.66 2.66 0 0 0-.976.17 1.52 1.52 0 0 0-.686.516c-.169.23-.253.521-.253.871v1.934c0 .239.043.444.129.612.085.169.205.307.359.415.153.107.337.186.552.235.215.049.449.073.7.073.307 0 .613-.039.917-.119a3.6 3.6 0 0 0 .824-.323l-.294-.718c-.252.11-.504.199-.756.267a2.753 2.753 0 0 1-.718.101c-.129 0-.247-.012-.355-.037a.712.712 0 0 1-.272-.119.582.582 0 0 1-.17-.203.63.63 0 0 1-.06-.285Zm2.027-1.695v.46l-2.027.092v-.525c0-.202.035-.371.106-.506a.696.696 0 0 1 .336-.309c.154-.07.356-.109.608-.115.234-.006.421.032.562.115a.78.78 0 0 1 .313.327c.068.135.102.289.102.461ZM183.152 22.5h-2.109v-1.686h-.856v4.606h.856v-2.11h2.109v2.11h.857v-4.606h-.857V22.5ZM188.495 20.934l-.728-.221a1.296 1.296 0 0 0-.078.189l-.032.096a4.052 4.052 0 0 0-.387-.115 5.288 5.288 0 0 0-.535-.101 4.23 4.23 0 0 0-.598-.041 2.37 2.37 0 0 0-.585.069 1.277 1.277 0 0 0-.479.23 1.06 1.06 0 0 0-.323.433 1.755 1.755 0 0 0-.115.677v1.713c0 .264.039.496.115.696.077.199.189.365.337.497.147.132.334.232.562.299.227.068.491.102.792.102.135 0 .29-.004.465-.01l.534-.018c.181-.006.345-.014.493-.023l.364-.023.133-.009V21.8a6.396 6.396 0 0 1 .065-.866Zm-3.012 2.948v-1.686c0-.166.029-.293.087-.382a.57.57 0 0 1 .212-.198.742.742 0 0 1 .263-.079 2.565 2.565 0 0 1 .511 0c.107.01.221.026.341.051.119.025.238.051.354.078.117.028.224.06.323.097v2.929a4.472 4.472 0 0 1-.452.032l-.308.01c-.108.003-.211.004-.309.004-.221 0-.408-.026-.562-.078a.623.623 0 0 1-.345-.267c-.077-.126-.115-.297-.115-.511Z" style="fill:#3b2621;fill-rule:nonzero"/>
    <path d="M79.334 140.886s-2.127-3.618-2.968-4.631c-2.455-2.956-2.193-7.474-.432-10.684 2.782-5.072 7.786-7.879 12.638-10.647 1.92-1.095 3.731-2.328 5.231-3.967.494-.54 1.653-3.084 1.866-2.764.426.641.638 7.208.764 9.427.543 9.527-.978 21.748-12.317 23.285-1.563.212-3.223.282-4.782-.019Z" style="fill:#8c633f"/>
    <clipPath id="A">
        <path d="M79.334 140.886s-2.127-3.618-2.968-4.631c-2.455-2.956-2.193-7.474-.432-10.684 2.782-5.072 7.786-7.879 12.638-10.647 1.92-1.095 3.731-2.328 5.231-3.967.494-.54 1.653-3.084 1.866-2.764.426.641.638 7.208.764 9.427.543 9.527-.978 21.748-12.317 23.285-1.563.212-3.223.282-4.782-.019Z"/>
    </clipPath>
    <g clip-path="url(#A)">
        <path d="M75.791 151.258c.685-4.539 4.02-9.214 6.459-12.967 5.233-8.052 10.106-14.586 12.564-24.083.921-3.554-.446-13.918-.855-14.02-1.144-.285-7.739 7.888-10.615 10.299-5.262 4.411-11.208 7.776-14.888 13.794-1.966 3.215-2.127 6.801-1.73 10.441.701 6.423 9.065 16.536 9.065 16.536Z" style="fill:none"/>
        <clipPath id="B">
            <path d="M75.791 151.258c.685-4.539 4.02-9.214 6.459-12.967 5.233-8.052 10.106-14.586 12.564-24.083.921-3.554-.446-13.918-.855-14.02-1.144-.285-7.739 7.888-10.615 10.299-5.262 4.411-11.208 7.776-14.888 13.794-1.966 3.215-2.127 6.801-1.73 10.441.701 6.423 9.065 16.536 9.065 16.536Z"/>
        </clipPath>
        <g clip-path="url(#B)">
            <path d="m79.061 93.838 26.782 13.518a.5.5 0 0 0 .451-.893L79.512 92.946a.5.5 0 1 0-.451.892ZM76.414 99.083l26.782 13.517a.5.5 0 1 0 .451-.892L76.865 98.19a.5.5 0 0 0-.451.893ZM73.767 104.328l26.782 13.517a.501.501 0 0 0 .672-.221.501.501 0 0 0-.221-.672l-26.782-13.517a.5.5 0 1 0-.451.893ZM71.12 109.572l26.782 13.518a.5.5 0 0 0 .451-.893l-26.782-13.518a.5.5 0 0 0-.451.893ZM68.473 114.817l26.782 13.517a.5.5 0 1 0 .45-.892l-26.782-13.518a.5.5 0 0 0-.45.893ZM65.826 120.062l26.782 13.517a.5.5 0 0 0 .45-.893l-26.782-13.517a.5.5 0 1 0-.45.893ZM63.179 125.306l26.782 13.518a.5.5 0 0 0 .45-.893l-26.782-13.518a.5.5 0 0 0-.45.893ZM60.532 130.551l26.782 13.517a.498.498 0 1 0 .45-.892l-26.782-13.518a.5.5 0 1 0-.45.893ZM57.884 135.796l26.783 13.517a.5.5 0 0 0 .45-.893l-26.782-13.517a.5.5 0 0 0-.451.893ZM55.237 141.04l26.782 13.518a.5.5 0 0 0 .451-.893l-26.782-13.518a.501.501 0 0 0-.451.893Z" style="fill:#bb9370"/>
        </g>
        <path d="M75.405 151.577a.5.5 0 0 0 .88-.244c.676-4.473 3.98-9.071 6.384-12.77 5.264-8.099 10.156-14.676 12.629-24.229.749-2.892.026-10.215-.513-13.082-.12-.64-.245-1.077-.332-1.24a.58.58 0 0 0-.373-.309.947.947 0 0 0-.563.055c-.282.109-.679.377-1.15.78-2.365 2.023-7.044 7.638-9.344 9.566-5.303 4.445-11.285 7.851-14.994 13.916-2.026 3.313-2.209 7.005-1.8 10.756.287 2.628 1.815 5.865 3.561 8.797 2.58 4.335 5.615 8.004 5.615 8.004Zm18.255-50.769c.045.173.099.398.142.629.521 2.771 1.252 9.85.528 12.646-2.444 9.441-7.297 15.931-12.499 23.935-2.282 3.51-5.318 7.823-6.324 12.083-1.025-1.31-3.054-4.01-4.858-7.039-1.667-2.801-3.152-5.884-3.426-8.394-.385-3.53-.247-7.009 1.659-10.126 3.651-5.97 9.563-9.296 14.783-13.671 2.02-1.693 5.869-6.217 8.39-8.682.618-.604 1.15-1.081 1.549-1.346l.056-.035Z" style="fill:#bb9370"/>
    </g>
    <path d="M82 145.615s-3.068-8.209 3.301-15.289c4.786-5.321 11.964-7.987 18.994-7.256 3.128.325 6.074 1.575 9.196 1.958 2.799.343 5.477-.582 7.82-2.068.759-.481 2.6-3.304 2.633-2.881.221 2.828-1.439 6.357-2.128 9.053-2.205 8.625-4.724 16.534-13.383 20.183-11.149 4.699-22.675 1.464-26.433-3.7Z" style="fill:#8c633f"/>
    <clipPath id="C">
        <path d="M82 145.615s-3.068-8.209 3.301-15.289c4.786-5.321 11.964-7.987 18.994-7.256 3.128.325 6.074 1.575 9.196 1.958 2.799.343 5.477-.582 7.82-2.068.759-.481 2.6-3.304 2.633-2.881.221 2.828-1.439 6.357-2.128 9.053-2.205 8.625-4.724 16.534-13.383 20.183-11.149 4.699-22.675 1.464-26.433-3.7Z"/>
    </clipPath>
    <g clip-path="url(#C)">
        <path d="M80.155 146.732c3.238-3.253 8.692-5.05 12.879-6.632 8.983-3.395 16.777-5.78 24.378-11.981 2.845-2.321 7.875-11.485 7.606-11.809-.754-.907-10.906 1.781-14.652 2.022-6.851.443-13.636-.362-20.163 2.312-3.487 1.428-5.738 4.224-7.572 7.394-3.236 5.593-2.476 18.694-2.476 18.694Z" style="fill:none"/>
        <clipPath id="D">
            <path d="M80.155 146.732c3.238-3.253 8.692-5.05 12.879-6.632 8.983-3.395 16.777-5.78 24.378-11.981 2.845-2.321 7.875-11.485 7.606-11.809-.754-.907-10.906 1.781-14.652 2.022-6.851.443-13.636-.362-20.163 2.312-3.487 1.428-5.738 4.224-7.572 7.394-3.236 5.593-2.476 18.694-2.476 18.694Z"/>
        </clipPath>
        <g clip-path="url(#D)">
            <path d="m116.765 102.376 13.593 26.744a.5.5 0 0 0 .892-.453l-13.594-26.744a.5.5 0 0 0-.891.453ZM111.527 105.038l13.594 26.744a.5.5 0 0 0 .891-.453l-13.593-26.744a.5.5 0 0 0-.892.453ZM106.29 107.7l13.594 26.744a.5.5 0 0 0 .891-.453l-13.593-26.744a.5.5 0 0 0-.892.453ZM101.053 110.362l13.594 26.744a.5.5 0 0 0 .891-.453l-13.593-26.744a.501.501 0 0 0-.892.453ZM95.816 113.024l13.594 26.744a.5.5 0 0 0 .891-.453l-13.593-26.744a.501.501 0 0 0-.892.453ZM90.579 115.686l13.593 26.744a.501.501 0 0 0 .892-.453L91.47 115.233a.5.5 0 0 0-.891.453ZM85.342 118.348l13.593 26.744a.501.501 0 0 0 .892-.453l-13.594-26.744a.5.5 0 0 0-.891.453ZM80.105 121.01l13.593 26.744a.5.5 0 1 0 .892-.454l-13.594-26.743a.5.5 0 0 0-.891.453ZM74.868 123.672l13.593 26.744a.5.5 0 1 0 .892-.454l-13.594-26.743a.5.5 0 0 0-.891.453ZM69.63 126.334l13.594 26.744a.5.5 0 1 0 .891-.454l-13.593-26.743a.5.5 0 0 0-.892.453Z" style="fill:#bb9370"/>
        </g>
        <path d="M79.655 146.761a.502.502 0 0 0 .854.324c3.191-3.206 8.576-4.958 12.702-6.518 9.036-3.415 16.871-5.823 24.517-12.061 2.315-1.888 6.064-8.22 7.326-10.85.282-.587.44-1.013.466-1.195a.573.573 0 0 0-.118-.47.931.931 0 0 0-.486-.289c-.291-.079-.77-.098-1.389-.052-3.103.231-10.198 1.99-13.193 2.183-6.905.446-13.742-.347-20.321 2.348-3.593 1.472-5.925 4.34-7.815 7.607-1.324 2.288-2.007 5.802-2.334 9.199-.484 5.02-.209 9.774-.209 9.774Zm44.755-30.128c-.066.166-.156.379-.257.591-1.22 2.542-4.819 8.682-7.057 10.507-7.556 6.165-15.308 8.526-24.238 11.901-3.916 1.48-8.916 3.16-12.248 5.999-.051-1.662-.089-5.039.249-8.548.313-3.245.94-6.609 2.205-8.795 1.778-3.073 3.948-5.796 7.328-7.181 6.476-2.654 13.21-1.837 20.007-2.276 2.63-.169 8.41-1.539 11.9-2.035.856-.121 1.567-.191 2.045-.168l.066.005Z" style="fill:#bb9370"/>
    </g>
    <path d="M67.335 140.514c-.429-.944-1.033-1.784-1.84-2.444-5.977-4.887-9.993 2.85-12.02 7.311-.305.671-2.082 2.797-2.082 3.378 0 .039 1.158.217 1.267.238 1.368.255 2.72.578 4.078.876 4.136.906 13.563 1.014 13.285-4.905a4.292 4.292 0 0 0-1.083-2.649c-.684-.772-1.605-1.805-1.605-1.805Z" style="fill:#8c633f"/>
    <clipPath id="E">
        <path d="M67.335 140.514c-.429-.944-1.033-1.784-1.84-2.444-5.977-4.887-9.993 2.85-12.02 7.311-.305.671-2.082 2.797-2.082 3.378 0 .039 1.158.217 1.267.238 1.368.255 2.72.578 4.078.876 4.136.906 13.563 1.014 13.285-4.905a4.292 4.292 0 0 0-1.083-2.649c-.684-.772-1.605-1.805-1.605-1.805Z"/>
    </clipPath>
    <g clip-path="url(#E)">
        <path d="M71.856 141.879c-1.712 1.135-4.136 1.358-6.023 1.623-4.046.568-7.487.804-11.327 2.809-1.436.751-4.608 4.395-4.54 4.573.191.498 4.621.382 6.162.683 2.818.55 5.455 1.664 8.421 1.156 1.585-.271 2.841-1.304 3.976-2.554 2.003-2.206 3.331-8.29 3.331-8.29Z" style="fill:none"/>
        <clipPath id="F">
            <path d="M71.856 141.879c-1.712 1.135-4.136 1.358-6.023 1.623-4.046.568-7.487.804-11.327 2.809-1.436.751-4.608 4.395-4.54 4.573.191.498 4.621.382 6.162.683 2.818.55 5.455 1.664 8.421 1.156 1.585-.271 2.841-1.304 3.976-2.554 2.003-2.206 3.331-8.29 3.331-8.29Z"/>
        </clipPath>
        <g clip-path="url(#F)">
            <path d="m43.923 160.235-2.147-13.741a.5.5 0 0 0-.988.155l2.147 13.741a.5.5 0 1 0 .988-.155ZM48.127 159.128l-2.147-13.741a.5.5 0 0 0-.988.154l2.147 13.741a.5.5 0 0 0 .988-.154ZM52.332 158.021l-2.148-13.741a.5.5 0 1 0-.988.154l2.148 13.741a.5.5 0 1 0 .988-.154ZM56.536 156.913l-2.147-13.741a.5.5 0 0 0-.988.155l2.147 13.741a.5.5 0 0 0 .988-.155ZM60.74 155.806l-2.147-13.741a.5.5 0 1 0-.988.154l2.147 13.741a.5.5 0 0 0 .988-.154ZM64.945 154.699l-2.147-13.742a.5.5 0 0 0-.988.155l2.147 13.741a.5.5 0 1 0 .988-.154ZM69.149 153.591l-2.147-13.741a.5.5 0 0 0-.988.154l2.147 13.742a.5.5 0 0 0 .988-.155ZM73.354 152.484l-2.148-13.741a.5.5 0 1 0-.988.154l2.148 13.741a.5.5 0 1 0 .988-.154ZM77.558 151.376l-2.147-13.741a.5.5 0 0 0-.988.155l2.147 13.741a.5.5 0 0 0 .988-.155ZM81.762 150.269l-2.147-13.741a.5.5 0 1 0-.988.154l2.147 13.741a.5.5 0 0 0 .988-.154Z" style="fill:#bb9370"/>
        </g>
        <path d="M72.344 141.986a.499.499 0 0 0-.764-.523c-1.652 1.094-3.996 1.289-5.816 1.544-4.106.576-7.594.827-11.489 2.861-1.345.702-4.159 3.834-4.655 4.591-.196.297-.146.538-.121.604a.67.67 0 0 0 .277.326c.13.083.358.164.666.22 1.28.235 4.359.209 5.59.449 2.878.561 5.573 1.677 8.601 1.158 1.694-.29 3.049-1.375 4.262-2.711 2.061-2.27 3.449-8.519 3.449-8.519Zm-21.612 8.649c.827-1.04 2.925-3.316 4.006-3.881 3.783-1.976 7.177-2.197 11.165-2.757 1.6-.224 3.571-.435 5.206-1.15-.464 1.808-1.527 5.413-2.954 6.986-1.057 1.164-2.215 2.145-3.69 2.398-2.904.497-5.482-.616-8.242-1.155-1.087-.212-3.603-.222-5.08-.379a5.464 5.464 0 0 1-.411-.062Z" style="fill:#bb9370"/>
    </g>
    <path d="M192.219 149.472c6.728 1.108 20.563-3.102 18.106-11.861-.398-1.419-2.008-4.475-2.008-4.475s-.436-3.993-3.111-6.332c-3.816-3.336-10.699-5.294-14.645-4.469-7.691 1.608-12.373 17.987-14.799 21.258-.265.357 4.89.691 5.617.979 2.149.849 8.572 4.527 10.84 4.9Z" style="fill:#8c633f"/>
    <clipPath id="G">
        <path d="M192.219 149.472c6.728 1.108 20.563-3.102 18.106-11.861-.398-1.419-2.008-4.475-2.008-4.475s-.436-3.993-3.111-6.332c-3.816-3.336-10.699-5.294-14.645-4.469-7.691 1.608-12.373 17.987-14.799 21.258-.265.357 4.89.691 5.617.979 2.149.849 8.572 4.527 10.84 4.9Z"/>
    </clipPath>
    <g clip-path="url(#G)">
        <path d="M167.651 144.851c4.587.174 9.804-2.228 13.946-3.923 8.888-3.637 16.217-7.203 26.006-7.844 3.664-.24 13.589 3.038 13.613 3.459.067 1.177-9.195 6.129-12.101 8.504-5.315 4.345-9.732 9.558-16.332 12.05-3.525 1.33-7.078.818-10.58-.252-6.179-1.888-14.552-11.994-14.552-11.994Z" style="fill:none"/>
        <clipPath id="H">
            <path d="M167.651 144.851c4.587.174 9.804-2.228 13.946-3.923 8.888-3.637 16.217-7.203 26.006-7.844 3.664-.24 13.589 3.038 13.613 3.459.067 1.177-9.195 6.129-12.101 8.504-5.315 4.345-9.732 9.558-16.332 12.05-3.525 1.33-7.078.818-10.58-.252-6.179-1.888-14.552-11.994-14.552-11.994Z"/>
        </clipPath>
        <g clip-path="url(#H)">
            <path d="m225.633 152.089-8.277-28.836a.5.5 0 1 0-.961.276l8.276 28.836a.5.5 0 0 0 .962-.276ZM219.986 153.71l-8.277-28.836a.5.5 0 1 0-.961.276l8.277 28.836a.5.5 0 0 0 .961-.276ZM214.339 155.33l-8.276-28.835a.5.5 0 0 0-.962.275l8.277 28.836a.5.5 0 1 0 .961-.276ZM208.692 156.951l-8.276-28.836a.5.5 0 0 0-.961.276l8.276 28.836a.5.5 0 1 0 .961-.276ZM203.045 158.572l-8.276-28.836a.5.5 0 0 0-.961.276l8.276 28.836a.5.5 0 0 0 .961-.276ZM197.398 160.193l-8.276-28.836a.5.5 0 1 0-.961.276l8.276 28.835a.5.5 0 0 0 .961-.275ZM191.752 161.813l-8.277-28.836a.5.5 0 0 0-.961.276l8.276 28.836a.5.5 0 0 0 .962-.276ZM186.105 163.434l-8.277-28.836a.499.499 0 1 0-.961.276l8.277 28.836a.5.5 0 1 0 .961-.276ZM180.458 165.055l-8.276-28.836a.501.501 0 0 0-.962.276l8.277 28.836a.5.5 0 0 0 .961-.276ZM174.811 166.675l-8.276-28.835a.5.5 0 1 0-.961.276l8.276 28.835a.5.5 0 1 0 .961-.276Z" style="fill:#bb9370"/>
        </g>
        <path d="M167.67 144.351a.5.5 0 0 0-.404.819s3.038 3.667 6.814 7.012c2.554 2.262 5.449 4.368 7.977 5.141 3.609 1.103 7.27 1.612 10.903.241 6.652-2.51 11.114-7.75 16.472-12.13 2.324-1.899 8.714-5.447 11.143-7.392.484-.388.822-.728.981-.984a.938.938 0 0 0 .159-.543.577.577 0 0 0-.234-.425c-.143-.116-.55-.319-1.155-.557-2.716-1.065-9.775-3.144-12.756-2.948-9.847.645-17.222 4.222-26.162 7.88-4.083 1.671-9.217 4.058-13.738 3.886Zm52.882-7.63-.045.048c-.335.343-.903.777-1.612 1.271-2.892 2.016-8.056 4.952-10.096 6.62-5.274 4.311-9.645 9.497-16.192 11.969-3.418 1.29-6.862.775-10.258-.262-2.415-.738-5.166-2.772-7.606-4.934-2.639-2.338-4.912-4.835-6.008-6.087 4.373-.192 9.177-2.37 13.052-3.955 8.835-3.616 16.117-7.171 25.849-7.808 2.881-.189 9.699 1.852 12.324 2.881.219.086.43.18.592.257Z" style="fill:#bb9370"/>
    </g>
    <path d="M233.61 115.686c.379 2.037.29 4.179.144 6.236-.42 5.901-1.172 11.177-3.123 16.79-.71 2.043-1.177 4.506-2.28 6.388a.5.5 0 0 0 .863.506c1.135-1.937 1.631-4.464 2.362-6.566 1.981-5.699 2.749-11.055 3.175-17.047.152-2.141.237-4.37-.158-6.49a.5.5 0 1 0-.983.183Z" style="fill:#70453b"/>
    <path d="M213.698 138.253s.552-8.216 1.07-9.779c2.881-8.701 11.324-8.16 19.558-5.539 1.837.585 3.658 1.181 5.617 1.338.616.049 2.804-.392 2.864-.094.224 1.132-2.497 4.513-2.941 5.814-2.369 6.936-4.942 13.511-14.923 12.982-1.899-.1-3.767-.592-5.483-1.312-2.058-.862-4.104-2.01-5.762-3.41Z" style="fill:#8c633f"/>
    <clipPath id="I">
        <path d="M213.698 138.253s.552-8.216 1.07-9.779c2.881-8.701 11.324-8.16 19.558-5.539 1.837.585 3.658 1.181 5.617 1.338.616.049 2.804-.392 2.864-.094.224 1.132-2.497 4.513-2.941 5.814-2.369 6.936-4.942 13.511-14.923 12.982-1.899-.1-3.767-.592-5.483-1.312-2.058-.862-4.104-2.01-5.762-3.41Z"/>
    </clipPath>
    <g clip-path="url(#I)">
        <path d="M253.999 119.02c-3.342 3.147-8.852 4.765-13.089 6.211-9.088 3.101-16.955 5.23-24.754 11.181-2.919 2.227-8.244 11.222-7.986 11.555.724.931 10.959-1.425 14.71-1.544 6.862-.22 13.617.806 20.228-1.655 3.531-1.314 5.872-4.035 7.808-7.144 3.416-5.485 3.083-18.604 3.083-18.604Z" style="fill:none"/>
        <clipPath id="J">
            <path d="M253.999 119.02c-3.342 3.147-8.852 4.765-13.089 6.211-9.088 3.101-16.955 5.23-24.754 11.181-2.919 2.227-8.244 11.222-7.986 11.555.724.931 10.959-1.425 14.71-1.544 6.862-.22 13.617.806 20.228-1.655 3.531-1.314 5.872-4.035 7.808-7.144 3.416-5.485 3.083-18.604 3.083-18.604Z"/>
        </clipPath>
        <g clip-path="url(#J)">
            <path d="m215.966 162.162-12.716-27.171a.5.5 0 0 0-.906.424l12.716 27.171a.5.5 0 0 0 .906-.424ZM221.287 159.672 208.57 132.5a.499.499 0 1 0-.905.424l12.716 27.172a.5.5 0 0 0 .906-.424ZM226.608 157.182l-12.717-27.172a.5.5 0 1 0-.905.424l12.716 27.172a.501.501 0 0 0 .906-.424ZM231.929 154.691l-12.717-27.171a.5.5 0 1 0-.905.424l12.716 27.171a.5.5 0 0 0 .906-.424ZM237.25 152.201l-12.717-27.171a.5.5 0 0 0-.905.424l12.716 27.171a.5.5 0 0 0 .906-.424ZM242.571 149.711l-12.717-27.171a.5.5 0 0 0-.906.423l12.717 27.172a.5.5 0 0 0 .906-.424ZM247.892 147.221l-12.717-27.172a.5.5 0 0 0-.906.424l12.717 27.172a.5.5 0 0 0 .906-.424ZM253.212 144.731l-12.716-27.172a.5.5 0 0 0-.906.424l12.717 27.171a.5.5 0 0 0 .905-.423ZM258.533 142.24l-12.716-27.171a.5.5 0 0 0-.906.424l12.717 27.171a.5.5 0 0 0 .905-.424ZM263.854 139.75l-12.716-27.171a.5.5 0 0 0-.906.423l12.717 27.172a.5.5 0 1 0 .905-.424Z" style="fill:#bb9370"/>
        </g>
        <path d="M254.499 119.008a.5.5 0 0 0-.843-.352c-3.293 3.101-8.732 4.677-12.907 6.101-9.142 3.12-17.052 5.272-24.896 11.258-2.375 1.812-6.329 8.018-7.675 10.606-.301.577-.473.998-.505 1.18-.042.24.04.393.102.473a.938.938 0 0 0 .478.304c.288.089.766.123 1.386.097 3.109-.13 10.257-1.657 13.257-1.753 6.916-.221 13.723.795 20.387-1.685 3.638-1.355 6.063-4.145 8.058-7.349 1.397-2.244 2.194-5.733 2.632-9.118.647-5.002.526-9.762.526-9.762Zm-45.711 28.656c.072-.164.169-.374.277-.582 1.302-2.501 5.099-8.521 7.394-10.272 7.753-5.916 15.578-8.024 24.613-11.106 3.962-1.352 9.014-2.869 12.436-5.598-.003 1.663-.075 5.04-.527 8.536-.418 3.233-1.154 6.574-2.489 8.718-1.877 3.014-4.134 5.665-7.558 6.939-6.559 2.442-13.263 1.406-20.07 1.624-2.634.084-8.456 1.265-11.961 1.647-.859.094-1.571.14-2.049.102a1.689 1.689 0 0 1-.066-.008Z" style="fill:#bb9370"/>
    </g>
    <path d="M232.313 106.013a3.138 3.138 0 0 1 3.136-3.137 3.138 3.138 0 0 1 3.136 3.137 3.139 3.139 0 0 1 4.408.496 3.138 3.138 0 0 1-.497 4.408 3.138 3.138 0 0 1 2.36 3.756 3.138 3.138 0 0 1-3.755 2.36 3.138 3.138 0 0 1-1.465 4.186 3.138 3.138 0 0 1-4.187-1.465 3.138 3.138 0 0 1-4.187 1.465 3.138 3.138 0 0 1-1.465-4.186 3.138 3.138 0 0 1-3.755-2.36 3.138 3.138 0 0 1 2.36-3.756 3.138 3.138 0 0 1-.497-4.408 3.139 3.139 0 0 1 4.408-.496Z" style="fill:#eadccc"/>
    <circle cx="235.449" cy="112.526" r="4.02" style="fill:#c26a55"/>
    <path d="M232.949 111.124a1.014 1.014 0 0 0 1.712.368 1.013 1.013 0 0 0-.072-1.428 1.015 1.015 0 0 0-1.428.073 1.013 1.013 0 0 0-.212.987Zm2.484-.857a.609.609 0 0 0 1.156-.372.61.61 0 0 0-1.019-.189c-.137.152-.189.363-.137.561Zm-2.967 2.655a.607.607 0 1 0 .391-.764.612.612 0 0 0-.391.764Zm3.946 1.701a.61.61 0 0 0 1.036.25.61.61 0 0 0-.044-.857.606.606 0 0 0-.992.607Zm-2.68-.41c.054.169.152.321.284.44a1.01 1.01 0 1 0-.284-.44Zm2.716-1.936c.172.527.745.82 1.272.652.169-.054.321-.152.44-.284a1.016 1.016 0 0 0-.072-1.428 1.016 1.016 0 0 0-1.428.073 1.013 1.013 0 0 0-.212.987Z" style="fill:#e9d0bc"/>
    <path d="M235.644 107.112c-.069-.806.014-1.604-.027-2.407a.5.5 0 0 0-.999.051c.042.815-.041 1.625.03 2.442a.5.5 0 0 0 .996-.086ZM239.695 109.478c.524-.568 1.21-.927 1.849-1.342a.5.5 0 0 0-.546-.839c-.708.461-1.457.874-2.038 1.503a.5.5 0 0 0 .735.678ZM240.148 114.214c.927.161 1.871.221 2.8.363a.5.5 0 0 0 .151-.989c-.923-.141-1.86-.199-2.781-.359a.5.5 0 1 0-.17.985ZM236.94 117.321c.394.779.768 1.555 1.155 2.334a.5.5 0 1 0 .896-.444c-.388-.782-.764-1.56-1.159-2.341a.499.499 0 1 0-.892.451ZM232.225 119.659c.253-.78.606-1.525.852-2.307a.5.5 0 0 0-.954-.3c-.245.779-.597 1.521-.849 2.298a.5.5 0 0 0 .951.309ZM227.907 114.563c.8-.063 1.59-.113 2.387-.197a.5.5 0 0 0-.105-.995c-.788.084-1.57.132-2.361.195a.499.499 0 1 0 .079.997ZM228.88 108.066c.65.486 1.313.953 1.914 1.499a.5.5 0 0 0 .673-.74c-.625-.568-1.312-1.054-1.988-1.56a.5.5 0 0 0-.599.801Z" style="fill:#b9a493"/>
</svg>
